<?xml version="1.0" standalone="no"?>
<!DOCTYPE svg PUBLIC "-//W3C//DTD SVG 20010904//EN"
 "http://www.w3.org/TR/2001/REC-SVG-20010904/DTD/svg10.dtd">
<svg version="1.0" xmlns="http://www.w3.org/2000/svg"
 width="300.000000pt" height="300.000000pt" viewBox="0 0 300.000000 300.000000"
 preserveAspectRatio="xMidYMid meet">
<metadata>
Created by potrace 1.10, written by Peter Selinger 2001-2011
</metadata>
<g transform="translate(0.000000,300.000000) scale(0.100000,-0.100000)"
fill="#000000" stroke="none">
<path d="M2274 2819 c-37 -10 -101 -77 -110 -114 -5 -19 -11 -24 -23 -19 -70
31 -120 4 -128 -67 l-5 -45 -54 -1 c-61 -2 -128 -29 -164 -68 l-23 -25 431 0
432 0 0 35 c0 22 -8 43 -20 55 -23 23 -29 24 -64 10 l-26 -10 0 63 c0 147
-106 227 -246 186z m150 -24 c52 -25 80 -85 80 -172 1 -61 4 -72 16 -67 60 23
82 14 95 -39 l7 -27 -411 0 c-226 0 -411 2 -411 5 0 2 21 17 47 32 36 21 62
28 112 29 l66 3 5 51 c3 29 12 55 20 61 16 10 74 7 102 -5 12 -6 18 0 23 24 9
39 50 89 90 106 41 18 120 17 159 -1z" />
<path d="M1120 2588 c-11 -18 -22 -45 -25 -60 -8 -35 -15 -35 -46 -2 -34 37
-108 72 -168 80 l-51 7 0 -34 c1 -47 17 -114 40 -162 11 -22 20 -42 20 -44 0
-2 -20 -3 -45 -3 -24 0 -55 -5 -69 -11 -41 -19 -70 -115 -82 -277 -4 -54 -12
-95 -18 -97 -6 -2 -51 -10 -100 -19 -93 -18 -143 -38 -152 -61 -16 -42 59
-195 113 -230 38 -25 115 -44 210 -51 80 -7 81 -7 87 -37 11 -54 6 -141 -9
-161 -8 -11 -15 -31 -15 -46 0 -29 25 -70 44 -70 7 0 18 -24 26 -52 7 -29 33
-91 56 -137 l44 -85 -25 -208 c-14 -115 -25 -214 -25 -221 -1 -7 -23 -22 -50
-35 -60 -28 -91 -69 -98 -128 l-5 -44 -83 0 -83 0 -5 57 c-4 32 -14 104 -22
159 l-16 102 24 53 c14 30 37 69 52 86 24 28 33 32 70 31 43 -2 95 25 96 49 0
16 -59 32 -85 23 -11 -4 -25 -18 -32 -30 -6 -13 -18 -27 -27 -32 -12 -7 -16
-1 -21 26 -4 19 -2 43 4 54 20 37 12 64 -29 104 -58 54 -70 51 -70 -19 0 -52
3 -58 39 -92 50 -46 55 -82 18 -136 -14 -22 -32 -56 -38 -74 l-12 -35 -13 37
c-11 31 -11 41 1 64 42 80 -20 145 -167 177 -27 6 -28 5 -28 -31 0 -102 47
-172 122 -180 45 -5 48 -8 62 -47 18 -50 36 -116 36 -135 0 -24 -27 7 -33 38
-11 56 -107 141 -143 127 -10 -4 -14 -22 -14 -62 0 -51 3 -59 35 -91 33 -33
39 -35 85 -31 29 3 56 0 65 -6 9 -7 16 -41 21 -98 l7 -88 -174 -2 c-96 -1 62
-4 351 -7 289 -4 851 -4 1250 0 399 3 681 6 628 7 l-96 2 -7 30 c-4 17 -1 53
5 80 l12 50 48 0 c56 0 101 31 119 80 9 28 8 32 -15 40 -92 35 -154 11 -154
-60 0 -20 -7 -54 -15 -73 -8 -20 -15 -61 -15 -92 l0 -55 -105 0 c-58 0 -105 2
-105 6 0 3 27 100 61 217 l61 212 -12 111 c-12 116 -9 171 17 293 19 91 13
211 -16 293 l-19 56 54 27 c66 32 99 78 116 157 23 109 -40 265 -137 339 -41
32 -115 65 -115 52 0 -3 21 -28 46 -56 59 -66 102 -141 110 -193 11 -76 -31
-171 -99 -225 l-27 -21 -40 35 c-82 70 -191 78 -366 27 -195 -57 -352 -50
-483 21 -113 61 -118 68 -163 245 l-40 159 23 45 c47 95 34 250 -28 332 -31
41 -89 88 -110 88 -7 0 -22 -14 -33 -32z m112 -45 c85 -89 94 -276 18 -383
-23 -32 -26 -48 -6 -31 11 9 15 7 19 -10 4 -15 -6 -31 -39 -63 -35 -34 -44
-49 -44 -76 0 -21 -8 -43 -22 -57 -27 -29 -16 -56 26 -61 14 -2 26 -9 26 -16
0 -18 39 -52 78 -69 l33 -14 -33 -49 c-63 -93 -165 -138 -347 -151 l-90 -6 -3
34 c-3 31 -6 34 -40 37 -21 2 -38 7 -38 13 0 5 4 9 10 9 5 0 25 16 45 35 34
34 46 65 25 65 -5 0 -10 -6 -10 -13 0 -19 -60 -74 -95 -87 -23 -9 -46 -7 -105
6 -67 14 -80 21 -122 65 -58 60 -67 89 -39 125 12 15 21 41 21 59 l0 32 100
17 c114 21 104 6 115 162 7 102 30 193 56 219 17 18 33 20 127 20 146 -1 162
-6 162 -50 0 -19 3 -35 8 -35 4 0 8 37 9 83 2 85 28 192 58 235 16 22 16 22
43 3 15 -11 39 -32 54 -48z m-289 31 c25 -8 66 -33 90 -54 38 -33 43 -43 39
-70 l-4 -31 -35 41 c-38 43 -126 100 -157 100 -16 0 -17 -5 -11 -36 3 -20 17
-61 31 -92 28 -64 25 -83 -4 -25 -20 37 -34 86 -46 151 -5 30 -4 32 22 32 16
0 49 -7 75 -16z m38 -85 c48 -38 79 -80 79 -109 0 -20 -4 -22 -31 -16 -17 3
-44 6 -59 6 -24 0 -31 8 -57 68 -17 37 -33 77 -36 89 -5 22 -4 22 30 8 19 -8
52 -29 74 -46z m1486 -421 c80 -83 123 -231 93 -323 -17 -51 -73 -111 -117
-126 -34 -11 -38 -10 -55 11 -18 23 -18 23 21 56 57 49 91 123 91 198 0 74
-20 121 -84 199 -42 52 -44 56 -19 43 15 -8 47 -34 70 -58z m-1164 -110 c27
-112 33 -159 21 -171 -13 -13 -86 35 -97 64 -9 22 -18 29 -39 29 -33 0 -37 19
-8 45 12 11 20 31 20 51 0 34 41 94 64 94 7 0 23 -46 39 -112z m-813 -42 c0
-29 -12 -45 -28 -38 -14 5 -15 3 -5 -10 13 -15 7 -32 -8 -22 -16 10 -10 63 9
73 24 14 32 13 32 -3z m905 -166 c-23 -94 -94 -175 -199 -224 -58 -28 -188
-66 -224 -66 -5 0 -13 20 -19 44 l-10 43 62 6 c99 9 190 44 245 94 50 45 90
112 90 151 l0 23 31 -23 c24 -18 29 -27 24 -48z m59 -9 c58 -36 156 -62 238
-64 78 -2 78 -2 88 -33 16 -48 42 -66 89 -63 28 2 46 -2 60 -15 11 -10 40 -21
65 -23 40 -5 48 -2 76 26 17 17 36 31 41 31 4 0 16 11 25 25 13 21 24 25 63
25 29 0 59 8 80 21 l33 20 25 -23 c86 -80 127 -292 88 -453 -16 -66 -19 -253
-6 -324 9 -44 -1 -88 -100 -423 l-20 -68 -44 0 c-43 0 -45 1 -45 29 0 16 7 34
15 41 17 14 20 30 5 30 -13 0 -40 -54 -40 -80 0 -15 -6 -20 -25 -20 -15 0 -25
6 -25 14 0 23 20 70 33 78 8 5 6 8 -5 8 -22 0 -38 -30 -38 -69 0 -26 -4 -31
-25 -31 -23 0 -25 3 -19 28 14 55 51 93 106 107 25 6 27 10 33 101 l7 93 -72
78 c-222 238 -276 449 -155 607 42 55 30 62 -14 9 -61 -74 -83 -213 -48 -312
19 -52 18 -53 -73 -100 -68 -35 -130 -55 -242 -80 -81 -17 -88 -18 -88 -3 0
10 7 71 15 137 8 65 14 160 14 210 l-2 90 -8 -90 c-22 -243 -51 -449 -105
-738 l-26 -137 -54 0 c-62 0 -71 16 -32 57 24 25 9 32 -16 7 -14 -14 -21 -35
-17 -56 0 -5 -10 -8 -24 -8 -30 0 -35 33 -8 62 9 10 14 21 11 24 -10 9 -39
-28 -45 -57 -3 -19 -12 -29 -23 -29 -52 0 -20 79 44 110 42 20 46 25 42 49 -3
14 -24 157 -47 316 -23 160 -43 292 -45 294 -12 13 -12 -15 1 -104 8 -55 17
-112 20 -127 4 -26 3 -27 -28 -21 -94 17 -191 91 -247 188 -16 28 -40 85 -55
128 -21 62 -23 81 -14 99 6 11 9 40 7 63 l-5 41 87 11 c218 28 367 122 418
265 9 26 18 48 21 48 2 0 18 -9 35 -19z m804 -16 c33 -14 40 -20 32 -31 -15
-17 -65 -28 -117 -26 -36 2 -42 0 -45 -20 -2 -15 -11 -24 -25 -26 -13 -2 -23
-10 -23 -17 0 -45 -106 -61 -143 -21 -16 17 -27 21 -42 15 -35 -14 -55 -10
-80 16 -33 32 -33 65 -1 65 13 0 70 13 127 29 57 16 113 32 124 35 38 9 150
-1 193 -19z m-1321 -221 c10 -41 9 -44 -11 -44 -11 0 -31 -3 -42 -6 -19 -5
-22 -1 -26 38 -3 23 -4 45 -2 48 1 3 18 6 37 7 32 1 34 -1 44 -43z m-54 -98
c12 -36 -6 -79 -31 -74 -21 4 -29 72 -11 94 16 20 31 13 42 -20z m-272 -334
c25 -22 30 -33 27 -62 l-4 -35 -19 38 c-10 20 -22 37 -27 37 -12 0 -10 -5 13
-44 22 -38 13 -49 -14 -18 -21 23 -35 112 -19 112 7 0 26 -12 43 -28z m1363
-37 c6 -17 -41 -52 -84 -61 -14 -3 -34 -9 -45 -14 -20 -8 -20 -9 1 -9 29 -1
83 18 116 41 15 10 29 14 32 9 7 -11 -31 -41 -51 -41 -7 0 -13 -4 -13 -10 0
-15 23 -12 50 7 23 16 24 16 44 -12 12 -16 45 -57 74 -92 l53 -64 -63 -194
-63 -194 -52 -1 c-46 0 -53 3 -53 19 0 11 7 27 16 36 9 9 13 19 9 23 -10 10
-45 -36 -45 -59 0 -12 -7 -19 -20 -19 -25 0 -28 41 -5 64 9 8 11 17 6 21 -13
8 -41 -35 -41 -62 0 -17 -6 -23 -21 -23 -19 0 -21 4 -16 37 8 46 50 88 106
103 l39 10 7 73 c3 39 8 79 11 88 3 12 -8 21 -38 33 -68 26 -147 112 -163 177
-6 24 -2 27 62 52 37 15 82 38 98 52 35 29 41 30 49 10z m-941 -48 c36 -35
115 -77 142 -77 8 0 15 -7 15 -15 0 -22 -30 -18 -86 10 -56 29 -54 28 -54 16
0 -13 81 -51 108 -51 12 0 22 -5 22 -11 0 -7 -12 -9 -35 -5 -43 8 -46 -1 -5
-16 17 -5 29 -15 26 -22 -2 -6 -35 -102 -73 -213 l-68 -203 -57 0 c-54 0 -58
2 -58 23 0 13 7 32 15 43 21 28 18 40 -5 19 -11 -10 -22 -33 -26 -51 -4 -24
-12 -34 -25 -34 -15 0 -19 7 -19 34 0 18 7 39 15 46 8 7 15 18 15 24 -1 26
-50 -47 -50 -75 0 -22 -5 -29 -20 -29 -23 0 -24 10 -10 59 12 43 50 84 101
106 21 10 40 25 43 34 2 9 14 107 27 219 12 111 23 202 24 202 1 0 18 -15 38
-33z m-570 -24 c63 -25 95 -88 68 -132 -7 -11 -11 -9 -21 10 -15 30 -71 89
-83 89 -5 0 7 -18 26 -39 39 -44 61 -80 53 -88 -3 -3 -24 1 -48 8 -50 17 -75
53 -87 129 l-8 51 31 -7 c17 -3 48 -13 69 -21z m316 -22 c10 -7 8 -12 -10 -25
-13 -9 -32 -16 -43 -16 -20 0 -20 0 0 16 18 14 18 15 -6 8 -22 -6 -23 -5 -11
10 15 17 48 21 70 7z m984 -53 c33 -74 67 -111 132 -144 55 -29 56 -30 50 -66
-17 -123 -13 -114 -55 -127 -47 -14 -97 -69 -106 -116 l-6 -35 -167 0 -168 0
23 118 c13 64 33 176 45 248 l21 130 97 21 c53 11 99 21 103 22 3 0 17 -23 31
-51z m-523 5 c0 -5 11 -82 25 -173 14 -91 25 -168 25 -172 0 -4 -18 -17 -39
-28 -47 -24 -71 -55 -71 -92 0 -28 0 -28 -69 -28 l-70 0 80 238 c44 130 82
243 84 250 5 13 35 17 35 5z m970 -247 c-4 -47 -8 -87 -11 -88 -2 -2 -22 -12
-44 -23 -44 -22 -85 -76 -85 -111 0 -15 -6 -24 -16 -24 -9 0 -14 4 -12 9 2 5
30 90 63 189 l60 180 25 -24 c24 -22 25 -27 20 -108z m-1718 52 c29 -36 45
-78 30 -78 -5 0 -28 18 -50 40 -22 22 -43 40 -46 40 -14 0 30 -53 63 -77 l36
-25 -39 6 c-21 3 -47 13 -57 22 -25 23 -42 78 -34 114 l7 31 31 -20 c18 -11
44 -35 59 -53z m2219 -35 c17 -17 -33 -77 -73 -87 -62 -15 -89 29 -52 83 15
20 23 23 66 19 27 -3 54 -10 59 -15z"/>
<path d="M1119 2533 c-16 -42 -23 -85 -26 -158 l-4 -100 60 -62 c34 -35 63
    -58 67 -52 12 20 16 205 5 263 -12 65 -54 166 -70 166 -5 0 -20 -26 -32 -57z
    m76 -69 c9 -36 15 -103 15 -173 l0 -115 -55 54 c-54 53 -55 56 -55 111 0 68
    14 145 35 196 l16 38 15 -27 c7 -14 21 -53 29 -84z"/>
<path d="M910 2146 c0 -2 16 -13 35 -25 19 -11 41 -35 49 -53 13 -29 14 -30
15 -9 1 26 -58 91 -83 91 -9 0 -16 -2 -16 -4z"/>
<path d="M883 2066 c-2 -19 3 -47 10 -64 l12 -29 43 18 c23 10 42 23 42 29 0
23 -21 50 -50 65 -44 23 -55 19 -57 -19z m45 2 c17 -17 15 -65 -3 -71 -11 -5
-13 1 -9 26 3 25 2 28 -5 12 -8 -17 -9 -15 -8 12 2 36 7 39 25 21z"/>
<path d="M957 1982 c-15 -9 -27 -21 -27 -25 0 -5 11 -2 25 7 34 22 42 20 19
-5 -13 -15 -14 -20 -5 -17 8 2 20 13 28 25 19 28 -4 37 -40 15z"/>
<path d="M840 1780 c0 -5 9 -10 20 -10 10 0 24 -8 29 -17 9 -16 10 -16 11 3 0
21 -17 34 -46 34 -8 0 -14 -4 -14 -10z"/>
<path d="M1400 1660 c-7 -17 -29 -44 -49 -60 -21 -18 -29 -30 -20 -30 21 0 99
88 99 112 0 19 -19 5 -30 -22z"/>
<path d="M1560 1423 c0 -28 3 -34 10 -23 13 20 13 47 0 55 -6 4 -10 -9 -10
-32z"/>
<path d="M2613 629 c-18 -12 -33 -25 -33 -30 0 -11 23 1 60 30 33 27 14 26
-27 0z"/>
<path d="M114 393 c7 -7 108 -5 115 3 2 2 -24 4 -59 4 -35 0 -60 -3 -56 -7z"/>
<path d="M2765 390 c3 -5 35 -10 71 -10 36 0 64 4 64 10 0 6 -30 10 -71 10
-44 0 -68 -4 -64 -10z"/>
<path d="M1432 345 c6 -6 1149 -7 1156 0 3 3 -257 5 -578 5 -321 0 -581 -2
-578 -5z"/>
<path d="M1085 280 c3 -5 46 -10 96 -10 53 0 89 4 89 10 0 6 -39 10 -96 10
-61 0 -93 -4 -89 -10z"/>
<path d="M1305 280 c4 -6 128 -10 341 -10 216 0 334 4 334 10 0 6 -120 10
-341 10 -224 0 -338 -3 -334 -10z"/>
</g>
</svg>
