<?xml version="1.0" standalone="no"?>
<!DOCTYPE svg PUBLIC "-//W3C//DTD SVG 20010904//EN"
 "http://www.w3.org/TR/2001/REC-SVG-20010904/DTD/svg10.dtd">
<svg version="1.0" xmlns="http://www.w3.org/2000/svg"
 width="300.000000pt" height="283.000000pt" viewBox="0 0 300.000000 283.000000"
 preserveAspectRatio="xMidYMid meet">
<metadata>
Created by potrace 1.10, written by Peter Selinger 2001-2011
</metadata>
<g transform="translate(0.000000,283.000000) scale(0.100000,-0.100000)"
fill="#000000" stroke="none">
<path d="M960 2816 c0 -19 79 -90 124 -111 98 -47 264 -377 346 -688 28 -107
28 -109 10 -127 -40 -40 -33 -113 13 -145 18 -13 18 -45 0 -45 -4 0 -37 53
-73 118 -117 211 -283 427 -443 578 -180 169 -348 278 -515 334 -387 129 -533
-79 -323 -461 58 -107 114 -255 156 -414 45 -168 80 -246 140 -312 69 -78 234
-153 334 -153 42 0 39 -10 -14 -43 -87 -56 -173 -172 -211 -287 -21 -66 -23
-190 -5 -270 7 -30 28 -87 46 -125 33 -70 39 -77 217 -239 57 -52 66 -88 49
-195 -15 -100 -14 -193 2 -215 18 -25 30 -7 47 69 22 104 66 171 132 203 80
38 122 76 169 158 82 141 137 286 210 559 22 83 47 170 54 195 l13 45 -6 -70
c-17 -170 -5 -351 35 -538 12 -61 20 -77 32 -75 20 4 54 159 72 327 10 91 10
137 0 233 -7 65 -10 122 -7 125 3 4 6 0 6 -8 0 -26 99 -389 136 -499 47 -138
135 -320 179 -369 20 -21 65 -54 101 -72 96 -47 124 -91 164 -256 6 -24 15
-43 20 -43 31 0 39 111 19 256 -15 107 -1 139 94 210 78 57 126 114 167 195
64 125 80 286 41 410 -38 120 -134 244 -228 293 l-48 25 45 1 c25 0 79 9 120
21 197 54 293 164 356 407 45 173 75 254 155 422 91 192 114 269 105 353 -10
95 -42 139 -120 162 -122 37 -297 -5 -492 -117 -292 -167 -546 -444 -768 -835
-32 -57 -62 -103 -66 -103 -21 0 -19 23 4 51 14 17 29 42 32 55 7 28 -12 81
-33 93 -13 7 -9 29 22 146 46 176 120 358 202 493 76 127 93 146 158 179 60
31 121 91 106 106 -19 19 -100 -32 -153 -97 -150 -179 -270 -430 -334 -697
-28 -113 -29 -116 -56 -115 -25 1 -28 5 -44 76 -38 169 -146 438 -240 592 -61
101 -151 206 -194 228 -46 24 -60 25 -60 6z m-545 -117 c104 -35 214 -95 336
-185 115 -85 118 -90 63 -85 -36 2 -53 -2 -85 -24 l-40 -26 -56 45 c-135 112
-290 185 -391 186 -64 0 -87 -11 -107 -50 -32 -62 -16 -150 41 -226 20 -28 22
-36 13 -68 -14 -50 0 -89 63 -173 l50 -68 -6 -80 c-7 -95 5 -122 82 -182 43
-33 50 -44 56 -84 15 -110 85 -181 209 -212 172 -44 437 -46 640 -7 59 11 114
23 122 26 9 4 15 0 15 -9 0 -19 -115 -62 -207 -78 -80 -14 -323 -6 -465 16
-214 32 -336 108 -404 252 -13 29 -42 120 -64 201 -40 154 -89 280 -169 441
-58 115 -81 187 -81 255 0 163 145 214 385 135z m2486 10 c69 -34 91 -137 54
-250 -10 -30 -39 -97 -65 -149 -69 -139 -135 -310 -165 -428 -61 -244 -124
-342 -258 -406 -75 -35 -158 -53 -334 -72 -170 -18 -286 -14 -413 16 -132 32
-150 39 -150 61 0 15 5 19 18 15 257 -80 644 -83 815 -8 89 40 157 124 157
196 0 30 7 40 65 86 75 59 90 86 79 150 -15 89 -11 104 44 170 62 73 80 124
64 176 -10 34 -9 40 23 81 61 79 65 184 10 239 -20 20 -34 24 -83 24 -112 0
-270 -73 -412 -191 -45 -37 -45 -37 -68 -18 -29 23 -84 39 -114 32 -21 -4 -20
-2 7 21 255 219 574 331 726 255z m-2547 -143 c82 -29 188 -92 265 -156 l59
-49 -16 -43 -15 -44 -81 24 c-115 33 -231 47 -301 35 l-57 -10 -29 40 c-57 78
-60 174 -6 212 31 22 106 19 181 -9z m2481 0 c48 -48 39 -144 -21 -215 -23
-27 -25 -28 -76 -19 -68 13 -192 -3 -293 -37 -41 -14 -79 -25 -83 -25 -4 0
-12 15 -18 33 -6 17 -14 39 -18 49 -15 35 200 176 334 219 82 27 145 25 175
-5z m-608 -161 c50 -21 72 -42 94 -90 24 -52 24 -102 -2 -169 -57 -153 -237
-340 -442 -459 -88 -51 -285 -132 -295 -122 -12 11 213 414 315 564 35 52 61
96 59 98 -14 14 -201 -282 -316 -500 -48 -91 -58 -104 -62 -83 -11 56 342 605
381 593 5 -1 43 37 84 85 55 62 85 88 104 91 16 2 32 5 36 6 4 0 24 -6 44 -14z
m-1340 -14 c87 -53 344 -435 493 -732 65 -128 60 -131 -100 -53 -242 117 -400
237 -511 386 -126 170 -138 323 -29 395 41 29 103 30 147 4z m-449 -86 c30 -3
89 -17 132 -31 l77 -24 5 -49 c3 -27 14 -66 24 -88 l19 -39 -116 4 c-87 3
-137 0 -194 -13 -42 -9 -78 -15 -79 -13 -1 1 -23 29 -49 61 -52 65 -65 109
-47 161 11 33 14 35 63 39 53 3 72 2 165 -8z m2339 -3 c16 -10 27 -90 16 -119
-4 -12 -30 -48 -57 -81 l-49 -59 -41 16 c-30 11 -82 15 -189 15 -127 1 -146 3
-141 16 19 42 43 117 44 133 0 38 169 85 310 86 52 0 101 -3 107 -7z m-1643
-165 c132 -170 301 -454 290 -489 -5 -16 -16 -1 -58 78 -67 126 -203 349 -268
438 -67 93 -44 75 36 -27z m-477 -83 c48 -6 53 -10 81 -53 17 -25 56 -74 87
-108 l57 -63 -34 0 c-54 0 -143 -18 -280 -57 l-127 -36 -56 47 c-30 26 -60 56
-65 67 -7 11 -8 50 -4 99 l7 80 36 9 c77 20 200 26 298 15z m1974 -14 l46 -12
7 -85 c8 -97 9 -97 -84 -167 l-56 -43 -54 19 c-79 27 -245 65 -317 73 l-63 7
46 46 c36 35 102 118 131 161 14 22 260 23 344 1z m-1103 -182 c7 -7 12 -22
12 -35 0 -19 -3 -21 -23 -14 -13 5 -30 5 -39 0 -23 -13 -30 3 -18 35 10 28 46
36 68 14z m-587 -72 c122 -92 328 -209 449 -254 45 -16 32 -24 -73 -46 -259
-53 -593 -40 -742 27 -29 14 -64 40 -78 58 -24 32 -47 95 -47 129 0 24 266 99
400 113 19 2 38 5 41 5 3 1 26 -13 50 -32z m1279 9 c132 -20 330 -77 330 -94
0 -3 -5 -23 -11 -44 -14 -51 -71 -113 -132 -144 -141 -71 -453 -80 -722 -20
-54 12 -100 27 -102 34 -2 6 13 17 34 23 147 47 316 136 415 217 60 48 58 48
188 28z m-705 -50 c0 -43 -29 -40 -33 3 -3 28 0 33 15 30 13 -2 18 -12 18 -33z
m19 -66 c25 -20 26 -24 26 -117 0 -153 -35 -362 -61 -362 -25 0 -59 209 -59
358 0 102 3 112 35 130 27 15 28 15 59 -9z m-234 -362 c-138 -136 -218 -187
-294 -187 -63 1 -106 45 -106 110 0 44 14 65 64 100 42 28 50 30 139 30 96 0
219 24 274 54 58 32 44 12 -77 -107z m356 98 c75 -22 220 -45 284 -45 66 0
110 -24 147 -79 37 -54 26 -107 -29 -141 -80 -49 -188 -8 -327 125 -87 84
-149 155 -134 155 5 0 32 -7 59 -15z m-242 -94 c-46 -125 -155 -309 -233 -395
-38 -42 -111 -86 -142 -86 -34 0 -69 41 -69 80 0 38 23 100 56 150 21 32 44
49 93 72 54 25 88 53 186 153 108 109 120 119 123 97 2 -14 -4 -46 -14 -71z
m296 -52 c77 -77 113 -104 172 -133 69 -33 78 -41 106 -94 40 -76 48 -121 28
-161 -52 -100 -204 8 -334 237 -91 161 -121 230 -114 271 l5 34 20 -29 c11
-16 64 -72 117 -125z m-814 95 c-187 -37 -299 -144 -282 -271 5 -39 2 -54 -14
-78 -47 -68 -79 -180 -62 -212 6 -10 33 -31 61 -48 48 -29 50 -31 45 -66 -8
-47 22 -82 107 -123 60 -29 64 -33 75 -79 15 -58 37 -94 69 -109 20 -9 34 -6
79 16 43 21 61 25 86 19 17 -5 32 -13 33 -18 2 -10 -41 -40 -137 -97 -53 -32
-100 -106 -117 -188 -18 -82 -23 -40 -9 64 26 186 14 227 -94 315 -95 78 -138
126 -170 194 -41 88 -59 180 -52 272 11 150 111 307 247 388 58 34 70 37 134
36 l70 -1 -69 -14z m1329 -19 c178 -85 290 -302 257 -495 -26 -154 -91 -264
-204 -350 -40 -31 -83 -71 -96 -90 -26 -37 -26 -42 -7 -285 l5 -60 -19 55
c-40 123 -68 157 -168 210 -34 18 -69 40 -79 51 -15 17 -14 19 17 32 32 13 37
12 85 -15 91 -51 120 -36 157 78 l22 69 55 17 c73 24 100 55 100 118 0 47 1
49 50 79 55 34 66 58 56 127 -6 45 -36 116 -63 146 -13 15 -14 25 -4 63 10 40
9 52 -7 88 -24 52 -98 121 -160 149 -26 11 -77 23 -115 26 -86 6 -98 22 -16
22 50 0 76 -7 134 -35z m-1308 -19 c-31 -29 -41 -64 -33 -115 6 -37 5 -38 -35
-50 -22 -7 -80 -32 -127 -57 -47 -24 -87 -44 -89 -44 -2 0 -3 23 -3 50 0 83
42 144 130 191 30 15 137 47 164 48 16 1 16 -2 -7 -23z m1269 -2 c100 -27 189
-116 189 -188 0 -23 -4 -49 -8 -59 -6 -16 -10 -15 -47 9 -22 15 -78 41 -124
58 -80 30 -83 33 -74 56 13 35 2 83 -27 114 -14 15 -25 29 -25 31 0 6 54 -4
116 -21z m-451 -330 c42 -58 104 -121 140 -141 25 -14 62 -153 76 -284 14
-121 11 -131 -43 -144 -24 -6 -29 -2 -61 57 -60 106 -114 255 -187 511 -38
133 -72 252 -75 262 -3 11 19 -29 50 -90 31 -60 76 -137 100 -171z m-380 49
c-30 -111 -66 -237 -80 -280 -37 -110 -152 -343 -169 -343 -8 0 -27 5 -42 10
l-27 11 6 89 c3 50 18 139 32 198 27 106 28 109 73 143 62 46 140 151 204 275
29 56 54 102 55 100 1 -1 -22 -92 -52 -203z m147 127 c5 0 14 15 21 33 l12 32
6 -55 c14 -115 9 -284 -12 -415 -12 -71 -25 -134 -29 -138 -4 -5 -17 52 -29
126 -21 137 -26 272 -14 412 l6 78 15 -37 c8 -20 18 -36 24 -36z m-572 -35
c17 -18 34 -25 62 -25 34 0 37 -2 27 -18 -6 -9 -38 -32 -71 -51 -76 -42 -197
-157 -250 -237 l-41 -63 -51 33 c-48 31 -51 35 -50 74 1 65 59 171 113 206 38
25 213 105 232 106 3 0 16 -11 29 -25z m1243 -4 c32 -11 88 -36 127 -57 78
-41 106 -77 135 -177 15 -53 15 -60 1 -82 -9 -14 -34 -34 -56 -45 l-39 -20
-16 29 c-43 84 -226 254 -306 284 -15 6 -31 19 -38 29 -10 16 -8 18 21 18 18
0 47 9 63 19 38 25 41 25 108 2z m-1203 -131 c-22 -43 -26 -100 -9 -132 9 -16
4 -29 -30 -78 -42 -59 -111 -195 -111 -217 0 -15 -106 27 -137 55 -14 12 -23
32 -23 49 0 40 64 144 135 217 54 56 168 144 188 145 4 1 -2 -17 -13 -39z
m1127 -11 c96 -72 128 -104 184 -183 42 -59 49 -76 49 -116 0 -60 -26 -95 -77
-105 -21 -4 -44 -12 -51 -17 -15 -13 -14 -16 -42 55 -13 33 -47 97 -77 144
-50 81 -53 88 -42 120 11 35 5 81 -17 126 -21 39 -4 34 73 -24z m-40 -216 c22
-38 58 -104 80 -148 l39 -80 -21 -61 c-27 -81 -41 -97 -78 -90 -16 3 -44 15
-62 26 -31 19 -32 23 -39 107 -8 96 -27 196 -49 262 l-15 41 38 -6 c23 -4 40
-2 44 5 12 20 21 12 63 -56z m-977 47 c0 -3 -7 -27 -16 -55 -18 -60 -44 -224
-44 -282 0 -36 -4 -44 -34 -62 -18 -12 -50 -21 -70 -21 -34 0 -39 4 -56 43
-36 81 -35 107 3 189 19 42 53 102 75 134 l39 59 52 0 c28 0 51 -2 51 -5z"/>
</g>
</svg>
