<?xml version="1.0" standalone="no"?>
<!DOCTYPE svg PUBLIC "-//W3C//DTD SVG 20010904//EN"
 "http://www.w3.org/TR/2001/REC-SVG-20010904/DTD/svg10.dtd">
<svg version="1.0" xmlns="http://www.w3.org/2000/svg"
 width="300.000000pt" height="146.000000pt" viewBox="0 0 300.000000 146.000000"
 preserveAspectRatio="xMidYMid meet">
<metadata>
Created by potrace 1.10, written by Peter Selinger 2001-2011
</metadata>
<g transform="translate(0.000000,146.000000) scale(0.100000,-0.100000)"
fill="#000000" stroke="none">
<path d="M820 1296 c-133 -14 -176 -33 -321 -140 -47 -35 -101 -66 -120 -70
-50 -9 -161 -64 -154 -76 3 -6 0 -7 -9 -4 -22 8 -56 -52 -56 -101 0 -22 -5
-58 -11 -79 -15 -54 17 -223 38 -202 3 3 1 11 -4 18 -6 7 -14 40 -18 73 -6 53
-5 58 8 45 11 -10 17 -46 21 -115 8 -125 29 -197 69 -231 29 -24 36 -26 125
-22 89 3 95 5 116 31 l22 27 244 -55 c134 -30 258 -55 275 -55 27 0 34 -6 49
-42 24 -54 80 -114 130 -141 35 -19 57 -22 146 -22 88 0 113 4 155 23 27 13
57 30 66 38 15 14 43 14 244 4 151 -7 237 -8 258 -1 37 11 87 17 247 31 444
38 509 46 516 65 3 6 -2 33 -11 58 -15 46 -15 47 15 101 36 63 34 97 -6 178
-13 26 -24 55 -24 65 -1 37 -39 103 -72 123 -72 44 -503 167 -654 186 -60 8
-97 26 -147 70 -20 19 -44 34 -53 34 -8 0 -48 20 -87 44 -107 64 -165 92 -242
114 -132 39 -512 53 -755 28z m471 -7 c103 -6 211 -17 240 -25 30 -7 41 -11
24 -7 -16 3 -160 7 -320 9 -283 2 -389 12 -280 25 83 10 141 9 336 -2z m-405
-18 c-15 -16 -27 -19 -66 -14 -57 7 -160 -15 -139 -29 9 -5 3 -6 -16 -2 -24 4
-27 3 -15 -6 12 -9 10 -10 -10 -4 -22 6 -23 5 -11 -9 11 -14 10 -21 -7 -44
-11 -15 -29 -47 -41 -70 -20 -41 -22 -42 -53 -31 -18 6 -37 14 -42 19 -4 4 18
27 51 51 32 23 58 48 58 53 0 15 -12 9 -76 -41 -38 -29 -56 -50 -53 -59 4 -8
11 -15 17 -15 6 0 8 -2 5 -5 -8 -9 -38 6 -32 16 3 5 0 9 -5 9 -6 0 -11 -6 -11
-14 0 -18 55 -37 89 -31 22 5 23 4 5 -4 -33 -14 -73 -68 -80 -107 -7 -39 1
-184 12 -221 6 -21 4 -23 -27 -18 l-34 5 38 -13 c28 -10 42 -22 58 -55 41 -81
52 -86 419 -180 133 -34 145 -39 148 -61 3 -20 1 -23 -15 -16 -81 34 -138 52
-292 90 -212 52 -295 68 -321 60 -17 -6 -20 -1 -20 32 0 59 -37 221 -64 280
-37 79 -104 98 -136 38 -14 -25 -14 -25 -33 -7 -18 19 -18 21 -2 53 45 88 88
122 189 149 31 9 80 37 135 78 135 102 214 132 370 141 23 1 23 0 7 -18z m52
-58 c12 -32 31 -84 43 -116 13 -35 30 -64 46 -74 l25 -17 -22 -18 c-43 -35
-54 -25 -84 75 -15 50 -36 112 -47 136 -14 33 -16 47 -8 57 18 22 23 17 47
-43z m637 27 c60 -12 170 -64 243 -114 30 -20 58 -33 63 -30 5 3 8 1 7 -5 -2
-5 21 -25 51 -44 29 -19 50 -36 45 -38 -11 -6 -891 7 -919 13 -11 2 -26 8 -34
12 -15 10 -55 95 -48 102 2 3 11 -12 20 -33 8 -21 22 -47 31 -58 8 -11 -6 28
-31 87 -28 64 -51 105 -57 101 -7 -4 -8 -2 -1 5 6 6 30 13 55 15 79 8 523 -2
575 -13z m-715 -20 c20 -11 96 -223 85 -240 -3 -5 -16 -10 -28 -9 -20 1 -20 2
3 8 22 6 19 8 -22 15 -43 6 -48 10 -48 33 0 42 -27 63 -79 63 -46 0 -111 -29
-111 -50 0 -7 -13 -9 -34 -4 -19 3 -42 2 -51 -4 -14 -7 -8 -11 30 -21 27 -7
57 -19 69 -27 11 -7 39 -14 61 -14 32 0 47 -6 63 -25 27 -31 36 -31 60 0 16
20 25 23 56 18 l37 -6 -7 -61 c-4 -33 -8 -63 -10 -64 -1 -2 -87 17 -189 43
-103 25 -194 45 -202 43 -8 -2 76 -26 188 -54 l204 -51 -4 -114 c-2 -63 -4
-115 -6 -117 -1 -1 -72 16 -157 38 -86 22 -162 40 -169 39 -19 -1 123 -43 237
-70 l92 -22 6 -51 c3 -27 4 -51 3 -52 -2 -2 -198 48 -292 74 -57 17 -102 47
-125 84 -42 68 -70 225 -56 302 l7 37 46 -7 c40 -6 45 -5 41 12 -2 13 -15 21
-38 24 l-35 6 47 23 c26 13 46 26 45 29 -1 4 18 41 41 84 37 67 47 77 80 86
49 13 139 14 162 2z m-40 -150 c10 -7 -5 -9 -50 -9 -48 1 -58 3 -40 9 35 11
72 11 90 0z m20 -29 c0 -20 -59 -27 -132 -15 -21 4 -35 10 -32 15 7 12 164 12
164 0z m-25 -39 c-16 -2 -32 -7 -35 -11 -7 -11 -103 2 -107 14 -2 6 29 8 84 6
49 -3 75 -7 58 -9z m403 -32 c352 -78 569 -132 676 -170 112 -40 266 -110 266
-122 0 -22 -38 -16 -176 31 -354 119 -516 134 -475 44 6 -14 10 -26 9 -27 -2
-1 -22 -7 -44 -12 -40 -10 -43 -10 -69 23 -41 52 -82 73 -142 73 -45 0 -58 -5
-89 -32 -20 -18 -45 -51 -54 -74 -19 -43 -51 -195 -52 -246 -1 -32 2 -32 -63
-15 l-50 13 -5 52 -6 52 32 0 c40 0 47 8 82 105 36 98 31 119 -30 135 -75 19
-78 21 -78 39 0 10 3 39 6 63 6 42 9 46 44 57 21 6 43 18 50 26 16 19 7 20
168 -15z m1018 -5 c208 -46 383 -100 429 -131 24 -17 39 -18 29 -2 -14 23 79
-38 95 -62 9 -13 11 -21 5 -17 -7 4 -14 -1 -17 -12 -4 -17 -22 -19 -213 -25
-115 -4 -251 -11 -302 -16 -83 -8 -97 -6 -125 10 -46 27 -180 83 -272 114
-104 35 -274 78 -505 127 -102 22 -189 41 -195 43 -5 3 207 3 471 1 477 -4
482 -4 600 -30z m-1383 6 c10 -12 9 -13 -2 -6 -11 6 -13 4 -8 -8 9 -25 -30
-22 -43 2 -5 11 -10 22 -10 25 0 12 52 1 63 -13z m-533 -96 l23 -24 -28 5
c-51 9 -111 -72 -85 -114 9 -14 10 -12 5 11 -4 19 -2 26 4 22 7 -4 8 1 4 11
-5 13 -3 15 7 9 8 -5 11 -4 6 3 -7 12 19 42 38 42 22 0 57 -46 72 -95 28 -94
11 -248 -32 -296 -9 -10 -14 -19 -10 -19 4 0 5 -4 1 -9 -10 -17 -66 10 -76 36
-5 14 -7 29 -3 34 3 5 -2 16 -10 25 -17 16 -18 26 -20 164 -1 47 -5 96 -9 110
-5 15 -5 20 0 13 6 -9 13 -2 22 22 14 39 40 58 68 48 14 -4 15 -3 7 6 -18 20
-46 9 -71 -28 -13 -19 -23 -27 -23 -19 0 22 46 68 68 68 10 0 29 -11 42 -25z
m-126 -32 c3 -10 2 -31 -2 -47 -7 -25 -9 -26 -21 -13 -8 10 -10 27 -6 47 7 33
21 39 29 13z m869 -70 c13 -8 8 -36 -19 -108 -33 -87 -44 -100 -80 -91 -26 7
-27 8 -20 68 3 34 6 85 6 114 l0 53 53 -16 c28 -8 55 -17 60 -20z m279 4 c37
-22 87 -77 71 -77 -5 0 -24 15 -42 34 -42 44 -81 60 -124 52 -33 -6 -84 -51
-106 -93 -20 -39 -11 -38 16 2 49 72 97 95 151 73 26 -10 26 -11 -33 -29 -35
-11 -78 -33 -102 -53 -22 -20 -43 -32 -47 -29 -3 3 -6 -2 -6 -13 0 -10 -5 -26
-11 -34 -7 -11 -8 -6 -4 20 11 54 57 131 90 152 41 25 102 23 147 -5z m236
-10 c3 -15 -1 -17 -25 -11 -38 9 -44 14 -37 25 10 17 58 6 62 -14z m106 12
c-5 -9 1 -10 20 -5 20 5 26 4 20 -5 -5 -9 1 -10 22 -5 23 5 26 4 14 -5 -12 -8
-8 -9 15 -5 23 5 27 4 15 -5 -12 -8 -10 -10 10 -5 32 7 77 -4 60 -14 -6 -4 30
-21 82 -39 121 -43 121 -43 106 -63 -7 -9 -25 -20 -39 -23 -22 -5 -26 -3 -25
17 1 29 -59 60 -221 115 -77 26 -107 40 -95 45 24 9 24 9 16 -3z m31 -44 c11
-3 54 -19 96 -35 73 -30 75 -32 71 -60 -2 -17 -6 -30 -9 -30 -13 0 -63 32 -63
40 0 6 -9 10 -20 10 -18 0 -25 -14 -21 -46 1 -6 -11 -9 -30 -6 -23 3 -29 8
-23 21 13 30 16 69 7 86 -7 13 -10 5 -9 -29 1 -31 -4 -50 -14 -56 -34 -21 -54
45 -28 93 10 20 10 21 -5 9 -9 -8 -17 -30 -19 -50 l-3 -37 -27 46 c-16 25 -28
55 -28 67 l0 20 53 -19 c28 -11 61 -22 72 -24z m-159 9 c25 -7 52 -54 31 -54
-15 0 -37 17 -56 43 -14 18 -9 20 25 11z m-178 -37 c18 -19 19 -26 9 -37 -10
-10 -9 -12 6 -7 10 4 16 3 13 -2 -3 -5 1 -11 9 -15 18 -6 19 -1 5 25 -7 13 -7
19 0 19 11 0 38 -59 45 -99 4 -18 0 -14 -13 12 -9 22 -22 39 -27 39 -26 -1
-95 23 -99 35 -4 10 -1 10 13 1 10 -6 27 -8 37 -4 18 8 18 8 -1 16 -53 22
-139 3 -190 -41 -19 -17 -33 -34 -32 -37 1 -4 -2 -8 -8 -10 -5 -2 -18 -17 -27
-35 -24 -44 -23 -25 1 21 57 113 203 179 259 119z m297 -127 c43 -30 57 -35
105 -34 30 1 102 13 160 28 58 14 125 28 149 32 42 7 43 6 32 -14 -23 -42 -14
-69 28 -86 65 -25 170 -46 271 -54 l95 -7 -75 -6 c-153 -13 -309 -10 -334 6
-36 24 -159 35 -291 25 -132 -9 -168 -19 -184 -49 -9 -16 -6 -26 16 -52 33
-39 123 -97 178 -116 37 -12 32 -13 -70 -8 -102 5 -230 21 -245 30 -4 2 -10
65 -14 140 -6 121 -19 193 -50 266 -5 11 3 17 36 25 42 9 43 9 93 -41 27 -28
73 -66 100 -85z m333 109 c57 -18 72 -27 73 -43 1 -16 2 -17 6 -5 5 20 43 14
43 -7 0 -10 -10 -14 -34 -12 -23 1 -33 7 -32 17 1 10 -21 24 -59 39 -121 46
-120 51 3 11z m782 1 c18 -18 26 -55 21 -105 -8 -83 -210 -141 -414 -117 -116
13 -243 44 -263 64 -12 12 -12 22 1 65 27 90 19 87 320 101 317 14 312 15 335
-8z m-1155 -40 c37 -39 15 -39 -27 0 -22 20 -28 30 -17 30 8 0 28 -13 44 -30z
m-350 10 c-3 -5 -11 -10 -16 -10 -6 0 -27 -12 -48 -27 l-37 -26 62 -58 c49
-45 57 -57 40 -56 -13 1 -42 25 -69 55 -53 60 -52 77 6 112 34 21 72 27 62 10z
m44 -97 c1 -36 -3 -63 -9 -63 -6 0 -10 35 -9 88 1 100 16 78 18 -25z m621 90
c0 -3 -6 -3 -14 0 -10 4 -15 -4 -18 -28 -2 -18 0 -31 4 -29 4 3 8 14 8 25 0
23 13 25 31 3 11 -14 10 -18 -6 -30 -21 -15 -38 -18 -49 -7 -4 4 -27 6 -52 4
-35 -2 -45 1 -41 11 5 14 6 14 50 3 24 -6 27 -4 27 18 0 27 25 48 47 40 7 -3
13 -7 13 -10z m-676 -84 c-17 -19 -18 -19 -41 3 -13 12 -23 24 -23 28 0 3 17
16 38 28 l37 21 3 -30 c2 -19 -3 -38 -14 -50z m119 65 c42 -22 42 -21 28 -38
-9 -11 -18 -12 -44 -3 -18 7 -33 12 -33 12 -1 0 -5 10 -8 23 -9 27 10 29 57 6z
m1472 -90 c-5 -11 -8 -22 -7 -26 1 -4 -5 -5 -13 -2 -8 4 -17 -1 -21 -9 -7 -19
-50 -33 -124 -41 l-55 -5 40 13 c99 32 145 74 146 135 l0 36 21 -41 c14 -28
18 -48 13 -60z m-1085 47 c36 -6 79 -13 95 -15 17 -2 -6 -3 -50 -1 -106 4
-144 10 -157 23 -13 13 -3 12 112 -7z m-1372 -56 c-3 -44 -10 -73 -24 -92 -33
-44 -48 -40 -24 7 12 23 24 67 27 96 8 78 26 68 21 -11z m976 46 c18 -7 17
-10 -12 -42 l-31 -34 -1 43 c0 43 6 48 44 33z m66 1 c0 -5 -22 -36 -49 -70
-39 -49 -49 -57 -48 -38 1 13 20 44 42 69 39 44 55 55 55 39z m-289 -23 c-2
-8 -9 -34 -16 -58 -13 -50 -35 -67 -35 -27 0 36 30 108 44 103 6 -3 9 -11 7
-18z m129 -21 c0 -30 -1 -31 -17 -16 -13 14 -14 20 -3 32 18 22 20 20 20 -16z
m168 0 c0 -13 4 -35 7 -50 7 -28 7 -28 -40 -28 -26 0 -45 4 -43 9 3 7 70 90
74 91 1 0 2 -10 2 -22z m-235 -34 c57 -64 52 -74 -40 -74 -54 0 -73 3 -63 10
8 5 38 10 67 10 47 0 51 2 46 21 -3 11 -9 17 -12 11 -11 -16 -71 -23 -71 -8 0
22 22 77 29 74 4 -2 24 -22 44 -44z m-628 -14 c170 -37 290 -69 379 -99 180
-61 125 -56 -230 24 -322 73 -314 70 -314 85 0 16 67 12 165 -10z m2258 -4 c4
-11 1 -13 -11 -9 -15 6 -16 5 -2 -12 8 -10 10 -16 4 -12 -14 8 -27 -20 -18
-36 4 -7 -2 -4 -12 6 -19 18 -19 19 0 33 11 8 16 14 12 14 -5 0 -3 7 4 15 15
18 17 19 23 1z m-2417 -11 c8 -19 -21 -65 -40 -65 -12 0 -12 7 2 40 18 42 29
49 38 25z m2354 -19 c-10 -9 -80 -19 -205 -31 -104 -9 -246 -22 -315 -29 -122
-11 -126 -11 -185 12 -33 14 -91 30 -130 37 l-70 13 65 1 c67 1 105 -6 176
-33 35 -13 65 -13 195 -5 119 7 365 32 474 48 5 0 3 -5 -5 -13z m-2322 -18
c-9 -13 -23 -25 -33 -26 -16 -4 -16 -2 1 22 25 33 54 37 32 4z m875 2 c20 -24
23 -37 4 -21 -17 14 -30 2 -16 -15 7 -8 7 -14 -1 -19 -5 -3 -10 -43 -10 -91 0
-95 -6 -104 -62 -85 -47 16 -74 39 -62 51 10 10 89 -23 107 -45 5 -5 6 6 3 25
-5 36 -9 147 -6 165 1 6 1 20 0 33 -2 28 20 29 43 2z m137 -5 c0 -12 -13 -15
-55 -15 -42 0 -55 3 -55 15 0 12 13 15 55 15 42 0 55 -3 55 -15z m220 4 c-14
-5 -33 -20 -43 -32 -17 -21 -18 -21 -15 -2 3 20 41 45 68 44 8 0 4 -5 -10 -10z
m315 -23 c40 -26 29 -54 -37 -100 -75 -51 -143 -60 -204 -24 -85 49 -126 96
-101 117 31 25 68 31 189 28 99 -3 132 -7 153 -21z m779 6 c3 -5 -50 -14 -117
-20 -67 -7 -216 -23 -332 -36 -202 -23 -213 -26 -299 -65 -49 -23 -110 -44
-135 -47 l-46 -5 47 18 c26 10 68 33 94 51 40 29 46 37 42 63 -4 26 -2 29 16
23 12 -4 33 -13 47 -20 26 -13 152 -4 519 35 105 12 158 12 164 3z m-1639 -64
c10 -29 18 -60 16 -68 -1 -8 8 1 19 20 12 19 34 48 49 64 18 21 21 27 9 23
-10 -4 -18 -2 -18 3 0 12 20 13 39 1 12 -7 4 -22 -38 -70 -31 -35 -58 -58 -66
-55 -14 6 -55 93 -55 118 0 35 26 13 45 -36z m69 36 c4 -9 -4 -28 -19 -46
l-25 -29 -9 23 c-25 68 -25 68 12 68 23 0 37 -6 41 -16z m246 11 c0 -8 -30
-65 -34 -65 -2 0 -16 16 -30 35 l-27 35 45 0 c26 0 46 -2 46 -5z m-16 -114
c17 -19 25 -30 17 -26 -10 6 -12 4 -6 -5 5 -8 4 -11 -3 -6 -6 3 -13 2 -17 -4
-7 -12 -49 -34 -82 -44 -17 -6 -23 -3 -23 8 0 10 9 16 21 16 12 0 37 9 55 21
l34 20 -48 49 c-46 47 -77 63 -34 17 28 -30 28 -37 -3 -37 -21 0 -25 5 -25 31
0 17 5 39 10 50 10 18 13 16 42 -19 18 -20 46 -52 62 -71z m27 46 c-14 -14
-14 -30 -1 -22 6 3 10 -1 10 -9 0 -22 -13 -20 -28 4 -10 16 -9 26 6 56 l17 37
3 -28 c2 -15 -1 -32 -7 -38z m1303 24 c10 -17 16 -35 12 -38 -3 -3 -133 -19
-288 -34 -156 -15 -301 -31 -323 -34 l-39 -6 24 26 c56 60 76 65 333 95 133
15 246 27 252 26 5 -2 18 -17 29 -35z m36 10 c19 -47 6 -58 -18 -17 -26 44
-26 46 -8 46 7 0 19 -13 26 -29z m-650 -81 l-51 -50 -92 0 -92 1 75 30 c41 17
95 39 120 49 25 11 55 19 68 20 20 0 17 -6 -28 -50z m-878 -17 c5 -39 -3 -40
-49 -12 l-34 21 22 24 c17 18 25 21 39 12 10 -7 20 -27 22 -45z m1558 28 c0
-4 -78 -16 -172 -25 -399 -40 -543 -53 -547 -50 -11 10 17 15 170 29 90 9 238
24 329 34 201 22 220 23 220 12z m-1431 -15 c10 -12 7 -18 -18 -30 -43 -23
-61 -20 -61 8 0 20 6 25 33 29 17 2 33 5 33 5 1 1 7 -4 13 -12z m-242 -48 c-1
-6 18 -21 42 -34 79 -43 180 -27 247 37 27 26 32 28 38 13 8 -22 -7 -39 -63
-72 -91 -53 -205 -30 -284 57 -45 50 -47 59 -7 31 16 -12 29 -26 27 -32z m460
2 c40 -5 163 -10 273 -10 143 -1 199 -4 194 -12 -5 -8 -68 -9 -218 -4 -255 8
-352 17 -368 35 -11 11 -8 12 17 7 17 -3 62 -10 102 -16z m-66 -20 c10 0 19
-4 19 -9 0 -11 -106 -57 -150 -64 l-35 -6 35 18 c19 11 46 31 60 45 13 15 30
24 38 21 7 -3 22 -5 33 -5z"/>
<path d="M2727 788 c17 -18 33 -40 36 -48 4 -12 6 -12 6 2 1 19 -46 78 -62 78
-6 0 3 -15 20 -32z"/>
<path d="M273 780 c-6 -17 -8 -28 -4 -25 4 2 9 -18 10 -46 1 -30 -2 -48 -8
-44 -12 7 -2 -65 11 -82 5 -7 9 -34 8 -60 -2 -68 -1 -83 8 -83 4 0 6 35 4 77
-2 75 -2 77 14 53 10 -17 13 -19 8 -5 -19 54 -17 65 8 65 21 0 25 -4 23 -27
-1 -16 -3 -41 -4 -58 -1 -21 -4 -26 -10 -16 -6 9 -8 5 -8 -13 0 -43 15 -29 26
24 15 71 13 137 -7 195 -12 35 -22 50 -35 50 -10 0 -21 5 -25 12 -5 8 -12 2
-19 -17z m61 -39 c7 -14 16 -43 20 -63 6 -36 5 -38 -18 -38 -14 0 -27 4 -30 9
-7 11 4 42 13 37 3 -2 6 10 7 27 l1 32 -14 -32 c-18 -46 -24 -41 -22 16 3 55
19 59 43 12z"/>
</g>
</svg>
