<svg version="1.0" xmlns="http://www.w3.org/2000/svg"
  viewBox="0 0 868.837176 1200.365660"
 preserveAspectRatio="xMidYMid meet">
<metadata>
For more coloring pages, please visit ColoringAll.com
</metadata>
<g transform="translate(-0.000000,1200.536967) scale(0.100000,-0.100000)"
fill="#dadada" stroke="none">
<path d="M6750 11994 c-244 -61 -278 -65 -650 -74 -439 -10 -505 -22 -725
-131 -146 -72 -273 -167 -420 -314 -179 -178 -325 -378 -458 -624 -32 -61 -9
-67 -216 62 -274 170 -457 258 -716 345 -270 90 -515 132 -780 132 -250 0
-396 -29 -561 -111 -56 -28 -117 -64 -135 -80 l-34 -29 36 -33 c43 -38 277
-209 425 -310 l105 -72 107 29 c151 40 222 55 262 55 31 0 23 -6 -67 -48 -106
-51 -193 -105 -193 -121 0 -20 341 -230 515 -317 l60 -30 109 63 c123 71 289
147 312 142 8 -2 -56 -48 -142 -103 -86 -55 -162 -103 -168 -107 -17 -12 22
-45 67 -57 23 -6 48 -15 56 -20 16 -11 19 -10 -221 -51 -453 -77 -895 -204
-1166 -335 -332 -161 -611 -397 -799 -678 -103 -154 -173 -337 -190 -496 -7
-75 5 -95 51 -85 60 13 280 86 302 100 12 8 45 61 73 117 29 56 76 138 106
183 52 78 162 200 171 191 3 -3 -13 -48 -35 -101 -73 -174 -104 -327 -69 -334
22 -4 126 24 331 89 l157 50 39 77 c22 42 62 109 89 147 51 72 208 245 222
245 4 0 -30 -75 -76 -167 -58 -115 -85 -181 -87 -208 -2 -39 -1 -40 28 -37 17
2 140 45 275 95 l244 92 57 75 c67 87 205 227 215 217 4 -3 -36 -71 -89 -149
-199 -298 -343 -607 -438 -942 -91 -322 -167 -796 -128 -796 22 0 321 304 340
345 10 23 28 95 39 160 25 139 69 333 80 355 10 18 15 -12 29 -185 12 -153 29
-245 46 -252 7 -2 68 32 135 76 67 45 126 81 131 81 5 0 9 26 9 58 0 137 46
500 69 540 11 20 14 9 30 -110 11 -82 71 -281 94 -312 25 -34 62 -11 199 122
l131 128 1 209 c2 225 3 232 64 365 l25 55 32 -190 c32 -191 50 -265 65 -265
9 0 121 100 228 204 l72 70 0 303 c0 169 4 304 9 307 5 3 19 -27 31 -67 28
-95 101 -246 134 -276 l26 -25 31 30 c44 40 170 192 197 236 l23 37 -40 103
c-69 180 -66 185 38 71 115 -127 176 -208 306 -403 152 -228 213 -337 370
-655 143 -290 225 -476 225 -508 0 -18 -21 -37 -92 -84 -103 -68 -146 -83
-231 -83 -50 0 -61 -4 -84 -27 -27 -30 -67 -104 -88 -164 -12 -32 -11 -40 6
-68 33 -54 27 -73 -76 -236 -69 -111 -88 -133 -119 -141 -13 -3 -111 4 -218
15 -326 36 -545 51 -744 51 l-190 0 -46 -29 c-58 -37 -71 -61 -72 -131 -1 -95
25 -132 245 -351 l197 -196 -70 -53 c-98 -75 -267 -238 -340 -329 -175 -216
-340 -539 -408 -796 -41 -156 -52 -254 -52 -465 0 -270 26 -426 122 -736 28
-89 50 -168 50 -177 0 -9 -10 -19 -22 -22 -13 -2 -63 -14 -113 -25 -117 -27
-177 -18 -361 56 -87 36 -284 131 -284 138 0 24 -37 170 -51 203 -26 61 -120
157 -201 205 l-66 39 37 82 c21 45 114 244 206 442 93 198 183 396 201 440 38
94 39 93 -76 94 -103 2 -150 10 -150 29 0 20 109 228 129 246 9 8 122 70 252
138 130 68 247 130 260 140 l24 16 -34 66 c-18 36 -38 66 -44 66 -5 0 -142
-65 -304 -144 l-293 -145 -85 -173 c-46 -95 -93 -186 -103 -203 l-19 -30 -95
3 -94 3 -18 72 c-40 169 -140 296 -294 375 l-84 42 -149 0 c-142 0 -153 -1
-202 -26 -75 -38 -170 -107 -210 -154 -143 -168 -168 -440 -57 -624 50 -83
158 -181 244 -222 108 -51 192 -61 327 -39 65 10 114 14 120 8 14 -14 237
-487 233 -495 -2 -3 -33 -23 -69 -43 -125 -69 -209 -184 -236 -322 -25 -124
22 -256 126 -358 61 -60 87 -76 178 -114 47 -20 47 -21 47 -67 l0 -48 -140
-136 c-117 -115 -140 -142 -140 -167 0 -16 5 -34 12 -41 9 -9 79 -12 248 -13
270 -2 447 -12 412 -24 -59 -20 -162 -77 -214 -119 -83 -67 -150 -156 -213
-284 -38 -77 -60 -110 -68 -106 -7 4 -41 28 -76 52 -129 92 -273 121 -402 82
-63 -19 -82 -30 -130 -78 -62 -62 -89 -126 -89 -210 0 -108 63 -255 170 -397
33 -43 59 -84 57 -90 -8 -21 -144 -8 -204 20 l-56 25 -51 -17 c-63 -22 -219
-24 -288 -4 -42 12 -52 11 -88 -3 -64 -26 -183 -21 -248 9 l-53 25 -39 -20
c-53 -27 -221 -29 -275 -3 -32 15 -41 16 -83 3 -26 -8 -94 -17 -151 -20 -104
-5 -119 -11 -101 -40 9 -15 72 -18 260 -10 41 1 117 -1 169 -5 65 -5 116 -4
162 5 60 12 75 11 120 -3 59 -19 175 -22 234 -6 30 9 68 8 152 -1 91 -11 128
-11 201 0 79 11 96 11 138 -4 33 -11 83 -16 167 -16 l120 0 51 -39 c28 -22
102 -68 165 -103 63 -34 113 -68 113 -73 0 -6 -20 -16 -44 -23 -69 -20 -351
12 -427 49 -43 21 -60 25 -75 17 -27 -15 -173 -22 -222 -10 -34 7 -54 4 -128
-20 -98 -32 -174 -38 -304 -24 -78 8 -84 7 -80 -9 8 -43 123 -78 311 -95 99
-9 157 -21 232 -45 130 -44 294 -77 359 -73 43 3 51 6 51 23 0 15 -12 24 -42
35 -24 8 -43 19 -43 24 0 9 349 1 408 -10 32 -6 39 -17 45 -74 2 -21 -4 -26
-38 -36 -22 -6 -82 -24 -134 -38 -121 -35 -175 -63 -244 -126 -61 -55 -90
-107 -107 -187 -6 -28 -17 -56 -23 -61 -7 -5 -86 -22 -177 -37 -507 -83 -1057
-223 -1288 -326 -73 -33 -102 -55 -102 -76 0 -23 36 -14 177 43 196 79 377
130 733 209 171 38 611 115 655 115 14 0 33 -10 43 -22 96 -120 169 -170 312
-216 275 -88 376 -104 687 -109 l263 -5 20 -33 c61 -98 197 -170 458 -241 34
-9 62 -19 62 -23 0 -3 -23 -51 -50 -106 -61 -119 -73 -188 -45 -260 38 -102
136 -133 540 -175 307 -32 633 -43 1055 -36 399 6 454 11 529 49 63 31 84 64
89 140 5 85 -12 165 -54 243 l-34 64 22 9 c13 4 84 18 158 30 155 26 302 72
387 122 77 45 304 272 425 424 108 136 572 753 693 920 43 61 106 144 140 185
33 41 76 100 95 130 19 30 125 192 236 360 389 588 597 994 580 1133 -14 123
-143 237 -316 280 -68 17 -70 26 -36 145 32 113 72 311 87 435 7 55 18 101 24
103 6 3 67 -9 135 -26 145 -35 318 -54 435 -48 97 5 132 25 165 94 32 66 23
124 -39 249 -73 146 -159 253 -403 501 -146 147 -218 228 -218 242 0 12 11 56
24 98 l25 77 -24 35 -24 35 99 197 c128 255 140 292 140 417 -1 153 -37 234
-179 398 -206 239 -595 527 -958 709 -183 91 -314 150 -494 223 l-140 55 -34
67 c-258 514 -615 1074 -924 1451 -115 140 -146 175 -340 383 -91 98 -167 183
-169 188 -12 32 145 -23 259 -91 38 -23 112 -82 164 -132 l95 -90 232 12 c128
6 241 16 250 21 25 14 23 30 -17 121 -20 44 -33 83 -30 86 3 4 63 -52 133
-122 l126 -129 201 12 c331 20 335 20 335 46 0 22 -25 75 -70 150 l-25 40 30
-19 c17 -11 76 -52 131 -93 l102 -73 153 1 c178 1 261 9 266 26 2 6 -30 62
-72 123 -42 62 -74 114 -71 117 3 3 86 -49 184 -115 l179 -120 119 19 c107 18
175 32 212 44 10 4 8 14 -9 42 l-23 36 40 -7 c240 -43 335 -46 461 -16 167 40
299 106 278 139 -9 15 -37 14 -125 -5 -188 -40 -407 24 -906 264 -320 155
-460 209 -676 262 -206 51 -348 63 -643 57 -289 -6 -381 -17 -775 -92 -129
-24 -260 -47 -290 -51 l-55 -6 30 26 c66 57 219 170 302 222 49 30 92 60 98
65 19 19 -20 29 -120 30 -55 0 -125 4 -155 8 l-55 7 110 36 c61 19 144 43 185
53 62 14 83 25 119 59 70 66 221 238 221 252 0 25 -40 34 -157 34 -151 1 -139
14 54 59 260 62 407 102 482 133 120 50 265 154 411 294 154 149 160 166 50
138z m-97 -108 c-22 -39 -241 -195 -350 -250 -92 -46 -131 -58 -387 -121 -343
-85 -501 -144 -501 -185 0 -13 33 -16 198 -20 l198 -5 -81 -92 c-44 -51 -93
-99 -108 -107 -15 -8 -73 -26 -128 -40 -213 -53 -434 -164 -434 -216 0 -26 35
-26 191 1 66 11 136 19 155 17 l37 -3 -144 -110 c-79 -60 -168 -129 -199 -152
-30 -24 -71 -48 -90 -54 -43 -14 -60 -27 -60 -45 0 -29 164 -8 590 75 351 68
462 82 725 88 540 12 737 -34 1336 -317 349 -165 519 -233 654 -259 86 -18 96
-21 89 -33 -5 -8 -56 -9 -163 -5 -120 5 -186 13 -286 36 -92 21 -134 27 -147
20 -20 -11 -19 -16 24 -71 27 -34 27 -38 11 -46 -21 -11 -138 -32 -178 -32
-19 0 -78 32 -179 99 -232 151 -357 218 -391 205 -25 -10 -18 -27 50 -109 88
-108 155 -200 155 -214 0 -6 -6 -11 -12 -11 -7 0 -71 -5 -142 -10 l-129 -9
-126 93 c-142 105 -316 221 -346 230 -11 3 -26 2 -34 -3 -18 -11 -7 -29 67
-113 100 -114 170 -213 158 -225 -3 -3 -101 -13 -217 -21 l-211 -14 -122 120
c-173 171 -260 234 -302 218 -21 -8 -12 -33 46 -131 55 -92 93 -165 88 -170
-2 -2 -93 -9 -202 -15 l-199 -11 -56 54 c-180 175 -347 254 -606 287 -96 12
-101 14 -107 45 -2 12 -11 20 -23 20 -32 0 -57 -89 -63 -225 -5 -144 8 -231
60 -387 l41 -123 -38 -56 c-43 -61 -132 -147 -149 -141 -20 7 -85 153 -105
237 -11 47 -26 129 -33 183 -7 53 -15 97 -20 97 -4 0 -21 -30 -39 -66 -49
-104 -58 -183 -59 -501 l0 -281 -97 -86 c-54 -47 -103 -86 -109 -86 -7 0 -15
8 -18 18 -14 44 -36 226 -42 353 -4 77 -10 142 -15 144 -13 8 -68 -75 -119
-180 -74 -149 -92 -239 -89 -443 l2 -166 -99 -96 c-55 -53 -109 -102 -121
-109 -21 -11 -23 -8 -42 53 -33 108 -52 224 -58 368 -3 75 -9 142 -13 149 -36
57 -122 -162 -155 -388 -8 -60 -19 -165 -24 -236 -5 -74 -14 -133 -21 -142
-20 -24 -158 -107 -168 -101 -13 8 -20 60 -37 306 -8 118 -19 218 -23 222 -45
45 -117 -156 -186 -521 -14 -74 -32 -144 -40 -156 -40 -61 -219 -235 -231
-224 -7 8 56 350 91 489 96 390 236 707 459 1045 257 389 531 658 1041 1026
180 129 243 183 231 195 -14 15 -66 -12 -200 -103 -229 -156 -271 -183 -285
-183 -16 0 -433 137 -450 148 -8 6 42 44 155 119 172 112 233 158 233 173 0
18 -67 21 -140 6 -102 -21 -211 -65 -362 -144 l-126 -67 -59 29 c-141 69 -403
228 -403 246 0 15 96 67 185 99 75 27 207 59 320 78 60 10 74 36 28 54 -94 35
-351 17 -581 -42 -174 -44 -152 -47 -277 39 -213 149 -346 253 -343 270 4 23
170 105 272 133 68 19 112 23 279 27 441 9 779 -74 1238 -304 248 -124 414
-229 603 -384 105 -85 127 -100 148 -100 36 0 17 27 -87 125 l-105 100 79 138
c44 76 103 173 132 215 199 294 481 542 747 657 139 60 166 64 577 80 335 13
531 28 544 41 2 2 17 4 33 4 22 0 27 -3 21 -14z m-2806 -1746 c96 -33 96 -36
-9 -127 -51 -45 -176 -160 -278 -258 -130 -125 -214 -196 -285 -243 -112 -73
-221 -176 -283 -268 l-41 -61 -188 -70 c-191 -72 -253 -91 -253 -77 0 18 119
229 190 339 89 136 97 159 60 163 -34 4 -143 -73 -241 -170 -86 -85 -189 -214
-251 -314 -24 -38 -50 -80 -59 -92 -12 -17 -63 -40 -183 -82 -91 -32 -178 -61
-192 -64 l-26 -7 7 48 c12 85 87 262 162 385 38 62 42 105 8 100 -37 -6 -129
-75 -211 -157 -92 -93 -171 -207 -240 -348 l-49 -98 -107 -34 c-157 -51 -162
-49 -147 46 19 119 100 293 206 442 71 99 241 278 343 360 355 286 860 471
1635 597 158 26 341 21 432 -10z m1055 -17 c19 -16 74 -64 122 -109 l87 -81
-58 -44 c-32 -24 -79 -62 -104 -86 l-45 -42 -79 79 -78 78 5 94 c6 121 15 138
72 138 32 0 52 -7 78 -27z m344 -345 c92 -95 192 -216 213 -255 10 -19 7 -24
-22 -42 -17 -11 -68 -47 -111 -80 -44 -33 -83 -58 -88 -55 -8 5 -257 336 -271
361 -4 6 5 26 20 44 37 44 134 119 154 119 9 0 56 -42 105 -92z m312 -372 c85
-93 272 -360 272 -389 0 -9 -38 -35 -87 -61 -49 -25 -114 -62 -145 -82 -69
-44 -74 -42 -123 55 -18 36 -67 124 -109 196 -42 71 -76 137 -76 146 0 29 182
179 216 179 6 0 30 -20 52 -44z m332 -476 c10 -5 40 -44 67 -87 87 -135 243
-408 243 -424 0 -10 -26 -26 -72 -44 -40 -15 -126 -53 -191 -83 -100 -46 -121
-52 -132 -41 -20 22 -225 483 -225 507 0 31 41 64 155 127 102 56 123 62 155
45z m377 -628 c37 -51 119 -220 111 -228 -4 -3 -55 6 -115 20 -130 31 -283 56
-340 56 -45 0 -73 8 -73 20 0 10 156 91 260 136 102 44 123 44 157 -4z m-99
-264 c206 -43 490 -149 797 -297 416 -201 674 -379 956 -660 206 -204 263
-303 262 -446 -1 -74 -19 -122 -127 -340 -107 -217 -103 -211 -140 -182 l-29
23 63 174 63 174 -50 46 c-322 292 -327 298 -343 380 -29 152 -236 357 -498
493 -208 108 -347 136 -495 99 -68 -17 -80 -18 -93 -5 -7 8 -14 24 -14 37 0
35 -65 136 -120 187 -94 86 -347 213 -542 273 -49 15 -88 29 -88 31 0 10 49
30 90 36 65 10 201 0 308 -23z m-344 -113 c129 -27 374 -147 502 -244 53 -41
117 -140 140 -217 8 -28 23 -59 33 -68 18 -16 23 -16 96 13 141 57 264 41 459
-58 145 -74 260 -155 356 -251 97 -95 126 -147 143 -248 l12 -68 125 -110 c69
-61 149 -133 178 -160 l53 -49 -44 -130 c-73 -215 -128 -345 -146 -345 -9 0
-31 13 -48 28 l-33 27 54 135 c81 202 80 191 5 263 -79 75 -178 149 -195 145
-7 -2 -39 -34 -71 -73 -160 -190 -287 -209 -548 -81 -225 111 -418 255 -468
350 -30 56 -29 188 3 308 25 100 22 121 -17 116 -23 -2 -39 -20 -84 -88 -102
-155 -172 -199 -295 -186 -161 16 -482 168 -599 282 -105 103 -122 205 -64
380 l32 95 -24 25 c-33 35 -30 83 7 136 30 42 31 43 90 43 41 1 71 7 99 22 49
27 146 30 249 8z m-553 -575 c20 -65 -5 -90 -51 -52 l-22 18 21 42 c25 49 36
47 52 -8z m-846 -25 c518 -45 679 -65 750 -92 95 -35 209 -93 296 -149 151
-98 407 -200 559 -223 109 -17 271 -98 374 -187 242 -212 449 -332 671 -389
114 -30 160 -53 335 -173 173 -117 324 -231 470 -353 166 -138 499 -472 583
-584 132 -177 179 -314 125 -365 -64 -60 -223 -53 -523 21 -155 38 -145 32
-145 102 0 89 -26 256 -56 367 -44 160 -46 150 17 106 98 -71 311 -250 418
-352 125 -120 128 -134 26 -134 -58 0 -66 -2 -63 -17 5 -25 46 -43 98 -43 56
0 92 18 104 51 21 61 -17 111 -229 294 -733 632 -1543 1124 -2625 1592 -664
288 -1064 418 -1397 454 -131 14 -186 4 -205 -36 -14 -32 26 -108 61 -113 36
-5 44 10 28 51 -19 45 -15 46 91 36 125 -13 316 -55 521 -115 201 -60 280 -90
265 -102 -5 -5 -43 -14 -84 -21 -94 -15 -340 -96 -459 -152 l-91 -42 -42 29
c-23 16 -113 98 -199 182 -113 109 -165 168 -183 205 -40 80 -32 127 27 152
43 19 265 19 482 0z m1899 -397 c9 -35 7 -76 -4 -83 -6 -4 -26 3 -46 16 l-35
22 32 33 c39 40 45 41 53 12z m-1094 -41 c32 -13 55 -28 55 -37 0 -8 -20 -25
-44 -39 -89 -49 -231 -205 -231 -254 0 -32 -41 -44 -165 -50 -379 -18 -703
-164 -975 -437 -68 -68 -148 -161 -194 -227 -44 -62 -81 -113 -83 -113 -14 0
126 267 202 385 176 273 435 501 726 639 127 60 229 93 389 124 197 39 243 40
320 9z m399 -171 c93 -41 178 -80 189 -87 11 -7 35 -44 53 -82 33 -67 34 -73
34 -191 0 -118 -1 -123 -33 -184 -38 -73 -97 -141 -160 -184 -41 -28 -46 -29
-87 -19 -65 16 -142 13 -230 -9 l-78 -20 -45 26 c-66 39 -161 139 -188 199
-75 164 -38 376 87 495 65 62 195 130 250 130 27 0 93 -24 208 -74z m515 -239
c44 -23 80 -46 80 -50 1 -5 -35 -23 -79 -41 -44 -18 -94 -40 -112 -49 l-32
-17 -6 37 c-3 21 -13 72 -21 114 -8 42 -14 79 -14 82 0 10 96 -30 184 -76z
m1490 -65 c43 -41 64 -77 53 -89 -5 -5 -126 67 -171 102 -18 14 -18 16 -2 40
l17 26 30 -18 c16 -11 49 -38 73 -61z m-4370 -1 c16 -17 15 -19 -7 -34 -13 -8
-130 -70 -260 -137 l-237 -122 -77 -151 c-72 -140 -80 -152 -105 -152 -16 0
-29 4 -30 8 -1 5 34 84 78 177 l79 167 260 131 c143 72 265 131 271 131 6 1
18 -7 28 -18z m1706 -54 c0 -177 89 -347 230 -437 27 -18 50 -36 50 -40 0 -4
-12 -33 -26 -64 -34 -75 -41 -154 -20 -235 17 -68 35 -98 103 -175 l43 -48
-19 -27 c-26 -38 -151 -264 -381 -691 -111 -206 -208 -383 -217 -392 -23 -26
-42 -22 -103 19 -145 96 -343 286 -442 423 -98 136 -206 376 -181 401 5 5 141
-10 323 -37 172 -24 319 -43 327 -40 7 3 13 14 13 25 0 27 -20 32 -330 81
-140 22 -279 45 -309 51 l-54 11 6 158 c5 130 3 161 -8 170 -40 33 -60 -18
-71 -184 -6 -105 -8 -111 -37 -137 -32 -30 -32 -59 1 -59 30 0 47 -28 76 -125
61 -198 178 -380 365 -566 212 -211 430 -353 719 -469 92 -37 166 -71 165 -76
-1 -5 -9 -47 -19 -94 -44 -221 34 -394 219 -480 118 -56 347 -59 462 -6 71 32
153 115 191 191 28 58 29 64 29 212 l0 151 75 22 c94 27 258 104 341 161 83
56 228 195 235 226 9 34 -8 48 -37 32 -13 -7 -63 -48 -110 -91 -138 -127 -103
-129 -297 19 -360 275 -507 383 -523 383 -9 0 -23 -7 -30 -16 -16 -19 -33 -4
251 -221 295 -226 390 -302 390 -314 0 -18 -150 -80 -266 -110 -353 -89 -752
-48 -1132 117 -155 66 -172 77 -172 111 0 23 390 765 532 1013 72 126 70 124
162 110 98 -16 166 -8 243 30 73 36 105 72 146 160 17 36 31 66 33 68 1 2 40
-26 86 -62 123 -98 161 -111 338 -111 160 0 195 8 300 72 30 18 62 33 71 33
22 0 145 -130 224 -238 144 -194 214 -389 222 -622 8 -220 -33 -405 -141 -626
-132 -268 -283 -448 -490 -583 -93 -60 -130 -77 -252 -116 -104 -34 -212 -81
-394 -171 -139 -68 -257 -124 -263 -124 -7 0 -70 44 -142 97 -320 237 -629
412 -1015 573 -225 95 -577 200 -669 200 -26 0 -56 51 -120 208 -143 350 -219
709 -209 994 4 117 9 144 38 228 189 551 574 942 1050 1067 85 22 164 31 388
41 l32 2 0 -73z m2556 -36 c38 -27 79 -60 92 -74 l23 -25 -21 -51 c-12 -28
-28 -55 -35 -61 -17 -14 -293 166 -278 181 28 28 111 78 129 78 11 1 52 -21
90 -48z m-1026 -23 c195 -91 286 -231 278 -426 -3 -76 -8 -97 -40 -164 -49
-102 -104 -161 -192 -203 -144 -68 -259 -71 -385 -9 -98 48 -185 136 -234 236
-36 72 -37 79 -37 180 0 100 2 109 35 175 56 112 158 203 268 239 27 9 76 13
137 11 85 -3 103 -7 170 -39z m-4577 -101 c109 -54 178 -121 227 -221 27 -52
41 -97 43 -126 2 -43 0 -45 -26 -48 -44 -5 -71 20 -96 87 -28 77 -73 137 -135
178 -65 44 -115 57 -216 58 -74 0 -93 -4 -144 -29 -151 -74 -241 -248 -206
-398 7 -29 22 -71 32 -92 27 -53 103 -132 158 -164 42 -25 55 -27 178 -30
l133 -4 16 -33 c28 -60 11 -70 -137 -82 -230 -18 -452 163 -490 399 -35 223
100 447 321 529 44 16 74 19 160 17 99 -3 110 -5 182 -41z m5091 -189 c202
-124 532 -344 616 -411 41 -32 63 -60 87 -110 92 -189 142 -492 122 -752 -34
-455 -215 -905 -518 -1286 l-76 -96 -165 -6 c-180 -6 -234 -17 -465 -96 -109
-37 -121 -39 -142 -26 -12 8 -27 24 -33 35 -9 17 -2 24 60 60 175 102 376 303
498 495 87 140 190 403 217 559 17 101 20 316 5 420 -13 84 -67 251 -111 338
-48 95 -141 226 -227 320 -128 139 -118 115 -81 200 64 146 72 223 39 368 -22
95 -22 100 -14 100 3 0 88 -50 188 -112z m-5316 -47 c-1 -60 -6 -112 -10 -116
-7 -7 -125 53 -168 85 -31 23 -21 48 38 88 48 32 90 49 125 51 17 1 19 -7 15
-108z m169 77 c51 -25 98 -72 91 -90 -6 -14 -144 -96 -176 -105 -17 -4 -20 3
-25 58 -4 34 -7 87 -7 117 l0 54 38 -7 c20 -3 56 -16 79 -27z m6051 -41 c34
-35 42 -50 42 -79 0 -36 -17 -88 -29 -88 -4 0 -18 7 -31 17 -49 32 -80 67 -80
90 0 33 30 103 44 103 7 0 31 -19 54 -43z m-2114 -73 c8 -22 7 -44 -2 -44 -20
0 -43 27 -36 43 8 21 30 22 38 1z m-156 -48 c119 -60 185 -153 185 -263 0 -73
-30 -132 -90 -182 -47 -39 -89 -51 -173 -51 -208 0 -371 232 -277 392 31 54
89 106 138 125 54 20 155 11 217 -21z m-3624 -19 c14 -37 3 -45 -76 -53 -84
-8 -87 2 -15 51 60 41 78 41 91 2z m-478 -13 c32 -19 70 -46 83 -59 l24 -23
-44 -28 c-24 -15 -68 -38 -97 -52 -73 -33 -82 -24 -82 83 0 46 3 90 6 99 10
25 45 19 110 -20z m1088 -111 l198 -6 -5 -26 c-5 -24 -325 -719 -395 -857 -42
-84 -54 -94 -111 -94 l-48 0 -186 373 c-192 384 -277 566 -277 592 0 12 31 15
193 18 105 1 246 3 313 5 66 1 210 -1 318 -5z m-941 -100 c4 -38 7 -92 7 -121
l0 -54 -32 7 c-46 10 -101 40 -143 76 l-36 32 23 24 c25 27 146 103 164 103 6
0 14 -29 17 -67z m112 -92 c21 -47 15 -71 -19 -71 -29 0 -41 37 -30 94 8 43
22 37 49 -23z m679 -907 c77 -37 150 -109 181 -176 37 -79 35 -191 -4 -273
-34 -73 -110 -146 -189 -183 -49 -23 -70 -27 -152 -27 -87 0 -101 3 -161 32
-76 38 -150 111 -182 181 -32 70 -31 209 2 272 35 66 70 107 127 146 79 55
116 65 224 61 81 -3 104 -7 154 -33z m402 -483 c60 -26 155 -66 211 -87 57
-22 103 -42 103 -46 0 -4 -25 -36 -57 -70 -119 -133 -166 -236 -182 -401 -5
-48 -11 -91 -15 -94 -9 -10 -106 79 -228 209 -107 115 -218 244 -218 253 0 2
26 22 58 43 71 49 132 114 172 186 18 31 35 56 39 56 4 0 57 -22 117 -49z
m749 -172 l36 -71 -51 -54 c-56 -59 -80 -106 -80 -157 0 -53 -23 -66 -136 -77
-54 -5 -102 -10 -106 -10 -25 -1 2 -37 69 -91 l76 -63 -67 -63 c-38 -35 -73
-63 -80 -63 -6 0 -64 23 -130 52 -142 63 -144 65 -129 184 14 117 73 236 157
319 96 95 244 163 358 164 l48 1 35 -71z m4240 31 c79 -27 135 -61 178 -109
72 -80 61 -158 -57 -396 -94 -188 -286 -514 -448 -760 -271 -412 -1032 -1446
-1259 -1710 -111 -130 -265 -276 -329 -312 -170 -95 -438 -142 -936 -163 -489
-21 -1174 25 -1597 106 -227 44 -333 86 -425 169 -29 26 -52 51 -52 55 0 5 46
31 103 59 59 28 125 69 154 95 l52 47 119 -51 c228 -95 408 -129 737 -137
l220 -5 40 -28 c59 -41 174 -97 262 -127 74 -25 90 -26 321 -31 401 -7 598 17
758 92 140 66 191 140 182 260 -10 117 -75 211 -215 306 -43 29 -79 54 -81 56
-7 5 50 105 61 108 7 2 102 18 212 35 221 35 402 76 483 111 33 14 69 41 96
71 47 53 123 192 151 276 20 64 41 81 147 123 448 179 730 451 763 741 9 73
-11 201 -40 266 -15 32 -47 75 -87 112 -48 46 -61 64 -53 74 6 8 32 41 58 73
93 114 211 300 283 447 40 81 76 152 79 157 10 16 57 12 120 -10z m-5496 -195
l3 -70 120 -110 c108 -100 117 -111 96 -117 -30 -8 -442 -10 -502 -2 -26 4
-45 11 -44 16 2 5 55 55 118 111 l115 103 3 49 c4 90 8 97 50 93 l37 -3 4 -70z
m3068 44 c71 -11 132 -25 137 -30 6 -5 11 -50 13 -101 5 -122 9 -138 33 -138
24 0 28 16 38 140 l7 95 55 7 c108 12 247 9 260 -7 8 -10 11 -51 8 -137 -3
-121 -4 -125 -38 -177 -39 -62 -133 -136 -192 -152 -23 -6 -93 -9 -157 -7
-102 3 -123 6 -172 31 -81 39 -143 98 -175 164 -25 53 -26 64 -22 162 5 116
24 171 58 171 11 0 77 -9 147 -21z m-2906 -121 c122 -148 120 -147 84 -121
-16 12 -65 55 -107 96 -59 56 -78 80 -78 100 0 15 4 27 8 27 5 0 46 -46 93
-102z m1404 48 c222 -54 531 -176 835 -327 270 -135 735 -444 735 -489 0 -15
-96 -77 -158 -103 -33 -14 -36 -13 -83 16 -110 69 -392 224 -585 322 l-206
104 -6 44 c-19 136 -114 262 -232 306 -52 20 -74 22 -170 19 -121 -4 -148 -13
-216 -75 l-39 -35 -64 17 c-91 25 -140 54 -144 87 -4 33 30 101 60 122 34 24
154 20 273 -8z m285 -200 c70 -36 174 -156 135 -156 -8 0 -52 15 -97 34 -46
19 -128 51 -183 72 -55 20 -102 39 -105 41 -3 3 4 11 15 20 28 21 187 14 235
-11z m-536 -62 l58 -18 -6 -41 c-18 -144 -18 -150 7 -255 20 -86 24 -121 20
-193 -3 -49 -1 -93 4 -98 5 -5 48 -1 108 10 55 11 136 22 180 26 44 3 136 17
205 30 145 28 264 42 442 51 l127 7 113 -63 c144 -79 298 -179 298 -192 0 -12
-108 -174 -126 -188 -7 -7 -72 26 -190 96 -213 127 -296 169 -317 161 -8 -3
-20 -29 -27 -59 -16 -68 -40 -128 -50 -128 -5 0 -44 13 -87 29 -92 34 -403
131 -419 131 -15 0 -25 -26 -18 -44 8 -22 501 -196 554 -196 25 0 39 20 65 93
13 34 29 63 36 65 13 2 89 -39 347 -191 62 -37 119 -67 126 -67 6 0 28 25 47
56 103 170 168 229 387 353 148 85 584 301 657 327 71 24 98 15 176 -64 112
-114 169 -263 189 -490 16 -183 -9 -430 -62 -600 -44 -143 -135 -285 -206
-321 -77 -39 -334 -92 -637 -131 -93 -13 -180 -26 -192 -31 -34 -13 -30 -48 8
-61 40 -14 35 -32 -38 -152 -96 -155 -109 -183 -97 -203 6 -10 17 -18 25 -18
8 0 44 41 81 90 37 50 74 91 82 93 46 10 202 -121 245 -205 88 -173 -80 -298
-460 -344 -137 -16 -486 -14 -584 4 -195 36 -394 154 -502 300 -54 73 -163
291 -198 397 -84 255 -104 402 -135 999 l-9 185 -65 65 c-35 36 -93 102 -128
146 -46 58 -72 82 -96 89 -20 5 -48 26 -67 50 -106 130 -183 231 -180 235 3 2
59 -49 125 -113 117 -112 153 -135 166 -101 7 17 -14 48 -112 162 -57 67 -71
89 -63 100 6 7 21 13 32 13 30 0 137 31 137 40 0 4 -43 44 -95 89 -52 46 -95
88 -95 93 0 16 146 4 214 -18z m-919 -34 c33 -35 25 -54 -21 -48 -26 3 -29 8
-32 41 -4 46 13 49 53 7z m1294 -16 c159 -60 303 -134 321 -166 8 -15 12 -30
8 -33 -3 -4 -59 17 -125 45 -65 29 -176 74 -248 102 -129 49 -170 72 -158 90
10 18 95 2 202 -38z m-64 -115 c149 -57 357 -157 363 -176 5 -18 -80 -98 -131
-122 -24 -11 -64 -24 -90 -27 -42 -6 -47 -5 -47 12 0 10 25 41 55 69 30 28 55
58 55 67 0 27 -47 75 -92 93 -59 24 -132 24 -158 0 -24 -22 -27 -72 -5 -101
20 -26 19 -80 -1 -88 -23 -9 -91 64 -120 128 -46 102 -41 196 11 196 14 0 86
-23 160 -51z m-983 -8 c131 -34 198 -71 293 -163 99 -95 207 -233 231 -295 16
-42 16 -44 -10 -95 -29 -59 -87 -138 -159 -218 l-48 -53 -62 60 c-178 173
-297 220 -525 210 -176 -7 -298 -55 -410 -161 -42 -40 -57 -48 -69 -40 -30 19
-46 85 -47 189 -1 92 1 105 31 167 66 140 185 279 295 345 116 71 324 94 480
54z m4239 -98 c65 -29 124 -86 155 -149 25 -51 26 -60 22 -171 -4 -109 -6
-123 -36 -179 -64 -125 -185 -254 -329 -351 -74 -49 -352 -189 -397 -199 -24
-6 -27 -4 -23 12 14 48 29 311 24 419 -8 157 -28 256 -73 363 -20 48 -38 101
-41 118 -5 31 -4 32 74 62 190 73 332 103 473 98 79 -2 116 -8 151 -23z
m-2673 -82 c70 -35 82 -48 50 -56 -38 -9 -212 -25 -217 -19 -5 5 22 65 45 101
16 26 23 24 122 -26z m-707 -164 c-7 -7 -15 -6 -25 3 -22 17 -9 32 16 19 14
-8 17 -14 9 -22z m-1960 -64 c98 -49 209 -155 209 -199 0 -37 28 -120 63 -190
l26 -51 -35 -85 c-37 -94 -74 -226 -74 -268 0 -14 -6 -34 -13 -44 -12 -16 -18
-17 -49 -7 -94 31 -294 190 -392 312 -174 218 -199 406 -67 514 54 45 84 54
172 55 80 0 92 -3 160 -37z m1760 -125 c11 -13 55 -76 99 -141 l80 -118 0
-122 c0 -252 30 -548 76 -755 51 -230 163 -503 259 -629 26 -36 43 -68 39 -74
-10 -17 -261 -4 -433 21 -177 26 -262 50 -396 114 l-112 53 -7 59 c-10 87 -33
148 -76 206 -22 28 -36 56 -33 62 4 6 21 34 39 61 90 142 159 330 176 480 13
112 4 295 -17 354 -15 43 -15 44 12 79 15 20 47 58 71 86 49 55 139 189 168
249 21 43 29 45 55 15z m-716 -120 c174 -57 303 -198 346 -378 19 -80 15 -248
-9 -363 -22 -104 -107 -297 -173 -393 l-32 -47 -196 7 c-108 4 -229 14 -269
22 -156 32 -371 122 -414 172 -34 41 -42 109 -36 325 4 148 7 169 34 248 94
268 246 403 483 428 99 11 191 3 266 -21z m-1341 -754 c28 -8 76 -14 106 -15
30 0 66 -4 80 -8 24 -7 24 -7 -9 -14 -18 -4 -103 -7 -187 -7 -85 0 -154 -3
-154 -7 0 -4 10 -17 22 -30 12 -13 18 -26 15 -30 -4 -3 -64 12 -135 35 -70 23
-152 46 -182 50 l-55 7 50 17 c66 21 372 22 449 2z m465 -48 c17 -21 -11 -27
-85 -20 -67 7 -84 20 -36 27 61 9 110 7 121 -7z m147 -292 c225 -102 429 -151
692 -164 194 -10 192 -9 244 -89 23 -37 28 -56 28 -108 0 -75 -14 -106 -71
-157 -128 -116 -408 -161 -749 -121 -368 43 -640 155 -704 289 -49 104 22 235
168 306 65 32 231 79 282 80 17 0 67 -16 110 -36z m1423 -1054 c35 -5 66 -12
69 -14 3 -3 -8 -25 -23 -48 -39 -59 -45 -121 -14 -154 29 -31 61 -39 229 -59
155 -19 888 -33 1083 -20 l119 7 15 37 c14 33 14 41 -7 104 -12 38 -20 71 -17
73 3 3 54 9 113 14 l109 9 22 -27 c13 -15 41 -63 64 -108 54 -107 58 -168 14
-215 -58 -61 -37 -59 -708 -59 -643 0 -771 6 -1077 50 -172 25 -207 35 -242
70 -24 24 -28 36 -28 83 0 45 8 70 42 137 22 44 56 94 74 110 36 31 28 30 163
10z m466 -50 c66 -5 251 -12 410 -15 160 -3 331 -8 381 -11 l91 -6 36 -61 c25
-41 33 -64 27 -72 -17 -21 -185 -25 -555 -15 -477 13 -702 32 -757 61 -22 12
-14 31 40 97 l35 43 86 -6 c47 -3 140 -10 206 -15z M5571 7845 c-37 -58 -58
-130 -43 -148 18 -22 129 -70 146 -64 23 9 90 158 79 176 -11 17 -122 81 -141
81 -7 0 -25 -20 -41 -45z m99 -30 c17 -9 30 -22 30 -29 0 -18 -37 -106 -45
-106 -13 0 -62 29 -74 44 -11 13 -9 23 9 61 24 49 35 53 80 30z M5497 7659
c-33 -19 -97 -182 -97 -249 0 -84 69 -161 208 -231 47 -24 68 -30 79 -23 21
13 86 141 78 154 -3 5 -37 28 -75 51 -98 58 -98 58 -66 129 42 93 40 107 -19
140 -64 36 -86 42 -108 29z m106 -78 c4 -4 -6 -40 -23 -79 -16 -39 -30 -78
-30 -86 0 -8 25 -32 56 -53 109 -75 109 -74 90 -112 -9 -17 -24 -35 -31 -38
-18 -6 -113 46 -172 94 -39 31 -43 39 -43 77 0 69 18 146 45 193 l26 43 37
-16 c20 -8 41 -19 45 -23z M6670 7360 c-22 -22 -59 -91 -71 -132 -9 -34 3 -49
72 -83 76 -39 85 -36 124 47 19 40 35 80 35 88 0 27 -48 65 -115 90 -20 8 -29
6 -45 -10z m104 -97 c-2 -39 -31 -83 -56 -83 -55 0 -73 42 -43 100 18 35 32
40 70 25 25 -10 30 -17 29 -42z M6561 7136 c-23 -24 -91 -202 -91 -238 0 -49
26 -105 70 -148 52 -52 180 -123 213 -118 28 4 89 103 85 138 -2 18 -19 33
-68 62 -96 55 -98 61 -64 159 l28 81 -24 20 c-22 18 -113 68 -123 68 -2 0 -13
-11 -26 -24z m101 -64 l27 -18 -36 -77 -36 -77 29 -31 c16 -17 53 -46 82 -65
38 -25 52 -40 52 -56 -1 -29 -22 -58 -44 -58 -25 0 -93 37 -153 81 l-53 40 0
77 c1 42 7 94 14 114 31 87 63 106 118 70z M5615 6364 c-90 -46 -119 -136 -76
-231 36 -77 161 -110 239 -63 69 42 93 173 45 238 -50 68 -139 92 -208 56z
m103 -171 c3 -19 -1 -23 -26 -23 -32 0 -47 21 -29 39 19 19 52 9 55 -16z
M4373 6133 c-25 -10 -11 -30 90 -130 153 -151 466 -439 492 -453 13 -7 31 -10
40 -6 15 5 15 9 -2 37 -17 29 -344 343 -513 493 -74 65 -82 70 -107 59z M4063
5743 c-8 -22 19 -43 197 -152 379 -233 524 -311 542 -293 29 29 -4 52 -406
291 -159 94 -298 171 -308 171 -10 0 -21 -7 -25 -17z M5918 5174 c-14 -14 -8
-33 13 -45 21 -11 762 -109 826 -109 41 0 52 18 25 40 -28 23 -91 34 -422 74
-355 43 -433 50 -442 40z M5854 4875 c-4 -10 1 -24 12 -35 26 -26 791 -300
836 -300 11 0 18 7 18 21 0 28 -38 44 -450 194 -382 138 -407 146 -416 120z
M6056 6031 c-28 -31 -17 -124 20 -162 47 -49 117 -51 167 -5 50 47 22 84 -39
51 -58 -31 -104 1 -104 74 0 15 -6 35 -13 45 -12 16 -14 16 -31 -3z M2105
5640 c-82 -4 -151 -8 -152 -8 -13 -8 22 -87 180 -402 159 -319 207 -402 207
-361 0 5 63 144 141 308 170 359 205 443 189 453 -13 8 -264 21 -355 18 -33
-1 -127 -5 -210 -8z m244 -85 c3 -4 -6 -17 -21 -30 -63 -55 -278 -39 -278 21
0 8 17 15 43 17 55 6 248 0 256 -8z m128 0 c8 -21 -25 -55 -54 -55 -28 0 -31
25 -6 52 20 22 51 24 60 3z m103 -8 c0 -8 -11 -24 -24 -36 -30 -28 -45 -11
-22 24 18 27 46 34 46 12z m-304 -130 c10 -9 -67 -148 -79 -144 -7 2 -27 32
-44 68 -31 60 -32 65 -15 77 16 13 126 12 138 -1z m128 7 c13 -5 9 -19 -25
-85 -48 -93 -75 -129 -95 -129 -25 0 -16 55 21 127 44 85 63 101 99 87z m87
-67 c-47 -105 -163 -337 -170 -342 -4 -2 -24 30 -44 71 -39 78 -37 85 19 64
18 -7 30 -7 39 0 7 6 40 64 74 130 34 66 69 126 77 135 30 30 32 3 5 -58z
M710 1720 c-30 -27 -42 -30 -101 -30 -36 0 -80 -5 -97 -11 -25 -8 -42 -7 -83
6 -47 16 -54 16 -93 1 -30 -12 -68 -16 -127 -14 -71 3 -84 1 -87 -14 -4 -22
53 -64 123 -89 45 -16 79 -20 159 -18 198 4 231 4 259 -4 28 -8 37 -27 12 -27
-22 0 -79 -55 -71 -68 20 -32 180 -4 306 54 60 28 95 37 170 44 110 10 178 31
210 65 35 38 18 48 -69 40 -65 -6 -86 -3 -141 16 -52 19 -82 23 -153 21 -85
-2 -90 -1 -125 28 -20 16 -41 30 -47 30 -5 -1 -26 -14 -45 -30z m90 -65 c17
-10 58 -15 125 -15 77 -1 108 -5 134 -19 l35 -18 -60 -5 c-44 -3 -85 -16 -152
-48 -51 -24 -94 -41 -97 -38 -3 3 6 20 21 37 14 18 24 34 21 38 -14 14 -274
25 -339 14 -37 -6 -86 -11 -110 -11 -42 0 -78 13 -67 25 3 3 82 10 175 17 93
6 187 16 209 23 53 17 75 17 105 0z M7106 194 c-10 -47 -15 -88 -12 -91 5 -6
9 7 30 110 7 37 10 67 6 67 -4 0 -15 -39 -24 -86z M7420 270 c0 -5 5 -10 10
-10 6 0 10 5 10 10 0 6 -4 10 -10 10 -5 0 -10 -4 -10 -10z M7966 194 c-10 -47
-15 -88 -12 -91 5 -6 9 7 30 110 7 37 10 67 6 67 -4 0 -15 -39 -24 -86z M8046
269 c-3 -8 -10 -41 -16 -74 -6 -33 -14 -68 -16 -77 -3 -10 -1 -18 3 -18 10 0
46 171 38 178 -2 3 -7 -1 -9 -9z M6809 241 c-38 -38 -41 -101 -7 -125 29 -20
79 -20 104 0 18 14 18 15 1 10 -53 -17 -69 -17 -92 -2 -69 45 21 166 94 126
12 -6 21 -7 21 -1 0 12 -25 21 -62 21 -19 0 -39 -10 -59 -29z M7810 189 c-28
-45 -49 -83 -47 -85 2 -3 12 7 21 21 14 21 24 25 66 25 43 0 50 -3 50 -19 0
-11 5 -23 10 -26 6 -3 10 -3 10 1 0 20 -44 164 -51 164 -4 0 -30 -37 -59 -81z
m75 4 l7 -33 -42 0 c-42 0 -42 0 -28 23 8 12 21 32 29 44 15 25 22 18 34 -34z
M6960 210 c-22 -22 -27 -79 -8 -98 19 -19 66 -14 88 8 22 22 27 79 8 98 -19
19 -66 14 -88 -8z m71 0 c25 -14 25 -54 -1 -80 -23 -23 -33 -24 -61 -10 -25
14 -25 54 1 80 23 23 33 24 61 10z M7170 210 c-22 -22 -27 -79 -8 -98 19 -19
66 -14 88 8 22 22 27 79 8 98 -19 19 -66 14 -88 -8z m71 0 c25 -14 25 -54 -1
-80 -23 -23 -33 -24 -61 -10 -25 14 -25 54 1 80 23 23 33 24 61 10z M7316 204
c-3 -16 -8 -47 -11 -69 -8 -51 10 -26 19 27 5 27 15 42 34 53 18 10 22 14 10
15 -9 0 -20 -5 -24 -11 -5 -8 -9 -8 -14 1 -5 8 -10 3 -14 -16z M7417 223 c-2
-4 -7 -26 -11 -48 -4 -22 -9 -48 -12 -57 -3 -10 -1 -18 4 -18 4 0 14 28 20 62
11 58 10 81 -1 61z M7475 220 c-1 -3 -5 -23 -9 -45 -4 -22 -9 -48 -12 -57 -3
-10 -1 -18 4 -18 5 0 13 20 17 45 7 53 44 87 74 68 17 -11 19 -28 8 -80 -4
-18 -3 -33 2 -33 16 0 24 99 11 115 -12 14 -87 18 -95 5z M7640 210 c-22 -22
-27 -79 -8 -98 7 -7 24 -12 38 -12 14 0 31 5 38 12 9 9 12 8 12 -5 0 -9 -12
-24 -26 -34 -21 -13 -32 -15 -55 -6 -16 6 -29 8 -29 3 0 -24 81 -27 102 -2 18
19 50 162 37 162 -5 0 -9 -5 -9 -10 0 -7 -6 -7 -19 0 -30 16 -59 12 -81 -10z
m71 0 c29 -16 25 -65 -6 -86 -56 -37 -103 28 -55 76 23 23 33 24 61 10z M8141
211 c-23 -23 -28 -80 -9 -99 19 -19 88 -13 88 9 0 5 -11 4 -24 -2 -54 -25 -89
38 -46 81 23 23 33 24 62 9 16 -9 19 -8 16 3 -8 22 -64 22 -87 -1z M8270 210
c-22 -22 -27 -79 -8 -98 19 -19 66 -14 88 8 22 22 27 79 8 98 -19 19 -66 14
-88 -8z m71 0 c25 -14 25 -54 -1 -80 -23 -23 -33 -24 -61 -10 -25 14 -25 54 1
80 23 23 33 24 61 10z M8416 201 c-3 -14 -8 -44 -11 -66 -8 -51 10 -26 19 27
8 41 35 63 66 53 22 -7 24 -21 11 -77 -5 -22 -5 -38 0 -38 5 0 9 6 9 13 0 68
51 125 85 97 15 -13 15 -35 -1 -92 -3 -10 -1 -18 4 -18 6 0 13 23 17 50 9 63
-5 84 -49 76 -17 -4 -35 -6 -41 -6 -101 8 -104 7 -109 -19z M8060 110 c0 -5 5
-10 10 -10 6 0 10 5 10 10 0 6 -4 10 -10 10 -5 0 -10 -4 -10 -10z"/>
</g>
</svg>
