<?xml version="1.0" standalone="no"?>
<!DOCTYPE svg PUBLIC "-//W3C//DTD SVG 20010904//EN"
 "http://www.w3.org/TR/2001/REC-SVG-20010904/DTD/svg10.dtd">
<svg version="1.0" xmlns="http://www.w3.org/2000/svg"
 width="300.000000pt" height="235.000000pt" viewBox="0 0 300.000000 235.000000"
 preserveAspectRatio="xMidYMid meet">
<metadata>
Created by potrace 1.10, written by Peter Selinger 2001-2011
</metadata>
<g transform="translate(0.000000,235.000000) scale(0.100000,-0.100000)"
fill="#000000" stroke="none">
<path d="M1641 2039 c-36 -36 -50 -59 -37 -59 2 0 34 13 71 30 50 22 66 34 63
47 -2 11 -14 19 -30 21 -21 2 -36 -7 -67 -39z m84 21 c7 -11 -74 -55 -83 -45
-9 9 45 55 63 55 8 0 16 -4 20 -10z"/>
<path d="M2188 2064 c-26 -8 -50 -19 -53 -24 -7 -12 17 -13 31 -2 17 15 94 33
114 27 51 -16 -3 -35 -118 -40 -34 -1 -58 -7 -60 -15 -3 -9 4 -10 24 -6 16 3
63 11 104 16 85 12 105 24 76 46 -24 17 -57 17 -118 -2z"/>
<path d="M980 2056 c-82 -18 -168 -64 -229 -123 -43 -41 -57 -50 -68 -41 -7 6
-17 8 -21 4 -4 -4 1 -14 11 -21 17 -12 17 -14 -4 -49 -20 -35 -21 -35 -49 -21
-34 17 -40 18 -40 6 0 -5 12 -12 28 -16 l27 -7 -33 -13 c-18 -8 -40 -28 -50
-45 -9 -16 -20 -30 -23 -30 -3 0 -3 -22 1 -49 6 -49 31 -98 54 -107 8 -3 14
-25 15 -58 2 -75 25 -160 66 -239 26 -53 30 -67 17 -62 -9 4 -51 14 -92 23
-41 8 -82 21 -91 29 -31 26 -76 35 -113 23 -73 -24 -106 -102 -72 -169 22 -42
44 -55 105 -62 70 -9 186 -52 186 -70 0 -8 -4 -37 -9 -66 -11 -70 -36 -80 -77
-30 -77 93 -185 56 -224 -76 -20 -66 -19 -171 1 -231 41 -121 163 -168 241
-94 23 22 33 23 161 23 134 0 139 -1 227 -37 189 -76 208 -86 243 -128 110
-131 289 -114 321 32 12 53 0 137 -24 174 -14 21 -13 23 17 30 50 10 146 8
225 -5 l71 -12 39 -101 c49 -130 74 -158 140 -158 41 0 63 8 140 54 l92 54 37
-72 c20 -39 46 -81 57 -93 47 -52 135 -33 164 35 43 102 -32 350 -120 399 -34
19 -71 15 -105 -9 -131 -96 -152 -113 -142 -116 5 -2 33 12 60 32 48 35 52 36
79 22 29 -16 61 -69 61 -104 0 -13 -21 -32 -67 -61 l-68 -41 -3 28 c-5 48 -23
80 -58 104 l-33 23 28 30 c41 43 50 83 55 230 2 72 7 142 11 157 8 29 4 28
135 47 l65 9 53 -51 c51 -50 53 -54 48 -94 -5 -35 0 -53 28 -105 l33 -63 73
-2 c68 -2 76 0 112 28 21 17 38 39 38 49 0 10 5 20 10 22 6 2 13 28 15 59 7
85 -37 143 -113 151 -27 2 -53 23 -137 105 l-103 103 -54 0 c-29 0 -70 -4 -91
-9 -23 -6 -39 -5 -43 1 -4 5 -19 8 -35 6 -19 -3 -29 0 -29 9 0 20 50 48 80 45
39 -4 94 51 109 108 7 25 17 59 23 75 6 17 18 56 27 88 14 53 14 61 0 102 -18
49 -15 54 13 28 15 -14 18 -14 18 -1 0 8 -11 20 -24 26 -21 9 -24 16 -19 51 4
27 2 41 -6 41 -6 0 -11 -15 -11 -32 l-1 -33 -18 35 c-40 74 -104 121 -202 146
-114 29 -238 5 -346 -69 -31 -21 -44 -47 -23 -47 5 0 7 -6 5 -12 -2 -7 -9 -32
-15 -55 -16 -64 -38 -56 -77 26 -25 51 -52 87 -108 140 -159 151 -395 221
-595 177z m349 -45 c157 -58 280 -160 342 -284 29 -56 30 -63 19 -103 -7 -24
-10 -57 -7 -73 4 -17 2 -44 -4 -61 -8 -22 -8 -44 1 -79 11 -46 10 -52 -19
-110 -17 -33 -35 -61 -39 -61 -4 0 -20 23 -36 51 l-28 51 18 41 c27 58 25 134
-2 156 -12 9 -25 28 -29 42 -23 77 -112 169 -199 205 l-42 18 4 51 c12 140
-120 208 -213 111 l-20 -20 -5 35 c-7 40 -17 59 -31 59 -5 0 -2 -11 7 -25 20
-31 15 -80 -16 -153 -22 -50 -24 -52 -61 -52 -26 0 -46 -7 -59 -20 -26 -26
-34 -25 -59 6 -41 52 -16 133 60 198 54 45 99 56 229 52 88 -3 119 -8 189 -35z
m-452 -29 c-20 -20 -41 -52 -48 -70 -6 -18 -18 -32 -27 -32 -24 0 -98 -47
-122 -77 l-21 -28 17 35 c28 58 75 109 148 161 82 58 104 63 53 11z m372 -7
c53 -46 63 -122 24 -200 -23 -46 -52 -65 -104 -65 -84 0 -137 57 -122 134 15
74 40 110 98 140 42 22 69 20 104 -9z m942 -112 c71 -32 115 -77 154 -159 40
-84 44 -134 19 -208 -16 -45 -17 -46 -31 -27 -8 12 -25 21 -39 21 -19 0 -24 4
-20 18 29 97 29 111 3 146 -37 48 -122 101 -208 130 -62 21 -90 25 -177 23
-56 -1 -102 -1 -102 0 0 6 100 57 133 68 62 21 210 14 268 -12z m-1371 -26 c0
-31 29 -77 49 -77 5 0 11 -18 15 -39 7 -47 45 -81 88 -81 32 0 88 47 88 74 0
13 6 12 43 -4 23 -11 56 -20 72 -20 41 0 90 32 106 69 11 24 18 29 34 25 71
-22 164 -104 201 -176 31 -62 30 -70 -4 -32 -37 43 -65 56 -94 45 -24 -10 -83
-64 -108 -100 l-15 -22 -33 25 c-19 13 -57 30 -84 37 -73 17 -224 6 -333 -25
-49 -14 -106 -26 -125 -26 -112 1 -213 121 -165 198 25 38 56 62 84 62 13 0
41 16 63 36 35 32 89 62 111 64 4 0 7 -15 7 -33z m198 -53 c29 -20 31 -83 2
-109 -45 -41 -120 -10 -120 48 0 62 67 97 118 61z m975 5 c89 -14 191 -65 251
-126 l44 -44 -19 -71 c-20 -79 -18 -93 12 -77 30 15 49 -5 49 -53 0 -45 -18
-84 -52 -114 -31 -28 -53 -35 -67 -21 -8 8 -18 4 -38 -14 -65 -59 -146 -83
-228 -68 -97 18 -206 102 -241 186 -17 40 -11 210 8 251 18 36 31 26 24 -19
-8 -49 8 -105 34 -119 24 -13 80 -13 80 0 0 6 10 10 21 10 12 0 28 8 35 18 9
12 13 13 14 4 1 -39 35 -86 78 -104 74 -33 139 -8 173 65 33 73 20 167 -29
210 -46 42 -139 28 -176 -25 -16 -22 -16 -22 -16 13 0 53 -32 89 -79 89 -23 0
-48 -8 -63 -20 l-25 -19 5 24 c2 13 12 26 21 28 31 9 113 7 184 -4z m-86 -27
c56 -35 20 -242 -42 -242 -13 0 -25 -5 -27 -12 -5 -14 -51 -3 -72 18 -19 19
-21 81 -4 137 23 75 100 128 145 99z m198 -56 c49 -21 68 -57 68 -126 0 -92
-46 -149 -120 -150 -50 0 -99 36 -111 83 -18 66 23 162 81 191 39 19 40 19 82
2z m-611 -131 c18 -19 40 -35 49 -35 42 0 50 -80 16 -162 -37 -89 -85 -128
-157 -128 -30 0 -45 7 -69 33 -42 43 -55 80 -47 136 7 52 42 111 94 158 46 42
74 42 114 -2z m-297 -36 c17 -5 43 -19 57 -30 24 -19 25 -24 19 -79 -3 -32 -1
-71 5 -87 l10 -30 -37 19 c-31 17 -49 19 -127 14 -88 -6 -94 -5 -149 24 -34
18 -72 30 -94 30 -47 -1 -112 -31 -139 -65 l-22 -28 -16 39 c-17 40 -44 131
-44 149 0 6 20 9 48 7 27 -2 83 6 132 18 139 36 282 44 357 19z m-540 -90 c26
-128 101 -239 160 -239 30 0 23 12 -9 17 -31 5 -68 42 -68 68 0 22 29 54 67
74 40 21 122 13 171 -15 42 -25 49 -26 133 -19 78 6 93 5 131 -14 66 -32 118
-79 111 -99 -36 -100 -143 -132 -246 -74 -89 50 -208 89 -192 62 3 -5 16 -10
28 -10 12 0 70 -23 130 -51 94 -45 114 -51 154 -46 51 5 89 29 118 75 11 17
22 31 25 32 3 0 16 -21 30 -46 l24 -46 -35 -29 c-18 -16 -44 -32 -55 -35 -28
-7 -298 42 -335 61 -15 8 -38 15 -50 15 -12 0 -69 12 -126 27 -100 26 -107 30
-129 65 -33 52 -71 170 -80 247 -6 60 -6 63 11 53 13 -6 23 -32 32 -73z m1112
-175 c8 -6 10 -13 5 -16 -17 -11 -127 -21 -123 -12 3 5 15 30 28 55 l24 47 26
-32 c14 -17 32 -36 40 -42z m-134 -48 c30 -6 126 7 146 19 26 17 24 -13 -7
-76 -37 -75 -37 -92 -1 -69 12 7 41 24 64 37 l42 24 63 -80 c35 -44 66 -80 70
-80 3 -1 27 27 52 62 25 34 60 80 79 101 30 35 35 38 56 27 18 -10 38 -10 88
-1 35 6 74 8 86 4 26 -7 207 -183 207 -201 0 -15 -66 -70 -93 -77 -14 -3 -36
10 -79 51 l-58 56 -108 -14 -107 -14 -7 -40 c-4 -22 -7 -75 -7 -117 l-1 -78
-33 0 c-84 0 -343 42 -380 62 -16 8 -17 12 -4 26 9 11 17 50 20 107 l6 90
-104 0 -104 0 -41 40 c-37 36 -100 128 -100 148 0 4 16 7 35 7 43 0 81 18 114
54 l25 26 25 -44 c19 -34 33 -46 56 -50z m-1165 9 c37 -19 50 -43 50 -93 0
-73 -76 -119 -143 -87 -73 35 -81 134 -14 175 38 24 68 25 107 5z m1380 -31
c14 -36 14 -36 -43 -69 l-52 -30 33 62 c18 35 38 63 43 63 5 0 14 -12 19 -26z
m94 -15 c70 -13 69 -19 -2 -19 -53 0 -63 3 -73 22 -10 19 -9 20 7 14 11 -4 41
-12 68 -17z m196 3 c0 -11 -10 -27 -21 -38 -12 -10 -41 -45 -64 -77 l-43 -58
-55 68 -56 68 62 7 c34 3 82 16 107 27 56 26 70 26 70 3z m-1519 -8 c56 -13
69 -19 69 -35 0 -12 9 -21 25 -25 30 -7 32 -20 6 -29 -20 -6 -71 -59 -89 -92
-10 -17 -14 -17 -81 6 -70 24 -84 34 -58 44 25 9 49 76 42 113 -7 40 -8 39 86
18z m189 -38 c76 -20 82 -24 63 -34 -30 -16 -45 -15 -110 8 -64 22 -67 25 -58
39 8 14 4 14 105 -13z m193 -48 c24 -12 57 -67 57 -96 0 -93 -101 -152 -180
-106 -134 80 -17 274 123 202z m439 -50 c-17 -10 -38 -14 -56 -11 l-29 6 39
33 39 33 17 -22 c16 -21 16 -22 -10 -39z m-642 48 c0 -2 -7 -17 -15 -32 -8
-16 -15 -39 -15 -50 0 -24 67 -111 102 -132 13 -7 16 -11 8 -9 -68 20 -214 48
-225 43 -21 -8 -19 -72 4 -122 49 -108 214 -172 334 -130 l37 14 0 -29 c0 -25
-5 -30 -41 -39 -85 -23 -221 15 -289 81 -74 72 -100 172 -70 265 18 55 38 83
84 115 32 24 86 39 86 25z m44 -14 c-19 -12 -34 -49 -34 -84 -1 -32 -1 -32
-16 -13 -25 33 6 105 45 105 10 0 12 -3 5 -8z m286 -33 c-19 -12 -39 -28 -45
-35 -8 -11 -12 -7 -21 21 l-11 35 56 0 56 0 -35 -21z m180 -14 c80 -6 111 -17
101 -34 -9 -14 -41 -7 -116 25 -19 8 -19 7 -3 -18 31 -48 41 -110 27 -174 -6
-33 -13 -102 -14 -154 -2 -102 -16 -146 -57 -174 -33 -23 -41 -20 -22 9 12 18
19 61 25 138 4 62 13 130 18 152 15 57 13 140 -3 180 -13 31 -51 63 -63 52 -2
-3 4 -10 15 -16 22 -12 52 -78 52 -115 0 -14 -9 -70 -20 -126 -11 -56 -20
-133 -20 -172 0 -64 -2 -72 -30 -100 -26 -25 -36 -29 -62 -24 -40 8 -67 32
-85 75 -11 27 -13 66 -8 190 3 86 11 173 17 193 20 69 96 115 168 102 14 -2
50 -6 80 -9z m216 -1 c29 -12 57 -15 113 -11 l73 6 -7 -76 c-4 -42 -12 -85
-18 -95 -9 -14 -9 -23 1 -38 6 -11 12 -21 12 -23 0 -3 -323 4 -327 7 -3 3 43
165 55 198 10 23 36 47 53 48 4 0 24 -7 45 -16z m-155 -53 l27 -10 -22 -85
c-12 -48 -25 -81 -30 -76 -5 5 -9 42 -10 84 -1 45 -6 80 -14 88 -18 18 -15 30
6 18 9 -5 29 -14 43 -19z m1302 -5 c44 -18 65 -53 65 -109 0 -47 -30 -127 -48
-127 -5 0 -18 -10 -30 -22 -18 -20 -24 -21 -53 -10 -19 7 -47 10 -63 7 -27 -6
-31 -2 -58 54 -37 79 -32 121 18 139 19 7 47 28 63 47 31 37 56 42 106 21z
m-1827 -110 c83 -20 158 -36 167 -36 14 0 17 -11 17 -64 0 -85 -8 -91 -124
-91 -74 0 -99 4 -132 22 -53 28 -100 82 -113 130 -18 64 -12 88 18 79 9 -3 84
-21 167 -40z m-370 15 c107 -65 128 -361 31 -422 -68 -43 -157 3 -194 100 -28
73 -23 185 11 255 40 82 91 104 152 67z m557 -22 c-6 -22 -3 -22 -73 -4 l-55
13 40 1 c22 1 46 5 54 10 21 13 40 2 34 -20z m-420 -57 c3 -15 21 -50 39 -77
61 -91 184 -143 315 -132 51 4 63 2 63 -10 0 -31 32 -81 64 -98 43 -23 122
-17 164 13 36 26 92 40 92 23 0 -23 -40 -89 -66 -110 -15 -12 -45 -26 -67 -32
-46 -12 -77 -3 -251 71 -116 49 -240 68 -344 53 -56 -9 -62 -8 -56 6 16 35 16
215 1 259 -15 42 -14 44 6 52 33 13 34 12 40 -18z m718 -85 c-8 -8 -11 1 -11
29 0 53 14 67 18 19 2 -21 -1 -42 -7 -48z m515 58 c45 -8 122 -17 173 -21 l91
-7 0 -50 c0 -58 -29 -128 -63 -150 -39 -25 -98 -29 -176 -12 l-73 17 23 24
c14 15 23 40 26 71 6 67 -21 109 -82 125 -25 7 -45 16 -45 21 0 5 10 7 23 3
12 -3 59 -13 103 -21z m-342 -10 c33 -31 36 -94 5 -144 -11 -18 -18 -36 -15
-38 8 -9 46 60 52 97 5 25 2 44 -14 73 l-21 39 62 -7 c152 -15 211 -28 234
-51 42 -43 42 -100 0 -150 l-24 -27 -89 12 c-99 15 -176 10 -301 -16 -46 -9
-85 -14 -88 -11 -3 3 -1 17 5 32 5 15 10 47 10 70 0 26 6 48 14 55 8 7 17 30
21 52 l7 39 57 0 c48 0 63 -4 85 -25z m791 -127 c31 -14 77 -86 101 -158 26
-81 25 -200 -2 -237 -43 -57 -103 -32 -142 58 l-19 45 27 -4 c20 -3 32 2 44
19 20 30 20 51 -3 121 -27 79 -38 96 -73 118 l-30 18 28 16 c35 19 37 19 69 4z
m115 -126 c49 -116 51 -244 4 -282 -11 -10 -11 -5 2 26 32 76 -2 262 -61 340
-32 42 -32 58 0 19 14 -16 39 -63 55 -103z m-948 -22 c35 -93 15 -186 -50
-224 -65 -37 -142 -19 -217 52 l-39 37 39 6 c78 11 144 66 161 134 9 37 21 46
59 43 25 -3 32 -10 47 -48z m511 23 c31 3 57 3 57 1 0 -9 -78 -42 -105 -44
-79 -5 -107 6 -119 47 -7 21 -7 21 51 6 36 -9 80 -13 116 -10z m108 -13 c25
-14 49 -62 49 -99 0 -27 -7 -34 -72 -71 -40 -22 -85 -40 -99 -40 -49 0 -93 52
-123 146 -6 19 -2 20 63 20 59 -1 74 3 107 27 43 30 47 31 75 17z m224 -70 c8
-26 -2 -58 -23 -69 -19 -10 -82 11 -82 28 0 8 77 60 92 61 4 0 10 -9 13 -20z"/>
<path d="M1488 1855 c-3 -4 -4 -22 -1 -40 7 -42 -4 -77 -17 -56 -5 8 -4 25 1
39 5 14 7 27 5 30 -5 5 -26 -42 -26 -57 0 -5 6 -14 14 -20 22 -18 38 11 34 64
-2 26 -6 44 -10 40z"/>
<path d="M2212 1522 c-23 -53 -22 -72 3 -72 18 0 27 35 23 86 l-3 39 -23 -53z"/>
<path d="M2613 1815 c-18 -8 -33 -18 -33 -23 0 -13 128 -14 136 -1 17 29 -55
46 -103 24z m78 -5 c5 0 9 -4 9 -10 0 -11 -40 -13 -66 -3 -16 6 -16 7 2 14 10
4 25 6 32 3 8 -2 18 -4 23 -4z"/>
<path d="M2613 1489 c-18 -5 -33 -13 -33 -17 0 -10 187 -55 200 -47 5 3 10 15
10 26 0 40 -99 61 -177 38z m132 -13 c34 -15 44 -29 26 -40 -5 -3 -30 1 -57 8
-27 8 -62 17 -79 21 l-30 8 25 7 c40 13 78 11 115 -4z"/>
</g>
</svg>
