<?xml version="1.0" standalone="no"?>
<!DOCTYPE svg PUBLIC "-//W3C//DTD SVG 20010904//EN"
 "http://www.w3.org/TR/2001/REC-SVG-20010904/DTD/svg10.dtd">
<svg version="1.0" xmlns="http://www.w3.org/2000/svg"
 width="228.000000pt" height="221.000000pt" viewBox="0 0 228.000000 221.000000"
 preserveAspectRatio="xMidYMid meet">
<metadata>
Created by potrace 1.10, written by Peter Selinger 2001-2011
</metadata>
<g transform="translate(0.000000,221.000000) scale(0.100000,-0.100000)"
fill="#000000" stroke="none">
<path d="M1033 2195 c-115 -31 -252 -117 -290 -182 -21 -36 -27 -63 -31 -125
l-5 -78 -36 7 c-20 5 -97 8 -171 7 -116 0 -143 -3 -192 -23 -90 -35 -147 -80
-182 -141 -26 -47 -30 -64 -30 -125 0 -39 6 -80 13 -92 10 -20 6 -28 -38 -77
-37 -40 -51 -66 -59 -102 -22 -107 8 -257 64 -323 29 -35 80 -56 156 -65 32
-4 58 -11 58 -16 0 -5 -22 -38 -49 -73 -27 -35 -61 -88 -77 -118 -60 -116 -26
-271 75 -344 52 -38 153 -70 200 -63 27 4 32 1 37 -21 35 -157 99 -218 242
-228 173 -12 313 70 388 227 15 32 31 57 36 54 4 -3 41 -47 82 -98 116 -144
196 -188 346 -190 147 -2 220 46 300 197 25 48 42 68 60 72 107 26 200 178
200 326 0 71 -18 118 -65 170 -19 22 -35 43 -35 48 0 5 33 24 73 43 67 32 75
39 104 94 45 85 63 156 63 248 0 99 -21 151 -76 192 -57 41 -64 52 -53 81 5
13 9 41 9 62 0 68 -103 200 -192 247 -26 15 -54 18 -139 16 l-106 -2 -5 67
c-9 117 -78 218 -203 298 l-50 32 -120 -6 c-83 -4 -131 -2 -155 6 -45 16 -83
15 -147 -2z m138 -47 c18 -6 46 -6 85 1 84 16 161 13 202 -6 53 -25 154 -125
186 -182 25 -47 27 -56 20 -123 -7 -70 -9 -73 -58 -122 -28 -28 -73 -89 -100
-136 -74 -129 -108 -181 -114 -176 -3 3 -4 42 -3 86 2 80 2 80 -23 80 -19 0
-30 -9 -42 -32 -9 -18 -18 -35 -20 -37 -9 -10 -34 24 -40 55 -8 44 -26 59 -53
44 -28 -14 -35 -49 -27 -132 l6 -70 -27 20 c-16 10 -35 21 -44 25 -9 3 -20 22
-23 44 -9 49 -32 83 -54 83 -48 0 -54 -55 -18 -151 25 -70 39 -139 27 -139 -4
0 -43 75 -87 167 -78 166 -154 288 -195 317 -20 14 -21 20 -15 98 11 130 14
135 119 205 147 99 208 115 298 81z m-490 -379 c61 -27 138 -107 179 -188 33
-66 110 -241 110 -250 0 -3 -26 20 -57 50 -81 78 -119 102 -148 95 -22 -6 -23
-9 -14 -34 5 -15 44 -59 87 -99 42 -39 74 -74 70 -78 -3 -3 -41 12 -83 34 -89
48 -111 50 -127 16 -12 -28 0 -50 33 -60 12 -4 19 -16 19 -30 0 -13 10 -31 22
-39 22 -15 21 -16 -25 -16 -90 0 -116 -40 -52 -80 19 -12 40 -31 46 -42 9 -17
19 -19 80 -16 38 2 69 0 69 -4 0 -14 -44 -20 -95 -13 -61 7 -85 -8 -85 -54 0
-26 -2 -27 -58 -29 -33 -1 -90 -6 -128 -11 -126 -15 -291 -14 -343 4 -95 31
-133 110 -126 264 5 92 5 94 44 136 62 67 65 77 46 151 -19 75 -13 123 21 177
49 75 138 120 269 135 104 11 190 5 246 -19z m1268 -28 c46 -24 149 -135 158
-170 3 -14 2 -52 -4 -84 l-10 -60 35 -31 c76 -68 90 -87 102 -137 21 -87 -5
-197 -70 -298 -39 -61 -86 -83 -190 -86 -101 -4 -197 15 -385 75 -87 27 -167
48 -177 44 -23 -7 -24 12 0 21 9 3 64 9 121 11 100 5 137 14 153 38 12 18 9
25 -13 37 -17 9 -39 7 -101 -6 -44 -9 -82 -14 -86 -11 -11 11 14 27 63 39 46
11 52 16 86 77 40 67 38 80 -9 80 -12 0 -45 -12 -73 -26 -28 -14 -53 -23 -55
-21 -3 2 14 24 36 48 76 83 87 129 31 129 -24 0 -34 -7 -46 -29 -11 -22 -20
-28 -36 -24 -17 5 -35 -10 -90 -68 -38 -41 -65 -77 -60 -82 5 -5 4 -21 -2 -37
-19 -51 24 -77 71 -44 35 24 57 15 57 -25 0 -28 -5 -36 -36 -52 -69 -35 -60
-67 27 -95 64 -20 72 -29 49 -54 -11 -12 -14 -26 -10 -39 10 -31 -2 -57 -36
-79 l-30 -19 -35 34 c-37 34 -62 40 -95 23 -16 -9 -25 -5 -53 26 -22 24 -39
35 -50 31 -34 -13 -24 14 20 49 39 32 45 42 42 70 -2 26 4 37 25 54 27 21 36
53 18 65 -6 3 -10 28 -9 55 0 39 3 50 16 51 20 0 75 74 196 263 50 78 116 166
147 196 48 47 67 59 120 72 75 20 134 16 188 -11z m-699 -252 c0 -14 -6 -32
-14 -38 -11 -9 -15 -3 -20 34 -4 25 -4 50 0 56 10 17 34 -19 34 -52z m-180
-19 c5 -19 10 -45 10 -58 0 -12 9 -41 21 -64 13 -25 18 -49 15 -64 -7 -26 -26
-33 -26 -10 0 8 -11 52 -25 99 -13 47 -27 105 -30 129 -6 40 -5 42 9 23 9 -10
21 -35 26 -55z m293 -20 c-6 -41 -34 -119 -44 -125 -12 -8 -12 -8 6 72 28 127
26 121 35 98 4 -11 6 -31 3 -45z m-69 -34 c-7 -30 -16 -33 -34 -11 -10 13 -9
19 5 35 23 25 38 12 29 -24z m-377 -75 c24 -29 41 -56 39 -59 -3 -3 -25 13
-49 34 -24 21 -60 53 -80 71 -20 17 -37 36 -37 43 0 23 83 -36 127 -89z m333
18 c0 -4 -5 -20 -11 -36 -9 -25 -11 -26 -21 -10 -5 11 -7 35 -3 55 6 35 8 36
21 17 8 -10 14 -22 14 -26z m-80 -3 c0 -6 6 -23 14 -37 36 -69 27 -109 -23
-109 -15 0 -32 -5 -37 -10 -8 -8 -19 -7 -38 1 -24 11 -30 10 -53 -14 -23 -23
-25 -29 -15 -51 6 -14 9 -32 6 -40 -3 -8 1 -27 9 -42 11 -21 12 -34 3 -55 -10
-27 -7 -32 39 -79 42 -42 47 -52 39 -71 -13 -29 -54 -34 -54 -7 0 30 -19 58
-38 58 -10 0 -33 -16 -52 -35 -26 -26 -37 -32 -47 -24 -18 15 -17 54 2 69 20
17 19 40 -4 69 -10 14 -17 31 -14 38 8 20 -15 42 -53 49 -34 6 -34 7 -19 31
15 22 14 26 -4 50 -25 31 -19 43 19 43 19 0 36 10 53 30 14 17 30 30 35 30 5
0 19 11 32 25 21 23 25 24 41 10 14 -13 87 -55 96 -55 1 0 11 10 23 22 22 24
26 68 10 99 -14 25 -3 44 16 28 8 -6 14 -17 14 -23z m390 15 c0 -18 -47 -77
-79 -98 -58 -39 -57 -25 5 41 58 62 74 75 74 57z m-757 -85 c42 -18 85 -58 68
-64 -20 -7 -96 27 -121 53 l-23 25 22 0 c12 0 36 -6 54 -14z m471 -18 c5 -24
3 -28 -14 -28 -22 0 -27 29 -8 48 14 14 13 14 22 -20z m325 -44 c-30 -33 -95
-64 -134 -63 -29 0 -29 0 -10 16 26 20 159 83 164 77 3 -2 -6 -16 -20 -30z
m-165 3 c15 -23 0 -32 -29 -17 -19 10 -22 16 -13 27 13 16 28 13 42 -10z
m-184 -46 c0 -20 -25 -51 -41 -51 -13 0 -11 44 3 58 18 18 38 14 38 -7z m-80
-52 c0 -30 -3 -37 -15 -33 -19 8 -27 36 -19 68 9 39 34 14 34 -35z m240 52 c0
-13 -41 -41 -60 -41 -10 1 -4 9 15 25 32 26 45 31 45 16z m-322 -13 c20 -20
14 -38 -12 -38 -24 0 -41 23 -30 41 7 13 28 11 42 -3z m-271 -42 c13 -13 -21
-26 -52 -20 -54 10 -65 15 -59 26 7 11 99 6 111 -6z m453 -31 c0 -18 -46 -42
-58 -31 -7 8 33 46 49 46 5 0 9 -7 9 -15z m-174 -6 c12 -19 -12 -32 -36 -19
-18 10 -20 14 -9 21 19 12 36 11 45 -2z m554 -18 c0 -15 -28 -21 -91 -21 -35
0 -59 4 -59 11 0 6 8 8 19 4 10 -3 29 -1 42 4 31 12 89 14 89 2z m-537 -73
c-20 -34 -53 -50 -53 -26 0 20 38 58 56 58 14 0 13 -5 -3 -32z m97 6 c14 -35
13 -44 -5 -44 -16 0 -35 30 -35 54 0 26 30 18 40 -10z m-345 -23 c-6 -5 -26
-10 -45 -11 -52 -3 -62 -1 -55 10 3 6 29 10 58 10 31 0 47 -4 42 -9z m283 -52
c-4 -28 -28 -38 -28 -11 0 11 3 28 6 37 9 23 27 3 22 -26z m-238 12 c-9 -18
-27 -26 -150 -68 -57 -19 -73 -41 -50 -68 19 -23 55 -18 120 15 33 17 60 27
60 23 0 -4 -22 -30 -50 -58 -48 -48 -49 -52 -34 -73 8 -12 24 -22 35 -22 27 0
101 71 149 142 29 45 40 55 40 38 0 -26 -10 -46 -67 -132 -46 -69 -51 -93 -21
-112 14 -8 24 -4 52 23 24 24 40 32 53 27 13 -5 26 2 46 26 17 20 25 25 21 13
-5 -11 -9 -103 -9 -205 0 -179 -1 -187 -27 -242 -31 -67 -96 -140 -154 -174
-52 -31 -165 -55 -220 -47 -92 12 -164 84 -200 197 l-17 53 -51 0 c-102 1
-208 72 -237 161 -6 20 -9 66 -7 107 6 89 38 153 123 240 l60 62 90 7 c118 9
240 30 345 60 110 31 113 31 100 7z m756 -51 c40 -12 126 -32 191 -45 107 -22
120 -28 146 -57 90 -108 109 -170 82 -272 -9 -33 -25 -74 -36 -92 -26 -43 -85
-94 -108 -94 -48 0 -77 -20 -88 -63 -24 -88 -102 -170 -193 -202 -60 -21 -169
-19 -230 4 -69 26 -120 69 -188 160 -52 69 -61 88 -87 186 -36 136 -38 206 -8
236 l21 22 28 -22 c29 -23 69 -28 80 -10 3 6 -2 38 -11 70 -10 33 -16 62 -12
65 11 11 46 -16 78 -60 33 -46 77 -73 105 -62 11 4 15 17 13 46 -4 48 10 67
39 51 11 -6 25 -11 30 -11 19 0 22 31 7 61 l-16 29 43 -2 c37 -3 43 0 44 17 0
11 -5 30 -13 43 -17 28 -11 28 83 2z m-798 -12 c-6 -17 -116 -73 -125 -65 -12
12 38 55 76 65 50 14 53 14 49 0z m680 0 c30 -30 5 -37 -29 -8 -23 19 -23 19
-3 20 11 0 25 -5 32 -12z m-334 -60 c21 -76 29 -158 16 -158 -6 0 -14 10 -19
23 -11 27 -25 187 -17 187 3 0 12 -24 20 -52z m-50 10 c3 -13 6 -45 6 -72 0
-42 -2 -47 -15 -36 -10 8 -15 31 -15 71 0 59 12 78 24 37z m-273 -80 c-31 -28
-61 -37 -61 -19 0 5 19 26 43 46 35 31 43 34 46 19 2 -11 -10 -30 -28 -46z
m195 15 c-4 -15 -16 -39 -27 -53 l-21 -25 6 25 c2 14 11 42 18 62 14 42 33 35
24 -9z m284 -6 c22 -30 40 -57 40 -61 0 -3 -13 0 -30 9 -24 13 -70 78 -70 100
0 18 25 -2 60 -48z m-347 -26 c-7 -20 -54 -71 -65 -71 -11 0 8 45 34 80 22 30
42 24 31 -9z"/>
</g>
</svg>
