<svg version="1.1" id="Layer_1" xmlns="http://www.w3.org/2000/svg" xmlns:xlink="http://www.w3.org/1999/xlink" x="0px" y="0px"
	 width="100%" viewBox="0 0 1008 1024" enable-background="new 0 0 1008 1024" xml:space="preserve">
<path fill="#dadada" pacity="1.000000" stroke="none" 

	d="
M950.253052,508.274109 
	C923.420166,532.900940 891.453918,548.293518 859.070679,562.962341 
	C842.377075,570.524048 825.279968,577.099487 808.047974,583.327087 
	C806.677307,583.822510 805.112854,584.018005 803.854065,585.651978 
	C805.440552,590.457886 807.242859,595.431580 808.728333,600.498291 
	C816.917419,628.429810 817.419983,656.548279 810.517212,684.804626 
	C806.261414,702.225708 805.180176,719.669556 810.454590,737.060486 
	C818.468201,763.483459 841.747437,779.498779 869.233765,777.693970 
	C881.349060,776.898499 890.255127,770.695190 893.007812,761.161072 
	C894.901306,754.603027 892.555603,748.699890 890.201416,742.800598 
	C889.537659,741.137085 888.199951,739.697388 888.526733,737.496826 
	C891.275818,736.046082 892.802551,738.200989 894.399170,739.639526 
	C909.691223,753.416931 912.660461,772.481567 902.606506,791.935852 
	C889.295776,817.691895 865.951477,829.265564 836.954773,824.499207 
	C836.661011,824.450989 836.334351,824.603027 835.128784,824.829590 
	C841.673035,826.565735 847.406189,828.162292 853.184082,829.575928 
	C855.043274,830.030762 856.709412,830.584106 857.799866,832.225159 
	C870.452942,851.267334 877.506348,871.628052 870.841431,894.558228 
	C866.247009,910.364746 854.716797,920.223938 840.263672,926.970642 
	C831.299438,931.155212 821.724426,933.372498 812.030640,935.089661 
	C810.743896,935.317627 809.378601,935.532288 808.220520,934.396301 
	C807.629089,931.852539 809.963745,931.536743 811.319214,930.596619 
	C820.106750,924.502136 828.847717,918.309387 834.794434,909.176392 
	C844.727905,893.920715 835.557068,875.862915 817.252075,874.258972 
	C807.269226,873.384155 797.725891,875.497864 788.225281,878.122803 
	C771.868774,882.641907 756.024902,888.824890 739.382751,892.474854 
	C710.085388,898.900330 686.703430,889.480042 667.826904,866.996399 
	C652.321472,848.528137 644.019897,826.760742 638.668213,803.620056 
	C635.024109,787.862915 633.459717,771.817017 631.866760,755.771545 
	C631.786438,754.963501 631.591309,754.166870 631.392456,753.041077 
	C628.519714,753.646851 626.466858,755.367981 624.320190,756.791260 
	C603.186646,770.802490 581.457214,783.748291 558.299011,794.189270 
	C551.721619,797.154785 544.894958,799.338440 537.768799,800.176086 
	C533.217896,800.711060 532.012390,802.195007 532.771301,806.921021 
	C535.377563,823.152588 535.736267,839.441223 530.930115,855.399048 
	C523.998535,878.414001 507.929810,890.289795 484.482391,893.333923 
	C460.417267,896.458252 437.729797,892.658936 416.443298,880.885925 
	C415.716522,880.484070 414.951172,880.141846 414.176910,879.841064 
	C413.894501,879.731384 413.533661,879.823425 413.100983,879.823425 
	C411.345367,881.044739 411.272614,883.213318 410.621582,885.024841 
	C402.740723,906.954407 393.032562,927.922485 377.539764,945.642151 
	C364.773773,960.243347 349.547913,971.309204 330.242584,975.623047 
	C317.637054,978.439819 305.431122,976.048584 293.513733,971.749451 
	C277.139404,965.842346 262.256226,956.854919 246.827133,949.001099 
	C238.043839,944.530151 229.196991,940.315796 219.344193,938.725647 
	C214.658035,937.969360 210.074493,938.123718 205.565735,939.758972 
	C192.064926,944.655334 186.821472,956.775330 192.579514,969.908203 
	C196.895767,979.752625 204.285385,987.224548 211.718719,994.668091 
	C212.944443,995.895447 214.876816,996.687439 214.776489,998.808533 
	C214.161728,1000.065796 213.199097,1000.107788 212.182175,999.765625 
	C196.508270,994.492615 181.776016,987.569275 171.119904,974.328674 
	C158.191025,958.263916 155.902130,940.412048 163.271866,921.288940 
	C167.504166,910.306763 173.496460,900.374756 181.544357,891.710754 
	C183.957153,889.113220 186.666199,887.775574 190.291199,887.702942 
	C195.436234,887.599731 200.572052,887.037720 205.725922,886.534790 
	C188.490860,885.510315 172.872742,880.479797 161.248764,867.115356 
	C148.813095,852.817688 141.871017,836.414673 145.745117,817.019653 
	C148.171143,804.874207 156.303665,796.924805 166.639923,790.954041 
	C167.701584,790.340759 168.988220,789.491333 170.371033,790.678650 
	C171.396973,792.639709 169.725525,793.698792 168.793945,794.940979 
	C165.961563,798.717834 163.730240,802.838074 162.558685,807.379333 
	C160.252777,816.317566 163.986176,824.693115 172.669724,829.809509 
	C185.197388,837.190918 198.688263,837.803833 212.270279,833.875427 
	C236.487366,826.871155 248.618454,808.879883 254.591583,785.682495 
	C256.853485,776.898010 257.411224,767.911804 256.903839,758.913513 
	C255.548904,734.884277 257.960175,711.384644 266.084229,688.611633 
	C266.524628,687.377075 267.205566,686.175598 266.492828,684.572632 
	C257.918121,682.971497 249.067932,683.188171 240.316605,682.360840 
	C194.127060,677.994080 148.464111,671.148621 105.289238,653.062317 
	C85.955383,644.963318 68.129890,634.415955 53.184155,619.327148 
	C35.107666,601.077698 26.794420,578.854370 25.735430,553.654663 
	C24.190374,516.888672 37.584496,484.869354 58.077541,455.370178 
	C83.793053,418.353363 117.174995,389.113312 153.299530,362.751801 
	C159.220840,358.430786 165.220963,354.205933 171.343262,350.177673 
	C174.035156,348.406525 174.972153,346.324097 174.966125,343.152374 
	C174.948013,333.595795 176.338074,324.187897 180.018219,315.333527 
	C181.440155,311.912384 180.942932,309.631073 178.767807,306.806396 
	C166.001022,290.226929 154.945618,272.627533 148.136963,252.678360 
	C141.386749,232.900482 139.431519,212.910538 147.895523,193.195694 
	C153.726074,179.614822 162.945160,168.066711 172.486115,156.903198 
	C198.679214,126.255722 230.567245,102.640549 265.120300,82.352554 
	C307.182404,57.655613 352.192932,40.825790 400.163239,32.062981 
	C430.742523,26.477007 461.583130,25.141037 492.645447,26.420113 
	C515.968323,27.380491 539.107300,29.490932 562.057373,33.673561 
	C601.221497,40.811184 638.745361,52.370754 671.815613,75.443420 
	C693.442078,90.531982 710.905640,109.180702 719.832520,134.597595 
	C725.398499,150.445023 726.805237,166.741730 723.774841,183.296066 
	C723.218933,186.332993 723.905151,188.284073 726.113770,190.298798 
	C740.473328,203.397812 744.223083,219.561264 739.631897,238.060913 
	C737.958862,244.802368 737.961243,244.860062 744.859009,246.500870 
	C784.356873,255.896454 822.709229,268.591888 859.001282,286.950958 
	C891.905762,303.596313 922.602173,323.443665 947.646362,350.998444 
	C964.241638,369.257324 977.371399,389.540497 982.371643,414.142761 
	C988.735596,445.454407 980.973083,473.180969 960.361267,497.411194 
	C957.236084,501.085052 953.803040,504.497040 950.253052,508.274109 
M601.203064,423.796387 
	C602.235168,427.179077 602.415344,430.655853 602.334839,434.159149 
	C602.295044,435.890991 603.108032,437.014282 604.747131,437.493195 
	C606.798279,438.092529 608.245605,437.067780 609.561890,435.648682 
	C610.961792,434.139404 610.119141,432.945801 609.129395,431.718658 
	C606.626282,428.615173 604.119019,425.517456 600.743408,422.344421 
	C599.331177,419.995667 597.778320,417.907135 594.576721,418.094177 
	C581.499084,418.858124 569.271606,422.814514 557.190125,428.134277 
	C567.023071,430.490082 576.298523,434.451813 586.356506,435.686066 
	C592.670837,436.460907 595.893066,433.325317 598.054749,428.035278 
	C598.789246,426.237732 599.109192,424.114960 601.203064,423.796387 
M771.057495,492.032501 
	C768.838257,496.707031 772.398926,499.269989 774.633301,502.523529 
	C788.259644,522.365662 793.721008,544.374451 791.576233,568.303772 
	C791.239868,572.056946 790.765015,575.797668 790.370361,579.396545 
	C792.064819,580.367981 793.356018,579.764160 794.558044,579.352783 
	C832.426880,566.392090 869.662170,551.894165 904.887695,532.715454 
	C922.367737,523.198303 938.716614,512.013855 952.567993,497.529785 
	C980.752075,468.058350 987.149536,427.793579 969.267700,391.864990 
	C959.988464,373.221039 946.496887,357.874237 930.990295,344.231140 
	C900.686768,317.569336 865.600159,299.071106 828.248474,284.525574 
	C766.087463,260.318756 701.170166,249.183304 634.997009,244.462082 
	C606.908508,242.458069 578.749329,242.644669 550.596313,244.101044 
	C518.307007,245.771408 486.271057,249.549210 454.550079,255.624084 
	C371.677185,271.495056 293.019806,299.319397 219.134552,340.200684 
	C170.035294,367.367676 124.176498,398.895172 87.117485,441.741119 
	C64.483826,467.909088 47.262978,497.083221 38.651028,530.916260 
	C32.823719,553.809509 33.227352,576.017883 45.162022,597.197144 
	C53.675323,612.304810 74.521164,631.141418 88.845016,636.055603 
	C82.645615,630.946411 77.341034,625.442871 72.510239,619.493286 
	C61.321140,605.712830 54.920856,590.009644 55.112644,572.182556 
	C55.288315,555.853638 60.733425,540.870239 68.653206,526.710327 
	C80.509125,505.512787 96.458580,487.616577 114.185501,471.338165 
	C159.853241,429.402130 211.985718,397.096008 267.343994,369.711731 
	C268.370789,369.203857 269.491089,367.959167 271.001434,369.266541 
	C270.372223,370.852814 268.842407,371.304443 267.587860,371.979858 
	C247.479187,382.805756 227.920502,394.564087 208.701416,406.882782 
	C172.854965,429.859009 138.531845,454.826538 108.604286,485.329865 
	C92.662727,501.578156 78.351562,519.131836 69.227821,540.280396 
	C60.957363,559.451050 57.600292,579.259094 67.167953,598.728088 
	C81.516647,627.925964 105.011528,646.862183 136.360001,655.549866 
	C184.496445,668.890137 233.819672,673.143127 283.550018,673.916504 
	C284.640991,673.933533 285.923889,674.290161 286.943359,672.718140 
	C284.243866,666.013977 281.071411,659.229797 278.795380,652.157166 
	C276.754456,645.815063 273.002136,641.362732 267.833588,637.297974 
	C229.663147,607.279663 202.239502,569.064331 182.970261,524.763184 
	C180.758087,519.677246 179.051590,514.371338 176.885864,508.564758 
	C165.970337,527.346619 159.018433,546.919006 153.632370,567.899719 
	C152.305252,565.537964 152.614273,564.019104 152.858719,562.584473 
	C155.583908,546.588806 160.243378,531.192566 167.225250,516.519104 
	C186.408569,476.202301 215.647217,444.251343 250.198853,416.710785 
	C260.645966,408.383514 271.689056,400.861267 282.383179,392.835693 
	C254.223145,405.937592 227.568268,421.565094 202.455475,439.798279 
	C177.477554,457.933563 154.217667,477.918549 135.476959,504.432312 
	C135.331146,501.197296 136.246429,500.155548 136.935684,499.043945 
	C143.903976,487.805298 152.272858,477.654724 161.436935,468.177582 
	C190.914673,437.692749 225.242935,413.687256 262.470764,393.785889 
	C323.187195,361.327881 388.365173,340.363861 454.012115,320.847992 
	C495.917419,308.390106 538.747681,300.589661 582.560120,299.003601 
	C614.131592,297.860687 645.460022,300.106140 676.367554,306.746033 
	C737.781433,319.939789 790.445923,347.872345 829.260254,398.671753 
	C842.351562,415.805328 852.475952,434.424408 855.865845,456.072540 
	C856.898438,462.666718 857.429199,469.345825 854.510559,475.697937 
	C853.848938,477.138031 853.160400,479.300995 851.118774,478.630493 
	C848.842285,477.882782 849.936829,475.895538 850.524048,474.398804 
	C852.297363,469.878479 852.160889,465.176025 851.351990,460.596130 
	C849.219116,448.520599 844.997070,437.144348 838.688782,426.617035 
	C822.200195,399.101044 799.844421,377.245575 773.386658,359.412537 
	C763.069885,352.458832 752.327576,346.247894 740.786438,341.150085 
	C740.704346,341.874786 740.552002,342.228271 740.654846,342.475647 
	C741.229797,343.858124 741.861023,345.217407 742.482788,346.580231 
	C763.439270,392.518402 776.812195,439.961914 771.057495,492.032501 
M287.372864,515.213440 
	C289.342377,516.092346 291.314514,516.965454 293.280701,517.851746 
	C295.149506,518.694153 296.795532,518.539612 298.264282,516.960754 
	C299.849945,515.256165 298.440765,513.905151 297.865051,512.430786 
	C296.886078,509.923889 295.118011,507.566803 296.086914,504.015045 
	C297.659180,505.252869 298.740326,506.241089 299.951324,507.029907 
	C302.773407,508.868134 305.183411,511.871246 309.294891,509.714325 
	C325.123322,501.410767 341.988739,502.942383 358.667328,505.389404 
	C375.330353,507.834106 386.369415,518.877502 395.878235,531.886902 
	C408.799438,549.564941 413.756500,569.891968 416.227234,591.116455 
	C416.584351,594.183838 415.537445,596.580811 413.188354,598.611145 
	C408.194489,602.927246 402.428284,605.857727 396.370300,608.279541 
	C383.766754,613.318176 370.537567,616.043213 357.199677,617.950317 
	C350.392731,618.923584 347.224426,623.188965 344.280121,628.353577 
	C343.588226,629.567261 343.959991,631.374023 342.069916,632.161438 
	C339.504211,628.499817 341.452972,624.016541 339.944458,620.203796 
	C330.981842,622.199341 323.961853,627.739563 315.939667,633.466370 
	C316.863831,625.763794 320.968597,621.196960 325.461029,615.640869 
	C315.522797,614.980286 307.118744,618.206360 297.940735,620.037598 
	C300.591064,613.468384 306.599731,611.758240 311.266815,608.122498 
	C296.665894,595.044556 289.417542,578.073120 283.814606,560.338196 
	C282.006531,554.615173 277.666046,556.117493 274.215271,555.579224 
	C270.156708,554.946289 270.838531,558.991211 270.432587,561.265686 
	C269.411682,566.985474 269.250244,572.877319 267.987152,578.531006 
	C266.100739,586.974487 265.446106,594.953613 269.620087,603.125916 
	C272.857117,609.463684 274.965485,616.396790 277.365112,623.140076 
	C285.575043,646.210999 293.555359,669.327576 307.547791,689.833435 
	C327.493561,719.063904 352.004700,742.827637 385.010864,756.944336 
	C419.243774,771.585632 454.563446,782.767273 490.881470,790.908081 
	C518.137878,797.017639 544.008118,793.907349 568.782959,780.658813 
	C599.286072,764.346985 628.047913,745.444336 655.322937,724.215820 
	C682.608215,702.979370 699.700928,674.988281 709.795593,642.326294 
	C710.486816,640.089966 711.167114,637.948547 710.392090,635.518188 
	C705.765381,621.009827 705.892578,606.100525 706.444763,591.091370 
	C706.819458,580.905334 709.831055,571.128174 710.220093,560.936462 
	C710.523254,552.993225 710.698669,544.642639 713.240967,537.269592 
	C718.836548,521.041443 713.972534,507.372406 705.532349,494.010223 
	C704.998474,493.165009 704.509705,492.290680 703.961487,491.455170 
	C689.244446,469.024017 674.456970,446.637482 658.065857,425.374054 
	C651.166504,416.423920 644.079163,407.608948 635.173706,398.763763 
	C641.185974,414.269867 643.764404,429.615417 650.018066,443.669128 
	C655.164185,442.715546 657.234131,438.201019 661.809265,435.835571 
	C661.531372,442.609711 658.940247,447.650513 655.880554,452.543579 
	C654.843872,454.201385 653.479065,455.610840 653.548096,457.894775 
	C653.731201,463.953186 653.201782,464.237396 647.666443,461.806091 
	C645.609924,463.215790 643.696899,464.938293 641.463440,465.962097 
	C638.074097,467.515808 637.780212,469.697906 638.340820,473.118073 
	C640.337830,485.302368 641.024536,497.539612 639.554504,509.906097 
	C638.668701,517.358093 636.402588,524.420959 634.322632,531.948669 
	C640.369446,533.435913 646.879028,532.365906 652.549744,537.508850 
	C642.314819,539.539490 632.715820,540.930115 623.092468,546.246521 
	C630.613159,549.054199 636.954590,551.654480 641.373596,559.111938 
	C630.757935,556.531860 621.370483,555.334778 611.607117,556.835510 
	C612.737793,561.761047 615.980469,565.553589 615.241760,570.401367 
	C614.678833,570.331665 614.464722,570.371094 614.373657,570.283142 
	C613.779785,569.709167 613.236816,569.081665 612.632751,568.519287 
	C607.124512,563.390686 601.278381,560.411011 593.292725,563.109009 
	C584.480530,566.086243 575.399109,568.325378 566.198059,569.869690 
	C554.355591,571.857361 542.483948,573.558594 530.576599,570.231506 
	C527.971863,569.503662 525.584290,568.671204 524.500488,565.695251 
	C516.057983,542.513611 511.788177,518.992371 516.682068,494.255280 
	C520.277588,476.081329 528.197998,461.025360 544.116821,450.820892 
	C544.560181,450.536682 544.811523,450.139069 544.506592,449.803558 
	C538.059937,449.109253 531.743896,448.654205 525.509705,447.677155 
	C521.468079,447.043671 518.100525,447.635040 514.683960,449.975800 
	C512.149475,451.712189 509.921844,454.475159 506.264984,454.455536 
	C505.869354,450.972382 508.801514,448.749634 508.553223,445.542450 
	C507.373718,445.185059 506.284210,444.750641 505.153046,444.527161 
	C448.975861,433.428619 399.096497,409.715515 356.986816,370.489838 
	C354.715729,368.374298 352.667267,367.856232 349.849670,369.270111 
	C345.833618,371.285431 341.755798,373.233765 337.551697,374.801422 
	C333.844543,376.183777 332.235321,378.635864 331.431763,382.403229 
	C324.257935,416.036835 313.771301,448.638580 300.586121,480.388092 
	C300.125641,481.496857 298.920166,482.620697 300.253510,484.381470 
	C308.450500,481.494873 316.800323,478.767731 325.473755,477.186859 
	C345.137268,473.602753 363.607178,476.113098 380.280975,487.788269 
	C382.014862,489.002319 384.457916,489.920563 384.482513,493.179291 
	C376.146484,492.356598 368.092377,491.360443 360.007965,490.803192 
	C339.287170,489.375000 318.723663,489.927765 298.790253,496.733612 
	C292.090210,499.021210 286.846161,506.995544 287.372864,515.213440 
M318.849121,198.254745 
	C411.822174,152.675644 509.913147,139.977142 612.044922,153.614502 
	C613.006042,148.523132 611.806763,144.446762 611.611572,140.378555 
	C610.725098,121.902298 608.509827,103.583496 603.210571,85.791016 
	C599.663147,73.880257 594.580505,62.732792 585.886902,53.510521 
	C582.788147,50.223347 579.246887,48.222458 574.794922,47.383991 
	C544.314575,41.643478 513.586121,38.738472 482.567139,38.138760 
	C445.089996,37.414188 408.137573,40.620926 371.786194,50.161526 
	C322.755280,63.029915 277.659729,84.270348 236.228134,113.354103 
	C210.345718,131.522812 186.540161,152.020111 166.935394,177.024551 
	C152.533020,195.393707 146.286316,215.831055 151.324844,239.201141 
	C156.559982,263.483154 168.088593,284.654999 182.729111,304.360992 
	C182.986237,304.707092 183.532150,304.838654 184.352570,305.300934 
	C188.093216,298.539154 192.231339,292.151215 197.043137,286.210693 
	C214.361359,264.830139 236.377823,248.917603 258.629028,233.301697 
	C262.013733,230.926285 264.584717,228.203751 266.510986,224.559708 
	C278.694885,201.510727 293.000061,179.866745 309.827576,159.924225 
	C326.276459,140.430435 344.403748,122.884094 367.441742,111.215378 
	C377.951080,105.892410 389.006836,102.225998 400.990082,102.847855 
	C405.725128,103.093567 410.669464,103.210007 415.139526,106.115326 
	C414.527893,106.642670 414.395508,106.849808 414.281555,106.840157 
	C413.463135,106.770828 412.630829,106.732903 411.835327,106.546600 
	C402.255096,104.303009 393.030670,105.723045 383.909424,108.992241 
	C368.252502,114.603889 354.828613,123.792435 342.873596,135.083588 
	C316.759186,159.747849 296.556671,189.149216 276.662933,218.766373 
	C276.237061,219.400406 275.629181,220.094650 276.334869,221.535904 
	C290.071289,213.443985 303.789856,205.388260 318.849121,198.254745 
M784.115906,758.222839 
	C775.645996,739.427979 774.749817,719.893311 778.247375,699.933350 
	C779.409851,707.084534 779.355652,714.335144 780.213440,721.533325 
	C781.746948,734.402222 784.675049,746.701782 791.540405,757.913940 
	C803.216553,776.982666 827.880493,784.685669 847.047302,781.671570 
	C831.439636,776.673218 818.818481,768.181702 810.642578,754.085083 
	C799.794128,735.380798 797.646423,715.139465 801.265503,694.217163 
	C803.839966,679.333740 807.756531,664.727295 808.057312,649.438049 
	C808.444763,629.744507 805.968750,610.606628 799.343079,592.047363 
	C798.764648,590.427124 798.483948,587.449829 796.495056,587.901184 
	C792.794556,588.740906 787.911133,588.641296 786.233398,592.908386 
	C780.640991,607.131531 771.026245,618.132568 759.747070,628.058044 
	C747.939697,638.448242 736.208557,648.641418 718.689941,644.617249 
	C717.778564,647.154968 717.027100,649.173096 716.326965,651.208923 
	C711.708679,664.638672 705.812134,677.456299 698.465393,689.633911 
	C685.258057,711.525757 666.442261,727.819824 645.805603,742.172424 
	C641.094238,745.449036 639.742798,749.029724 640.372314,754.249756 
	C642.062805,768.268677 643.388245,782.339783 646.351929,796.172119 
	C651.423767,819.844116 658.976807,842.439087 675.218628,861.144653 
	C690.525269,878.773376 708.906067,888.221130 733.053711,883.892456 
	C747.861145,881.238098 762.091309,876.654907 776.481873,872.567505 
	C790.108521,868.697083 803.681091,864.585938 818.135864,866.709839 
	C829.488708,868.377930 838.075684,874.198669 843.057861,884.530457 
	C848.027161,894.835693 845.042419,904.263123 838.746460,913.078552 
	C834.380920,919.190979 828.459290,923.583801 822.519714,927.998352 
	C829.862488,925.575012 836.828308,922.473999 843.230286,918.244019 
	C858.952698,907.855652 867.794800,893.795898 866.849365,874.350037 
	C866.214844,861.299927 862.236023,849.245422 856.909668,837.483154 
	C855.460632,834.283142 853.364624,832.861450 849.916809,832.025818 
	C826.560791,826.365601 804.436523,817.806763 785.482849,802.552917 
	C762.238403,783.846130 750.283081,759.639221 750.718567,729.598145 
	C750.759216,726.800781 750.759766,723.936157 753.389160,720.587158 
	C753.105164,732.428162 753.845642,743.082764 757.861816,753.062012 
	C772.253662,788.822327 799.309875,809.483459 836.577393,816.565063 
	C866.791077,822.306213 886.252625,808.772705 898.224976,785.331604 
	C904.336853,773.365112 904.685120,761.181824 896.883179,748.831299 
	C899.528931,767.426392 891.662048,779.124390 873.708191,782.514648 
	C865.215454,784.118408 856.994629,786.889099 848.386414,787.884155 
	C822.085754,790.924377 797.805908,783.302917 784.115906,758.222839 
M303.559998,813.071838 
	C304.564941,808.560425 305.569885,804.049072 306.792633,798.559937 
	C307.673920,800.091248 308.073456,800.478333 308.099304,800.888977 
	C308.172119,802.044739 308.195282,803.222839 308.055695,804.370056 
	C304.572388,832.995422 290.572327,855.013977 266.128571,870.218140 
	C243.135788,884.519714 217.395889,889.349976 190.887177,891.114319 
	C187.762497,891.322266 185.701874,892.254883 183.880402,894.853149 
	C177.624420,903.776917 172.423599,913.208130 168.885132,923.539673 
	C165.681351,932.893921 164.765350,942.453674 167.250397,952.029053 
	C171.250198,967.441040 181.642059,977.963806 194.622971,986.305054 
	C194.931076,986.503052 195.516235,986.270020 196.089264,986.229797 
	C195.826431,983.556030 193.856628,982.097473 192.552414,980.256470 
	C187.234833,972.750000 183.271179,964.655151 184.284012,955.219421 
	C185.495590,943.932068 194.715942,934.756409 207.263321,931.721741 
	C219.085815,928.862427 230.196625,932.158203 240.724960,936.867065 
	C257.290558,944.276123 273.389496,952.723572 289.904175,960.252930 
	C308.957245,968.939575 328.026520,970.302673 346.795288,958.943176 
	C356.004700,953.369202 364.293243,946.786743 371.289520,938.602539 
	C386.718140,920.553894 396.252625,899.386780 403.911133,877.197266 
	C404.917694,874.281067 404.168457,872.609009 401.908203,870.813049 
	C398.671967,868.241699 395.313202,865.662781 392.767303,861.295898 
	C398.761902,860.865784 403.188904,865.427612 408.330688,863.151245 
	C407.988647,860.865784 406.420624,860.786987 405.242676,860.519470 
	C399.025604,859.107361 393.306030,856.368835 387.415802,854.074524 
	C384.009857,852.747864 380.583649,851.132385 377.026489,850.620605 
	C372.556061,849.977478 367.393372,848.601990 363.984039,853.044373 
	C360.536865,857.536011 362.519409,862.322144 364.598633,866.731567 
	C365.938080,869.572021 367.690002,872.257568 369.533478,874.813171 
	C374.600677,881.837952 381.365326,886.919800 388.777985,891.241089 
	C390.333984,892.148071 392.791107,892.494019 392.233032,895.307312 
	C370.340546,894.162476 344.388397,874.663147 347.012512,844.311584 
	C344.158905,847.746155 346.190338,852.432739 343.542755,855.656250 
	C341.046814,853.442322 340.950745,853.463562 340.373474,850.855042 
	C338.330811,841.624573 340.240295,832.993225 344.638733,824.828186 
	C353.742981,807.927612 367.981628,796.369568 384.417023,787.274048 
	C391.926636,783.118225 399.765930,779.558105 408.125671,775.394104 
	C403.352081,773.553833 399.211884,771.866821 395.009613,770.351868 
	C355.896759,756.251099 324.621948,731.886230 302.215759,697.018799 
	C296.137817,687.560669 289.681396,683.765991 279.039490,684.738770 
	C275.602417,685.052917 274.074280,685.989380 273.036316,689.133484 
	C270.738617,696.093262 268.871552,703.142700 267.212036,710.280762 
	C263.122864,727.869934 264.118683,745.698364 264.310852,763.497498 
	C264.449402,776.331665 261.966034,788.701538 257.114777,800.506104 
	C248.297028,821.962097 233.098801,836.183105 209.864166,840.844055 
	C207.445572,841.329224 204.965363,841.507263 202.513748,841.827759 
	C205.840439,843.007385 209.059296,843.842041 212.331375,844.262146 
	C236.609879,847.379517 257.252869,840.337769 270.828339,817.070862 
	C277.368134,805.862366 280.693115,793.491333 283.692261,780.997925 
	C284.279053,778.553650 283.720337,775.541626 286.435791,773.464539 
	C287.322479,784.647522 282.690796,805.676270 276.713989,818.200134 
	C264.486603,843.821472 240.484329,855.709839 212.541473,850.640747 
	C198.884140,848.163269 186.750275,841.838074 174.178299,836.701782 
	C159.963623,830.894470 153.543533,814.641785 160.169846,801.946899 
	C160.194916,801.898926 159.816360,801.640320 159.576721,801.438293 
	C152.160049,810.037170 149.112747,819.955750 151.358170,831.086975 
	C155.505234,851.645386 165.871140,867.597656 186.513443,874.748047 
	C206.357071,881.621826 226.088348,878.834106 245.138123,871.576416 
	C272.917084,860.993042 293.798553,843.030273 303.559998,813.071838 
M506.764526,205.385635 
	C481.485046,206.785080 456.230835,208.362061 431.841736,216.496765 
	C432.983154,213.742630 435.357635,213.365967 437.429626,212.616974 
	C458.251251,205.090164 479.882111,201.411545 501.850189,199.843597 
	C532.858826,197.630386 563.768616,199.646332 594.473145,203.985275 
	C638.210449,210.165909 681.150879,219.982697 723.122437,233.890182 
	C726.829346,235.118484 730.433838,236.968414 735.086487,237.115189 
	C735.580200,232.004745 737.018127,227.323837 736.409912,222.221191 
	C734.452271,205.795776 724.741272,195.079468 711.083069,187.229370 
	C699.735840,180.707458 687.447205,176.538040 674.838501,173.274597 
	C636.440125,163.336105 597.167297,160.003983 557.733276,158.467453 
	C518.866089,156.953018 480.254730,159.566010 442.000214,167.148117 
	C357.930084,183.810974 282.898682,219.247177 217.439072,274.676544 
	C204.330612,285.776398 193.464966,298.747162 186.414978,314.602966 
	C182.289932,323.880341 179.622192,333.484222 179.939102,344.238190 
	C181.321152,343.582214 182.251724,343.250244 183.068283,342.736908 
	C202.973297,330.223450 223.555450,318.927032 244.559692,308.379211 
	C246.319687,307.495392 247.957718,306.277222 249.463898,304.993286 
	C268.733704,288.566650 288.019806,272.158447 307.200531,255.628174 
	C331.671753,234.538452 357.834259,215.398666 380.446716,192.160339 
	C381.143127,191.444641 381.800659,190.079559 384.089294,191.387772 
	C354.018311,230.498123 316.117096,261.062592 277.703003,292.538544 
	C424.998047,229.413208 576.153503,210.447586 733.744934,243.496826 
	C731.681946,240.892792 729.532166,240.923050 727.741394,240.439575 
	C700.926208,233.199997 674.055115,226.182053 646.813782,220.685059 
	C600.906128,211.421402 554.724304,204.654312 506.764526,205.385635 
M627.810913,394.604309 
	C619.744751,376.175385 607.084045,360.408234 597.762146,342.601379 
	C603.185364,346.997650 607.646790,352.246643 612.130615,357.486359 
	C605.506287,343.098083 595.053589,331.257721 585.799561,318.339813 
	C588.374939,317.443848 588.977966,318.957825 589.852356,319.803955 
	C605.262878,334.716125 617.526306,352.018829 625.507324,371.795929 
	C630.326477,383.737946 637.486145,393.434052 646.197632,402.414673 
	C647.471863,403.728271 648.613892,405.170441 649.810669,406.558655 
	C670.983521,431.118011 688.479187,458.334778 706.438049,485.203308 
	C712.651428,494.499268 717.608032,504.521881 720.894226,515.287842 
	C721.740234,518.059509 722.649353,520.811890 723.529480,523.573120 
	C727.045959,512.080139 727.836304,500.456085 727.452576,488.904541 
	C726.618774,463.805115 725.580261,438.692352 721.682312,413.810272 
	C717.157227,384.925415 710.094299,356.785248 698.046936,330.006592 
	C696.075256,325.624054 693.392212,323.390656 688.724487,322.246826 
	C656.523499,314.355743 623.871521,311.342499 590.763977,311.929047 
	C564.566406,312.393250 538.551453,314.744354 512.871399,319.647186 
	C462.232605,329.315186 412.854614,343.503143 365.057251,362.969635 
	C363.583435,363.569824 361.783783,363.743927 360.986511,365.570831 
	C362.009888,367.776428 363.945953,369.167633 365.662018,370.684143 
	C406.598206,406.860962 454.194733,429.349091 507.641144,439.948883 
	C512.426208,440.897919 514.775635,439.553802 516.221313,435.093842 
	C505.072968,430.020538 494.186859,425.058960 483.294464,420.111328 
	C459.079956,409.112244 436.193817,395.886139 415.185760,379.509491 
	C411.086121,376.313660 407.748169,372.443970 404.768616,368.141174 
	C413.108612,371.842468 421.017303,375.971283 428.737091,380.427399 
	C459.794098,398.354645 492.760498,411.624146 527.278381,421.163330 
	C530.104370,421.944305 532.730469,422.045715 535.448242,420.492920 
	C547.031616,413.874573 559.642578,410.494995 572.752625,408.410278 
	C577.075073,407.722931 581.742065,408.642731 586.743042,405.839172 
	C569.981995,387.947266 549.403625,375.282745 530.879578,359.451111 
	C532.989624,358.503143 533.811096,359.173706 534.609741,359.691772 
	C546.618469,367.480804 559.080811,374.573883 569.891296,384.145721 
	C578.120300,391.431824 586.791992,398.217621 595.251770,405.243927 
	C596.952698,406.656586 598.763123,407.492065 601.046448,407.816589 
	C612.885986,409.499268 624.124023,412.908966 633.925903,420.103119 
	C634.583008,420.585419 635.258362,421.114349 636.655518,420.556244 
	C634.796753,411.849091 631.493713,403.564667 627.810913,394.604309 
M323.763214,393.451050 
	C324.804443,389.355499 326.064270,385.295959 326.190643,380.406097 
	C316.567108,384.750061 307.913086,389.682068 299.242310,394.566376 
	C269.499878,411.320557 242.010788,431.104126 217.691162,455.175842 
	C215.125946,457.714935 213.884079,460.364716 213.930450,463.958862 
	C214.044250,472.779968 213.753326,481.616394 215.315628,490.354675 
	C219.496292,513.737976 227.593338,535.561951 241.271301,555.138306 
	C242.796005,557.320496 244.549179,559.328552 247.407318,561.145752 
	C234.916168,507.793060 241.439117,452.405457 261.996307,435.676758 
	C262.699463,437.341309 261.739563,438.625763 261.224457,439.965179 
	C258.834534,446.179535 256.396515,452.375610 254.037613,458.601685 
	C244.906265,482.702942 243.194763,507.402954 247.682434,532.717163 
	C248.647934,538.163452 251.596756,539.755371 257.067413,539.917114 
	C258.904816,518.647034 264.770447,498.643768 273.856750,479.571655 
	C271.335449,490.473572 266.910004,500.875916 265.240204,513.462280 
	C271.624268,503.747467 278.633423,496.688446 287.336792,491.498596 
	C290.393829,489.675598 292.243774,487.323242 293.598785,484.123138 
	C305.952026,454.949371 315.659882,424.898590 323.763214,393.451050 
M717.519470,149.000549 
	C715.368591,140.195282 711.848572,131.962814 707.244080,124.166519 
	C696.041321,105.198181 680.249817,90.902695 661.686035,79.457832 
	C639.520325,65.792328 615.356323,57.185741 589.058838,50.735661 
	C594.642334,57.321114 599.010071,63.331398 602.367981,70.054611 
	C614.022705,93.390053 617.617493,118.431442 618.046326,144.104080 
	C618.218445,154.404465 617.983154,154.125107 628.278748,155.719818 
	C652.645691,159.494003 676.806580,164.188385 699.691345,173.855362 
	C706.360168,176.672409 712.699097,180.146820 719.418579,184.708008 
	C720.051270,172.205322 720.257202,160.954559 717.519470,149.000549 
M724.627747,333.940491 
	C717.130859,330.922241 709.527954,328.237610 701.520142,325.936127 
	C701.489441,328.899384 702.843018,330.706543 703.698486,332.637604 
	C717.303589,363.347595 724.693359,395.616455 728.442200,428.883179 
	C730.195374,444.439911 731.197815,460.035400 731.912415,475.645111 
	C732.767029,494.312500 732.391541,512.946045 727.248352,531.148132 
	C726.484863,533.849915 725.109497,536.398560 725.296387,539.353149 
	C726.207336,553.753418 726.371399,568.166321 725.667847,582.896790 
	C726.388733,582.469910 726.860596,582.306152 727.169250,581.985352 
	C727.975891,581.146790 728.773010,580.285583 729.465942,579.353149 
	C759.622803,538.773682 772.380127,493.356934 766.412964,443.096130 
	C762.272156,408.219086 750.772278,375.470306 735.900574,343.791534 
	C733.588196,338.865845 730.570923,335.527710 724.627747,333.940491 
M461.717773,834.236816 
	C447.343811,847.637512 429.895721,853.904358 410.597656,855.940186 
	C429.472992,860.404236 447.043396,857.312866 463.726166,846.314087 
	C461.868835,865.170715 435.444336,874.133057 404.270416,868.069641 
	C404.456512,868.497803 404.950470,868.592957 405.333008,868.852356 
	C428.712189,884.703735 454.594818,890.251038 482.321594,886.507202 
	C503.832520,883.602722 518.761108,872.040894 525.090698,850.609192 
	C529.561401,835.471680 529.251526,820.089417 527.673767,804.616211 
	C527.451782,802.438904 526.461304,801.786438 524.399292,802.002075 
	C513.124146,803.180786 502.239899,800.496765 491.311401,798.448547 
	C488.044312,797.836243 486.275452,798.419128 484.825836,801.768616 
	C479.545227,813.969727 472.114410,824.752441 461.717773,834.236816 
M765.638855,584.252014 
	C759.183594,593.799622 751.678772,602.161621 740.256592,605.797241 
	C736.789673,606.900818 737.072266,608.804321 738.046448,611.538452 
	C739.020325,614.271912 742.164612,615.790222 742.359985,619.273621 
	C737.529602,619.733459 735.388245,616.579712 733.914490,613.335876 
	C729.440491,603.487793 730.433411,593.910339 736.292175,584.853516 
	C738.281311,581.778564 740.500854,578.851196 742.451233,575.753174 
	C743.585571,573.951416 744.500366,571.945984 742.748291,569.924377 
	C740.608643,570.374146 740.168030,572.185425 739.250977,573.490112 
	C734.737122,579.911682 729.810303,585.984497 724.260864,591.542053 
	C723.324829,592.479431 722.378784,593.640625 720.848389,592.774658 
	C719.625732,592.082764 719.749878,590.812683 719.912109,589.653931 
	C721.885925,575.555359 720.892456,561.386292 720.841064,547.246338 
	C720.821411,541.829529 721.354614,536.308533 719.437927,530.557983 
	C717.568054,535.329773 716.944092,539.964172 716.333923,544.519958 
	C715.306824,552.188782 716.404602,559.990356 714.741638,567.688843 
	C710.629211,586.727295 710.106812,605.959473 712.350159,625.291931 
	C714.095520,640.333618 723.192749,645.432129 736.946350,638.999512 
	C737.851624,638.576233 738.801514,638.205383 739.621521,637.649170 
	C754.637634,627.465210 768.975464,616.202576 777.281616,599.776123 
	C792.208496,570.256592 789.823059,540.602966 775.179260,511.536896 
	C773.798706,508.796570 772.321411,505.973145 769.253235,503.518677 
	C767.626587,509.516785 766.146790,514.915039 764.709106,520.324463 
	C764.426941,521.386230 765.063904,522.239380 765.606323,523.084290 
	C772.133545,533.251160 771.765686,544.597473 771.178284,555.966003 
	C771.113037,557.228088 771.013428,558.693176 768.369507,559.204346 
	C768.724243,548.433350 768.154236,537.879150 763.156616,527.954224 
	C760.966125,529.505371 760.747192,531.614624 760.037048,533.377075 
	C756.297119,542.658936 752.223145,551.785583 747.266174,560.479919 
	C745.870422,562.927979 745.569214,564.870911 747.308838,567.266174 
	C750.257874,571.326416 749.509216,575.367371 746.760071,579.299255 
	C744.185120,582.981995 741.580017,586.658752 739.271057,590.507812 
	C737.220398,593.926270 736.156921,597.695007 736.721313,601.861694 
	C740.172302,601.939270 742.778625,600.448608 745.345825,598.921387 
	C751.567078,595.220642 756.798340,590.361694 761.577454,584.969238 
	C763.582520,582.706787 763.633911,582.752319 765.638855,584.252014 
M271.653137,633.588684 
	C272.779602,634.275879 273.906036,634.963074 275.952789,636.211670 
	C266.906830,614.854919 259.144287,594.294983 251.937119,573.528137 
	C251.284088,571.646423 250.224030,570.391235 248.667191,569.326904 
	C241.513718,564.436218 235.982285,558.006348 231.674042,550.586060 
	C221.382858,532.861084 214.497635,513.846436 210.647873,493.720245 
	C208.931992,484.749756 208.463608,475.670319 207.926758,466.067352 
	C206.324524,466.963654 205.436600,468.310944 204.409393,469.541992 
	C197.145477,478.247375 190.299728,487.252747 183.990067,496.687561 
	C181.753143,500.032318 181.146439,502.973846 182.462128,506.878937 
	C199.592255,557.723145 229.972824,599.221863 271.653137,633.588684 
M361.324036,868.989380 
	C360.620331,867.481689 359.798401,866.017090 359.231598,864.459595 
	C354.678711,851.949158 361.156342,843.509399 374.392395,844.616821 
	C379.788483,845.068359 384.720612,847.075989 389.656067,849.064148 
	C391.979034,849.999939 394.265259,850.884155 396.821289,851.062378 
	C433.014954,853.586792 466.510071,833.272156 480.936432,800.001343 
	C481.330933,799.091492 481.853302,798.192383 481.074402,796.844910 
	C469.990906,793.719238 458.783997,788.187073 447.230927,796.382263 
	C446.447021,796.938232 445.368774,797.074646 444.433533,797.422546 
	C428.062988,803.513062 411.007446,807.603882 394.881256,814.408752 
	C382.816895,819.499695 371.671448,825.788818 362.818420,835.858154 
	C354.536865,845.277466 352.794617,864.377563 358.270874,870.825439 
	C361.922455,875.124939 366.146545,878.646790 370.588074,882.064148 
	C367.089874,878.274963 364.105194,874.163452 361.324036,868.989380 
M610.859741,511.457153 
	C610.596130,512.067993 610.315857,512.672302 610.071411,513.290710 
	C602.953796,531.298401 588.806030,541.102722 571.114929,540.282837 
	C554.277588,539.502563 540.265320,527.784485 534.936096,509.993347 
	C534.555603,508.723175 534.521484,507.267975 533.252991,506.500580 
	C529.047668,503.956360 526.222595,500.266327 524.436340,495.320648 
	C522.039185,499.687714 520.786072,503.645660 521.240356,508.196503 
	C523.913452,534.972900 553.581421,557.945068 580.013062,553.503479 
	C621.132324,546.593628 637.029236,501.628448 615.398376,469.472107 
	C608.018127,458.500702 598.230164,452.146118 584.377258,453.246552 
	C579.009644,453.672913 573.839966,454.708801 568.768433,456.318695 
	C556.390930,460.247833 545.772888,467.100311 535.609741,476.022675 
	C539.731689,477.313538 541.586914,475.334900 543.568848,473.244324 
	C565.107239,450.525970 600.935974,458.820129 610.245667,488.691376 
	C611.106445,491.453522 612.215942,493.688232 614.616272,495.606049 
	C618.468628,498.683899 618.286743,504.525757 614.682373,507.966522 
	C613.607422,508.992706 612.402954,509.883148 610.859741,511.457153 
M354.872650,606.469055 
	C374.438232,603.685303 388.745911,593.319946 394.735809,574.592773 
	C402.993134,548.776367 397.460785,534.700867 374.107269,523.801331 
	C357.991241,516.279663 340.812103,516.017334 323.929596,521.570557 
	C314.894958,524.542358 307.540802,529.667542 304.051727,539.621033 
	C292.206543,573.412659 318.278290,609.069336 354.872650,606.469055 
M630.891724,523.351257 
	C635.272461,513.820618 636.941589,503.637512 637.508545,493.316925 
	C637.900635,486.180084 637.956177,478.506073 633.575500,472.618378 
	C628.386780,465.644592 620.634216,461.724915 611.603821,459.069305 
	C638.153076,488.115875 631.374817,527.700684 605.985352,546.542175 
	C594.575439,555.009399 581.594299,558.883118 567.412109,556.943665 
	C544.075623,553.752441 528.698425,540.147827 519.442078,518.739624 
	C518.056335,532.594971 520.079102,545.768066 524.274170,558.676758 
	C527.305420,568.004150 528.243591,568.857605 538.017517,568.676636 
	C556.562317,568.333252 573.959473,562.647522 591.459290,557.205200 
	C609.338684,551.644653 622.559875,541.012756 630.891724,523.351257 
M351.194183,849.164978 
	C351.217987,849.661987 351.241791,850.159058 351.265594,850.656067 
	C352.538879,840.974365 357.769379,833.477539 364.421661,826.780151 
	C371.455719,819.698425 379.942841,814.798401 388.914276,810.654724 
	C405.902496,802.808350 424.090210,798.308289 441.561249,791.808350 
	C443.910706,790.934265 446.446564,790.364563 448.753693,788.196533 
	C437.065552,784.470886 425.985504,780.924133 414.892090,777.419617 
	C413.299316,776.916443 411.800354,776.675171 410.268066,778.070129 
	C407.160187,780.899353 403.202332,782.421631 399.608398,784.511292 
	C386.067017,792.384827 372.547272,800.302490 361.183655,811.310425 
	C352.330597,819.886292 345.728607,829.705933 343.473053,842.906067 
	C345.949341,840.077332 346.957306,836.656799 351.206940,836.424927 
	C351.206940,840.629822 351.206940,844.558838 351.194183,849.164978 
M333.073730,611.518799 
	C344.707672,614.176025 356.244934,612.450134 367.749695,610.623169 
	C380.909515,608.533386 393.975922,605.923035 406.139404,600.225525 
	C413.986053,596.550171 414.570374,595.427246 413.629913,587.079590 
	C412.147034,573.917358 407.965332,561.612793 401.132355,549.229187 
	C404.147247,584.174194 380.643951,609.995728 349.783936,610.040771 
	C334.711304,610.062805 321.879456,604.018921 311.866516,592.760376 
	C298.108337,577.290833 294.857391,559.251831 300.663208,538.404541 
	C294.757050,543.674255 291.307098,549.056641 288.731873,555.082886 
	C287.514496,557.931702 287.105286,560.696106 288.045746,563.787964 
	C295.060181,586.848755 308.547485,603.825439 333.073730,611.518799 
M542.379456,478.318054 
	C530.351257,478.987183 523.378967,489.371246 528.666809,498.740692 
	C531.945496,504.550110 538.732605,507.268158 545.386963,505.436615 
	C551.491638,503.756348 556.684387,497.230316 556.430969,491.556946 
	C556.118713,484.566650 551.352112,479.805359 542.379456,478.318054 
M270.800354,538.380859 
	C274.508423,533.280334 270.124420,529.644897 267.825165,525.627380 
	C270.871246,524.434143 274.299683,527.699524 275.989166,523.931030 
	C278.879517,517.483704 281.579529,510.951080 284.359497,504.454315 
	C271.768829,511.124146 261.645111,519.458679 261.486206,534.997925 
	C261.463989,537.170715 260.133759,540.175964 262.982788,541.206116 
	C265.616608,542.158447 268.627289,541.930054 270.800354,538.380859 
M616.641479,418.603973 
	C614.999695,418.603973 613.357849,418.603973 611.350647,418.603973 
	C615.156189,422.072174 618.605103,425.145996 621.976807,428.302338 
	C629.451843,435.299988 629.436035,435.316895 637.741272,430.942780 
	C637.921814,433.739258 637.058350,436.189606 636.394226,438.692932 
	C635.820862,440.854034 640.588806,447.170471 642.696838,447.065186 
	C644.489197,446.975647 644.793701,445.721436 644.445374,444.210449 
	C641.849243,432.949493 637.872253,422.862030 624.594421,420.525146 
	C622.151245,420.095154 619.754150,419.403076 616.641479,418.603973 
M490.655396,417.785248 
	C498.975739,421.567322 507.365356,425.206390 515.589294,429.187561 
	C520.190430,431.414948 523.326965,430.481384 525.934692,425.755493 
	C509.408539,421.534943 493.700226,415.795776 477.588135,411.185364 
	C481.714661,413.287140 485.841217,415.388885 490.655396,417.785248 
M541.033142,438.076691 
	C545.031494,439.103241 549.163147,439.778412 552.998718,441.233917 
	C559.737244,443.791046 564.649719,439.727142 570.174561,437.419495 
	C565.028381,435.558075 559.757996,434.672180 554.856995,432.812744 
	C548.342102,430.340942 543.585999,433.184113 538.307556,436.704132 
	C539.319275,437.220093 539.893005,437.512726 541.033142,438.076691 
M613.655151,497.776886 
	C613.128601,497.370972 612.632019,496.916809 612.070496,496.567017 
	C608.704590,494.470123 605.628601,495.046936 603.180725,497.987732 
	C601.005005,500.601685 600.861328,503.529877 603.336060,506.096069 
	C606.034973,508.894806 609.121826,509.173004 612.267090,506.778870 
	C615.248047,504.509827 616.813354,501.859344 613.655151,497.776886 
M257.121002,568.394714 
	C257.976257,570.447083 258.831512,572.499451 259.686768,574.551819 
	C258.321594,567.640686 256.625702,560.783264 256.969025,553.879211 
	C257.273010,547.765564 253.943985,544.601440 249.404968,540.619385 
	C251.083603,550.506348 253.492264,559.224426 257.121002,568.394714 
M435.160980,864.733887 
	C442.274719,863.061157 446.907013,860.955811 450.825745,857.399841 
	C439.953491,862.510010 428.682343,862.816772 417.545197,864.396118 
	C423.166718,865.982544 428.723450,866.126404 435.160980,864.733887 
M265.567352,559.344238 
	C265.849701,556.191589 268.068512,552.110474 261.577759,551.859497 
	C261.305511,557.228455 262.673309,562.212036 264.241058,567.279907 
	C264.635193,564.899597 265.029327,562.519348 265.567352,559.344238 
M542.717896,443.496246 
	C539.706116,442.662689 536.651794,441.954803 533.696350,440.954834 
	C531.429443,440.187866 529.748718,440.357880 527.768188,443.694977 
	C533.562439,442.807556 538.207458,445.402222 542.717896,443.496246 
M282.439545,526.443909 
	C284.320801,526.612000 286.279358,527.324646 288.232025,525.531006 
	C286.809296,523.698364 285.446655,521.943115 283.810944,519.836182 
	C282.533478,522.110779 280.977325,523.668274 282.439545,526.443909 
M620.559998,438.756500 
	C622.352356,440.264893 623.789795,439.790741 625.294189,437.970306 
	C623.562195,436.036713 622.120178,434.132874 619.710876,433.234528 
	C618.779053,435.239075 619.023010,436.786438 620.559998,438.756500 
M631.123352,447.663818 
	C630.582458,448.416779 629.580017,448.989929 630.188049,450.298431 
	C632.362671,450.832397 634.230469,450.124908 636.154663,448.684692 
	C635.027954,446.493134 634.025940,444.637573 631.123352,447.663818 
M280.553253,536.945618 
	C277.126007,536.119263 277.126007,536.119263 276.646851,539.431885 
	C278.563385,540.059875 280.415802,539.224854 281.859161,538.419800 
	C283.417480,537.550781 281.477692,537.537476 280.553253,536.945618 
M610.922119,426.556488 
	C611.906128,427.454376 612.181030,429.292908 614.501282,428.982483 
	C612.769836,425.829224 610.037476,424.109039 607.342407,422.336029 
	C608.400513,423.577850 609.458618,424.819672 610.922119,426.556488 
z"/>
<path fill="#dadada" opacity="1.000000" stroke="none" 
	d="
M541.170227,691.133179 
	C555.923279,683.710266 568.576172,674.017334 580.192932,662.894531 
	C581.155518,661.972839 582.117004,661.046692 583.127380,660.179016 
	C584.294495,659.176819 585.664124,658.113647 587.077515,659.467346 
	C588.874023,661.187927 587.261658,662.496338 586.095459,663.624512 
	C569.893066,679.298340 551.752197,692.023376 530.703491,700.458557 
	C510.846008,708.416504 490.200928,712.484192 468.899658,712.900391 
	C452.697327,713.216919 436.714813,710.986267 421.039886,706.768860 
	C420.558289,706.639343 420.085693,706.473633 419.614655,706.308472 
	C417.651642,705.620117 415.535004,704.745972 416.261200,702.210999 
	C417.046082,699.471008 419.231628,699.616089 421.554901,700.425476 
	C430.376526,703.498840 439.411896,705.661926 448.697540,706.816650 
	C480.965607,710.829346 511.716095,705.912720 541.170227,691.133179 
z"/>
<path fill="#dadada" opacity="1.000000" stroke="none" 
	d="
M453.441437,658.736572 
	C450.142944,657.443604 447.078186,656.545105 444.296814,655.100769 
	C435.879669,650.729858 433.554504,642.805786 438.171509,634.578735 
	C439.221283,632.708130 440.494141,630.912476 441.922974,629.313416 
	C448.045532,622.461487 449.575256,614.816467 446.229340,606.227600 
	C445.925537,605.447754 445.688538,604.653442 446.507629,603.557861 
	C450.564392,603.802185 451.535461,607.145813 452.140259,610.208435 
	C453.516663,617.178101 452.464569,623.765137 447.791687,629.449951 
	C447.369720,629.963318 446.976288,630.500183 446.555725,631.014709 
	C438.480591,640.892761 439.977051,646.064636 452.155029,649.985657 
	C456.733093,651.459656 461.434906,652.554077 465.995483,654.075806 
	C469.188782,655.141296 472.011810,656.904846 473.575043,660.142578 
	C474.457672,661.970703 474.478546,663.654358 472.958313,665.167419 
	C471.432770,666.685730 469.879028,666.011230 468.423950,665.117615 
	C463.855713,662.312195 458.942932,660.338440 453.441437,658.736572 
z"/>
<path fill="#dadada" opacity="1.000000" stroke="none" 
	d="
M718.101501,752.996460 
	C714.889832,782.763489 719.865540,809.342651 744.494019,828.847412 
	C752.773132,835.404114 762.623901,838.452209 774.046021,839.420227 
	C747.347961,824.077515 734.215332,801.492493 733.650452,771.693359 
	C735.999756,773.235474 735.592041,775.892822 736.047974,778.114319 
	C741.592041,805.126404 756.495117,824.966370 780.858215,837.938416 
	C786.615417,841.003784 792.746887,840.698364 798.755798,841.676331 
	C816.240295,844.521912 832.966125,849.136719 846.290222,861.774048 
	C848.189880,863.575806 850.265381,865.312073 851.086426,867.966248 
	C850.127075,868.980957 849.447876,868.184448 848.944519,867.669617 
	C836.525696,854.965515 820.435059,850.457825 803.718567,847.280945 
	C793.040222,845.251587 782.117004,846.075806 771.420654,844.439453 
	C742.002563,839.939148 721.649109,820.332214 715.787659,791.152954 
	C712.924316,776.899048 713.161865,762.743835 716.618835,748.632263 
	C716.845398,747.707153 716.729004,746.551575 718.421265,746.409424 
	C719.159973,748.478577 718.054443,750.529541 718.101501,752.996460 
z"/>
<path fill="#dadada" opacity="1.000000" stroke="none" 
	d="
M296.451904,892.451538 
	C287.842072,901.407166 277.778137,907.391663 266.319427,911.312622 
	C271.599854,913.064453 278.919647,912.780945 287.381042,910.164429 
	C309.083710,903.453064 321.768921,887.723816 329.587128,867.339294 
	C333.611176,856.847412 335.598450,845.918030 335.680695,834.655334 
	C335.689606,833.431519 335.205994,832.008118 336.524170,830.998474 
	C338.077393,831.680969 338.030029,833.138550 338.039703,834.389099 
	C338.219238,857.563660 332.997131,878.990723 317.154785,896.755432 
	C301.485046,914.326416 281.334991,919.683167 258.767517,916.662415 
	C238.801071,913.989868 219.064438,912.624268 199.545288,919.185669 
	C194.154770,920.997742 189.411087,923.991882 184.237381,927.457825 
	C183.966797,924.387207 185.879715,923.703308 187.185669,922.723206 
	C198.964279,913.883301 212.683258,910.771667 226.968445,909.859924 
	C234.247818,909.395264 241.614838,909.142334 248.886719,910.536316 
	C252.117340,911.155640 255.176437,910.153381 258.192169,909.239441 
	C285.410553,900.990906 303.656464,883.174072 313.985962,856.893005 
	C314.620300,855.279053 314.421875,853.175720 316.328247,852.139038 
	C318.690735,859.573608 308.696106,879.938293 296.451904,892.451538 
z"/>
<path fill="#dadada" opacity="1.000000" stroke="none" 
	d="
M361.466736,522.279602 
	C373.210541,526.737610 380.450500,534.930176 384.186554,546.353027 
	C384.968811,548.744690 385.788391,550.820435 387.929962,552.558655 
	C392.141266,555.976807 392.066925,561.052307 387.825226,564.519470 
	C385.776550,566.193970 384.488220,568.097595 383.543091,570.461060 
	C377.408112,585.802246 364.488037,594.666382 348.912720,594.283142 
	C333.557343,593.905334 320.059448,583.678772 315.120636,568.360596 
	C314.105682,565.212646 312.657379,562.889282 310.032898,560.761414 
	C301.307373,553.686768 304.129211,539.663940 315.083282,535.941223 
	C318.871368,534.653931 321.724243,532.609558 324.600861,529.975647 
	C335.168640,520.299561 347.378052,517.460999 361.466736,522.279602 
M324.983093,561.615234 
	C329.376740,559.811401 332.635590,556.909912 333.696198,552.110596 
	C334.963379,546.376526 332.630066,541.250061 327.707703,538.572205 
	C322.185608,535.568115 315.165070,536.650574 310.745300,541.187500 
	C306.848663,545.187439 306.068726,551.119568 308.813232,555.883850 
	C311.845093,561.146973 317.806335,563.445068 324.983093,561.615234 
M384.605255,552.979614 
	C380.135406,551.801880 377.434845,553.954102 376.474365,558.000244 
	C375.710541,561.217957 377.715363,563.491089 380.754578,564.351990 
	C383.844940,565.227417 386.415375,563.860901 387.920258,561.169250 
	C389.829926,557.753479 388.486359,555.129211 384.605255,552.979614 
z"/>
</svg>