<?xml version="1.0" standalone="no"?>
<!DOCTYPE svg PUBLIC "-//W3C//DTD SVG 20010904//EN"
 "http://www.w3.org/TR/2001/REC-SVG-20010904/DTD/svg10.dtd">
<svg version="1.0" xmlns="http://www.w3.org/2000/svg"
 width="300.000000pt" height="300.000000pt" viewBox="0 0 300.000000 300.000000"
 preserveAspectRatio="xMidYMid meet">
<metadata>
Created by potrace 1.10, written by Peter Selinger 2001-2011
</metadata>
<g transform="translate(0.000000,300.000000) scale(0.100000,-0.100000)"
fill="#000000" stroke="none">
<path d="M1143 2418 c-64 -100 -91 -162 -108 -248 -4 -19 -13 -54 -21 -78 -8
-23 -14 -56 -14 -72 0 -28 -1 -29 -27 -19 -16 6 -41 15 -58 19 -16 5 -55 17
-85 28 -72 26 -158 50 -195 55 -16 3 -60 19 -96 37 -84 42 -100 37 -87 -22 29
-127 113 -347 139 -363 20 -13 6 -33 -47 -70 -81 -56 -169 -157 -212 -244 -34
-69 -37 -81 -36 -161 0 -108 22 -190 81 -310 40 -81 60 -109 142 -190 79 -79
113 -105 189 -144 182 -93 312 -123 495 -113 115 6 256 38 345 77 42 19 49 19
91 6 97 -31 149 -37 386 -38 246 -2 322 7 429 48 33 13 67 24 77 24 21 0 134
87 134 103 0 7 -23 12 -65 12 -60 0 -70 3 -118 37 -29 21 -56 38 -60 38 -4 0
-12 4 -18 10 -6 6 21 40 76 97 97 100 163 214 202 349 30 102 32 303 4 404
-71 263 -283 473 -541 536 -94 24 -267 23 -360 0 -97 -24 -238 -95 -313 -156
-56 -46 -82 -55 -82 -30 0 5 -16 43 -36 86 -20 43 -49 112 -65 153 -17 42 -39
96 -51 121 -12 25 -24 51 -28 59 -13 29 -28 20 -67 -41z m63 5 c4 -15 16 -42
27 -60 24 -41 18 -85 -18 -128 l-24 -30 -2 115 c-2 87 -4 102 -8 60 -4 -38 -8
-49 -13 -37 -11 26 -10 65 2 88 15 27 28 24 36 -8z m-37 -106 c11 -11 16 -167
5 -167 -16 0 -63 35 -77 59 -11 17 -17 20 -17 10 0 -20 47 -65 83 -78 24 -9
27 -16 27 -55 0 -24 3 -58 6 -75 l6 -31 -68 31 c-86 38 -92 44 -76 69 6 10 14
38 17 62 l5 43 -12 -40 c-6 -22 -17 -49 -24 -60 -14 -19 -14 -19 -14 2 0 12 4
24 9 27 5 3 12 23 15 43 10 55 26 100 60 173 l30 65 7 -33 c4 -19 12 -39 18
-45z m111 -70 c0 -5 18 -46 40 -92 22 -46 40 -92 40 -103 0 -10 -11 -34 -25
-53 -13 -19 -34 -51 -47 -71 -34 -56 -54 -50 -68 18 -13 63 -10 72 39 139 17
22 33 54 36 70 6 26 4 25 -13 -10 -11 -22 -33 -57 -50 -78 l-30 -38 -4 81 c-2
67 0 84 14 97 10 9 23 31 30 50 11 31 14 33 25 17 7 -10 13 -22 13 -27z m871
-42 c164 -44 307 -143 406 -283 193 -270 171 -664 -51 -933 -58 -71 -133 -135
-144 -124 -4 3 2 11 13 17 28 15 121 111 135 139 6 13 -8 3 -32 -23 -59 -66
-116 -108 -144 -108 -13 0 -24 4 -24 8 0 5 -11 15 -25 22 l-24 13 41 22 c57
30 216 191 257 259 38 64 36 91 -6 82 -59 -13 -457 -25 -468 -15 -3 3 -8 34
-11 68 -15 144 -126 208 -373 217 -95 4 -132 9 -161 24 -54 28 -90 74 -90 117
0 43 -25 97 -55 122 l-23 18 50 67 c54 72 139 148 213 192 25 14 44 29 41 31
-10 10 -130 -71 -194 -131 -35 -33 -79 -82 -97 -108 -28 -42 -34 -46 -49 -35
-16 12 -15 17 22 63 159 201 395 311 642 299 52 -3 120 -11 151 -20z m-1602
-90 c38 -19 71 -31 75 -28 7 7 13 -10 20 -60 6 -47 -3 -43 -96 43 -38 34 -68
57 -68 52 0 -6 24 -31 53 -57 l52 -47 -35 7 c-54 11 -70 23 -71 53 -1 15 -3
37 -4 50 -1 12 -1 22 2 22 2 0 34 -16 72 -35z m173 -52 l58 -17 0 -80 c0 -75
-1 -78 -17 -63 -16 14 -24 14 -81 1 -48 -11 -72 -12 -102 -4 -35 9 -43 17 -65
67 -14 30 -25 57 -23 58 2 2 30 -4 63 -12 37 -9 80 -30 112 -54 63 -47 83 -51
30 -6 -30 26 -38 41 -43 80 -4 26 -3 47 2 47 4 0 34 -8 66 -17z m308 -53 c-8
-48 -13 -45 -10 5 2 29 9 50 15 43 1 -2 -1 -23 -5 -48z m-127 -7 c13 -4 17
-16 17 -48 0 -78 -9 -103 -44 -115 -29 -10 -33 -8 -59 20 -26 29 -28 36 -25
104 l3 74 45 -15 c25 -8 53 -17 63 -20z m228 -2 c40 -13 73 -44 83 -78 6 -20
5 -21 -21 -14 -36 11 -79 28 -120 48 -25 12 -33 22 -33 42 0 37 8 43 34 27 11
-8 37 -19 57 -25z m256 18 c9 -9 1 -24 -28 -61 -21 -27 -43 -57 -47 -65 -5 -8
-17 -13 -27 -12 -14 3 -10 14 29 65 25 34 46 67 46 73 0 14 13 14 27 0z m-397
-47 c14 -5 37 -14 53 -21 21 -8 27 -17 27 -39 0 -28 -2 -30 -76 -44 -65 -13
-74 -13 -70 -1 4 8 6 41 6 74 0 53 2 58 18 50 9 -5 28 -13 42 -19z m114 -49
c4 -5 26 -13 49 -19 l42 -11 -58 -4 c-54 -4 -57 -3 -57 19 0 22 10 28 24 15z
m-530 -65 c10 -24 25 -51 33 -60 15 -16 15 -18 -1 -18 -10 0 -25 20 -41 56
-28 63 -28 64 -17 64 4 0 16 -19 26 -42z m214 10 c23 -18 42 -35 42 -39 0 -4
-24 -13 -52 -19 -29 -6 -71 -15 -93 -20 l-40 -10 40 5 40 4 -35 -19 c-41 -23
-50 -24 -50 -8 0 6 -6 19 -14 27 -14 16 -56 88 -56 96 0 2 15 1 33 -2 17 -2
48 0 67 5 57 17 74 14 118 -20z m512 -10 c87 -27 135 -91 128 -170 -7 -65 -16
-72 -64 -52 -51 22 -163 21 -240 -1 -32 -9 -65 -18 -73 -19 -8 -2 -20 -11 -27
-20 -8 -12 -19 -16 -33 -11 -15 4 -23 1 -27 -10 -4 -9 -13 -14 -21 -10 -12 4
-14 0 -10 -17 4 -15 -2 -33 -20 -56 -19 -26 -22 -36 -13 -42 9 -6 6 -17 -14
-46 -14 -22 -22 -40 -18 -42 5 -1 4 -20 -1 -42 -9 -33 -8 -47 9 -87 16 -37 25
-47 40 -44 10 2 73 7 139 11 139 9 227 29 308 73 52 27 137 107 137 127 0 5 9
6 20 3 11 -3 20 0 20 6 0 6 -8 11 -18 11 -13 0 -18 9 -18 39 l-1 40 56 8 c141
20 318 -1 401 -48 l35 -19 -29 24 c-54 45 -127 61 -281 61 -77 0 -152 -3 -167
-8 -31 -8 -39 6 -10 18 9 4 67 9 128 12 238 12 414 -62 414 -173 0 -43 -41
-120 -99 -185 -149 -167 -452 -295 -777 -329 -168 -18 -338 14 -449 82 -31 19
-68 33 -98 36 -39 4 -50 9 -57 28 -6 16 -27 29 -69 44 -78 29 -133 77 -167
146 -23 47 -26 63 -22 117 16 194 224 395 510 490 75 25 238 62 308 71 46 5
127 -2 170 -16z m242 -288 c9 0 8 -3 -2 -10 -28 -18 -62 -10 -91 21 -24 25
-27 34 -18 51 10 18 13 17 54 -21 25 -23 50 -41 57 -41z m-174 44 c50 -20 81
-51 104 -101 28 -62 18 -107 -34 -160 -83 -85 -224 -132 -401 -135 -51 0 -100
-5 -110 -10 -14 -7 -20 -2 -33 28 -10 24 -14 51 -10 73 4 20 8 45 9 57 2 11
13 37 25 56 24 38 28 53 12 43 -16 -10 -12 5 10 32 11 14 17 29 14 34 -3 5 2
9 10 9 9 0 16 7 16 15 0 12 4 14 20 5 15 -8 21 -6 29 9 11 20 72 44 152 61 55
11 139 4 187 -16z m678 -453 c-44 -210 -202 -394 -441 -511 -145 -72 -253
-101 -405 -107 -150 -6 -259 15 -380 75 -92 45 -201 150 -248 237 -17 33 -32
54 -32 46 -1 -45 98 -179 180 -245 l35 -28 -41 22 c-124 67 -250 191 -314 311
-24 45 -80 189 -80 205 0 1 26 -24 58 -55 42 -42 72 -63 111 -76 42 -14 56
-24 65 -46 9 -26 15 -29 54 -29 31 0 62 -11 116 -40 180 -99 403 -109 701 -33
281 72 525 224 605 376 l25 48 3 -39 c2 -21 -4 -71 -12 -111z m514 103 c0 -34
-66 -111 -91 -106 -9 1 -36 -2 -60 -7 -72 -16 -64 2 19 42 42 21 88 47 102 58
14 11 -5 4 -42 -16 -38 -20 -68 -33 -68 -28 0 20 57 62 90 66 19 2 38 5 43 5
4 1 7 -5 7 -14z m-239 -11 c-6 -10 -26 -34 -46 -53 -26 -24 -35 -41 -32 -56 3
-19 -4 -24 -65 -42 -82 -24 -86 -17 -35 68 18 30 36 62 39 72 7 17 78 22 78 5
0 -5 6 -5 13 1 6 5 21 12 32 15 11 2 21 5 23 6 1 0 -2 -7 -7 -16z m79 7 c65
13 65 13 31 -21 -17 -17 -31 -35 -31 -40 0 -10 -93 -55 -126 -61 -32 -5 -20
29 27 80 24 26 46 44 49 41 3 -4 25 -3 50 1z m-230 -13 c0 -7 -16 -37 -35 -67
-19 -30 -35 -64 -35 -77 0 -16 -8 -25 -25 -29 -33 -8 -38 -3 -26 29 6 15 15
56 22 91 l11 64 44 0 c27 0 44 -4 44 -11z m310 -103 c0 -10 -128 -134 -138
-134 -6 0 -12 -7 -16 -15 -3 -8 -15 -15 -26 -15 -11 0 -20 -4 -20 -9 0 -13
-30 -22 -51 -16 -20 7 -26 25 -9 25 17 0 149 65 153 75 3 6 -22 11 -62 11 -36
1 -79 7 -96 14 l-30 11 69 25 c44 15 82 22 100 19 17 -3 45 -1 61 4 36 11 65
13 65 5z m-283 -69 c16 -8 54 -19 84 -24 43 -7 49 -10 32 -16 -13 -4 -23 -11
-23 -16 0 -5 -9 -9 -19 -9 -11 0 -33 -8 -49 -17 -28 -16 -30 -16 -68 13 -81
61 -80 58 -32 71 24 6 43 11 44 12 0 1 14 -6 31 -14z m-102 -55 c0 -16 -42
-46 -77 -54 l-27 -6 22 49 c22 48 22 49 52 37 17 -7 30 -18 30 -26z m51 -35
c18 -14 37 -25 43 -25 6 0 11 -4 11 -10 0 -5 9 -10 19 -10 55 0 16 -49 -73
-95 -58 -29 -121 -32 -189 -9 l-46 16 36 48 c30 40 44 50 76 56 22 3 49 17 61
29 12 13 23 23 25 24 2 1 19 -10 37 -24z m168 -106 c26 -17 46 -35 46 -40 0
-6 4 -8 8 -5 10 6 38 -11 31 -19 -4 -3 -39 -11 -80 -18 -41 -7 -82 -18 -92
-23 -13 -8 -40 -5 -95 10 -67 18 -73 21 -47 26 44 9 97 37 136 70 19 16 37 29
41 30 4 0 27 -14 52 -31z m-388 -45 c13 -3 24 -16 27 -32 3 -15 22 -52 42 -82
35 -53 65 -114 65 -131 0 -11 -231 -2 -350 14 -8 2 -32 9 -54 16 l-38 13 53
30 c30 16 58 33 63 38 6 6 19 -6 34 -31 13 -22 26 -38 29 -35 3 3 -4 18 -16
34 -12 17 -21 33 -21 37 0 8 132 134 140 134 3 1 15 -2 26 -5z m132 -39 c34
-10 62 -22 62 -26 0 -17 66 -82 122 -120 32 -22 58 -44 58 -49 0 -5 -22 -8
-48 -8 -26 1 -52 -1 -58 -4 -5 -4 -35 -7 -67 -7 -43 0 -57 4 -57 15 0 18 -40
95 -79 154 -35 51 -40 75 -13 67 9 -2 45 -13 80 -22z m402 -11 l40 -26 -38
-19 c-35 -18 -41 -19 -127 -4 -131 23 -132 32 -5 51 25 3 52 10 60 15 22 13
27 11 70 -17z m-225 -39 c33 -9 67 -19 75 -23 23 -12 241 -14 277 -3 23 7 30
6 27 -2 -7 -19 -68 -57 -90 -57 -20 1 -135 31 -168 45 -13 6 -17 5 -13 -3 8
-12 53 -27 110 -37 43 -7 41 -20 -6 -30 -17 -4 -36 -11 -42 -15 -18 -14 -83
-21 -90 -10 -3 5 -34 29 -68 52 -87 59 -138 118 -89 104 9 -3 44 -12 77 -21z
m331 -16 c3 -5 -23 -9 -58 -8 -62 1 -63 1 -28 13 35 13 76 10 86 -5z"/>
<path d="M2446 2011 c98 -112 155 -212 191 -336 16 -56 21 -67 17 -35 -16 115
-83 246 -173 339 -36 37 -52 51 -35 32z"/>
<path d="M1920 1960 c0 -5 4 -10 9 -10 9 0 69 -59 96 -95 15 -20 15 -20 9 0
-12 34 -54 84 -85 100 -16 9 -29 11 -29 5z"/>
<path d="M1884 1891 c14 -5 16 -10 8 -15 -7 -4 -10 -12 -7 -17 9 -14 25 -11
25 6 0 29 45 -12 98 -88 87 -125 103 -135 262 -168 52 -11 106 -27 120 -37 45
-32 56 -37 37 -14 -26 29 -72 49 -161 68 -82 18 -99 33 -72 63 23 26 20 39
-16 61 -41 25 -65 25 -73 1 -15 -47 -30 -42 -80 29 -48 67 -113 121 -145 119
-11 0 -10 -3 4 -8z m287 -151 c27 -15 24 -30 -8 -31 -17 -1 -21 -3 -10 -6 19
-5 24 -43 4 -43 -10 0 -40 17 -66 36 -6 5 27 34 39 34 6 0 8 5 5 10 -8 13 11
13 36 0z"/>
<path d="M1846 1832 c-2 -4 -1 -14 4 -22 7 -11 12 -12 21 -3 6 6 8 16 5 22 -8
13 -23 14 -30 3z"/>
<path d="M1054 1849 c-28 -4 -61 -13 -75 -19 l-24 -10 25 4 c83 16 205 24 257
16 100 -14 144 -47 164 -123 8 -30 8 -29 4 8 -12 106 -156 157 -351 124z"/>
<path d="M464 1567 c-90 -91 -125 -159 -132 -249 -4 -55 -1 -74 18 -112 25
-52 87 -110 134 -125 25 -8 28 -8 12 2 -108 69 -146 126 -146 221 0 86 39 164
130 260 40 42 69 76 64 76 -5 0 -41 -33 -80 -73z"/>
<path d="M1790 1095 c-156 -92 -401 -171 -610 -196 -57 -7 -99 -14 -92 -17 25
-8 218 20 327 48 161 40 348 123 440 194 34 26 13 17 -65 -29z"/>
<path d="M1230 1590 c0 -7 -7 -10 -15 -6 -9 3 -18 -1 -21 -9 -4 -8 -15 -15
-25 -15 -80 0 -244 -159 -254 -245 -2 -24 -1 -25 16 -9 10 9 16 21 13 28 -7
18 53 102 100 140 58 47 104 69 132 62 18 -5 24 -2 24 9 0 12 6 15 20 10 15
-5 20 -2 20 10 0 15 7 16 48 11 26 -4 68 -17 95 -30 26 -13 47 -19 47 -15 0 4
-24 19 -52 33 -62 30 -148 45 -148 26z"/>
<path d="M1280 1474 c0 -11 -6 -13 -19 -9 -26 8 -75 -14 -134 -59 -26 -20 -54
-36 -62 -36 -8 0 -15 -4 -15 -10 0 -5 -17 -18 -37 -29 -21 -11 -34 -20 -29
-21 19 -1 86 24 86 32 0 4 5 8 11 8 6 0 27 14 46 31 20 17 55 40 79 52 43 20
44 20 58 2 13 -18 14 -18 21 4 6 19 9 20 22 9 13 -10 17 -10 20 0 3 7 24 12
51 13 l47 1 -49 9 c-28 4 -53 6 -57 3 -4 -2 -10 0 -14 6 -9 15 -25 12 -25 -6z"/>
<path d="M1443 1436 c-13 -6 -22 -17 -20 -25 3 -21 -88 -87 -153 -112 -37 -14
-93 -23 -171 -28 -63 -5 -124 -13 -135 -19 -17 -10 -16 -11 12 -12 16 0 35 -5
42 -12 9 -9 12 -9 12 4 0 12 17 16 93 20 110 7 183 32 264 92 51 37 95 90 82
99 -2 2 -14 -2 -26 -7z"/>
<path d="M1595 675 c-32 -19 -98 -47 -145 -62 -79 -26 -96 -28 -250 -28 -160
1 -168 2 -260 34 -132 45 -130 45 -78 17 26 -14 82 -36 125 -48 103 -29 314
-32 413 -5 67 18 209 82 245 111 30 24 16 18 -50 -19z"/>
<path d="M1666 639 c4 -6 36 -15 99 -25 57 -9 210 -16 204 -10 -4 4 -35 9 -70
11 -120 8 -170 14 -181 21 -15 10 -58 12 -52 3z"/>
</g>
</svg>
