<?xml version="1.0" standalone="no"?>
<!DOCTYPE svg PUBLIC "-//W3C//DTD SVG 20010904//EN"
 "http://www.w3.org/TR/2001/REC-SVG-20010904/DTD/svg10.dtd">
<svg version="1.0" xmlns="http://www.w3.org/2000/svg"
 width="300.000000pt" height="82.000000pt" viewBox="0 0 300.000000 82.000000"
 preserveAspectRatio="xMidYMid meet">
<metadata>
Created by potrace 1.10, written by Peter Selinger 2001-2011
</metadata>
<defs>
    <linearGradient id="gradient">
        <stop offset="0%" stop-color="rgba(255, 0, 0, 1)"/>
        <stop offset="10%" stop-color="rgba(255, 154, 0, 1)"/>
        <stop offset="20%" stop-color="rgba(208, 222, 33, 1)"/>
        <stop offset="30%" stop-color="rgba(79, 220, 74, 1)"/>
        <stop offset="40%" stop-color="rgba(63, 218, 216, 1)"/>
        <stop offset="50%" stop-color="rgba(47, 201, 226, 1)"/>
        <stop offset="60%" stop-color="rgba(28, 127, 238, 1)"/>
        <stop offset="70%" stop-color="rgba(95, 21, 242, 1)"/>
        <stop offset="80%" stop-color="rgba(186, 12, 248, 1)"/>
        <stop offset="90%" stop-color="rgba(251, 7, 217, 1)"/>
        <stop offset="100%" stop-color="rgba(255, 0, 0, 1)"/>
    </linearGradient>
</defs>
<g transform="translate(0.000000,82.000000) scale(0.100000,-0.100000)"
fill="url(#gradient)" stroke="black" stroke-width="18">
<path d="M775 663 c-51 -27 -112 -81 -160 -142 -37 -47 -54 -60 -83 -66 -49
-9 -86 -29 -110 -60 -24 -30 -32 -32 -32 -7 0 25 -40 60 -77 68 -39 8 -115
-25 -162 -69 -77 -73 -104 -199 -58 -268 32 -49 81 -71 140 -65 104 11 202 95
298 254 44 72 54 82 79 82 l28 0 -24 -67 c-29 -83 -30 -117 -4 -143 24 -24 51
-25 95 -4 42 19 119 101 142 148 9 20 23 36 30 36 19 0 16 -14 -12 -70 -29
-57 -32 -92 -9 -114 23 -23 66 -19 109 9 l37 26 24 -26 c37 -40 95 -33 153 19
l23 21 -7 -25 c-4 -14 -10 -31 -13 -38 -4 -10 4 -12 34 -6 22 3 39 7 40 8 1 0
20 38 43 82 38 74 85 134 95 123 2 -2 -14 -47 -35 -99 -57 -138 -57 -128 -5
-116 40 9 46 15 70 63 25 51 104 148 113 139 3 -2 -8 -23 -22 -47 -15 -23 -30
-59 -32 -79 -4 -31 -1 -40 18 -54 34 -23 60 -20 109 13 l44 29 27 -29 c15 -16
37 -29 49 -29 24 0 61 17 72 34 5 7 13 3 23 -11 17 -25 54 -30 86 -12 17 8 23
7 34 -8 23 -32 108 -24 182 17 l61 35 22 -28 c30 -38 77 -37 138 5 32 22 47
28 50 19 3 -8 13 -22 24 -33 17 -17 30 -19 70 -16 65 7 120 47 177 129 24 35
49 65 57 67 19 5 18 -1 -12 -59 -28 -56 -30 -115 -3 -132 43 -27 134 26 194
112 21 32 25 45 17 53 -9 9 -28 -4 -77 -55 -92 -95 -105 -91 -55 15 16 34 30
68 30 75 0 21 -31 43 -61 43 -24 0 -29 4 -29 24 0 45 -18 76 -44 76 -45 0 -65
-52 -40 -105 21 -45 9 -79 -53 -141 -45 -45 -80 -61 -109 -50 -25 10 -12 39
21 48 66 16 116 106 80 141 -39 40 -124 7 -163 -61 -45 -80 -162 -165 -162
-118 0 8 21 56 46 105 l47 91 71 0 c71 0 96 10 96 37 0 9 -19 13 -69 13 l-70
0 24 43 c30 51 31 74 5 82 -31 10 -55 -10 -86 -69 -22 -42 -36 -57 -56 -62
-36 -7 -46 -24 -24 -40 17 -12 16 -15 -3 -59 -23 -52 -58 -105 -70 -105 -5 0
-11 13 -14 29 -4 16 -20 45 -37 65 -26 29 -29 39 -21 55 28 51 -4 105 -48 81
-25 -13 -34 -40 -29 -90 2 -32 -4 -48 -36 -92 -21 -29 -52 -64 -70 -76 l-31
-22 -3 24 c-2 13 11 52 27 85 17 33 31 67 31 75 0 19 -34 30 -58 17 -11 -6
-24 -6 -33 0 -48 30 -116 -5 -169 -87 -41 -64 -100 -119 -120 -112 -5 1 8 39
30 82 36 72 39 81 26 100 -18 27 -73 26 -112 -1 l-29 -21 -19 25 c-14 19 -26
24 -55 22 -70 -4 -85 -1 -71 16 20 25 1 35 -66 35 l-65 0 27 50 c25 45 26 52
12 66 -27 27 -61 8 -93 -53 -21 -39 -40 -60 -62 -69 -36 -16 -41 -28 -17 -42
14 -8 12 -16 -14 -68 -28 -56 -109 -144 -132 -144 -14 0 -13 4 20 70 46 91 38
130 -27 130 -32 0 -33 2 -33 38 0 44 -14 62 -48 62 -17 0 -27 -9 -38 -35 -8
-19 -18 -35 -24 -35 -10 0 1 30 54 140 20 41 36 80 36 87 0 18 -48 16 -85 -4z
m-55 -135 c-22 -33 -40 -65 -40 -70 0 -4 -11 -8 -25 -8 -14 0 -25 4 -25 8 0
12 110 132 121 132 5 0 -9 -28 -31 -62z m535 -165 c-62 -100 -175 -190 -175
-139 0 19 26 79 62 142 l30 54 59 0 60 0 -36 -57z m-927 35 c26 -26 5 -115
-36 -152 -16 -14 -30 -17 -55 -12 -40 7 -56 -13 -31 -39 45 -44 161 24 179
104 4 21 11 28 21 24 10 -4 26 8 45 31 17 20 39 36 50 36 10 0 19 -3 19 -6 0
-16 -98 -155 -138 -197 -57 -59 -108 -87 -160 -87 -54 0 -76 26 -75 89 1 60
45 163 85 196 32 27 76 33 96 13z m482 -13 c10 -12 7 -23 -13 -58 -48 -81
-149 -154 -132 -94 23 76 60 139 89 152 40 18 41 18 56 0z m1025 -25 c6 -10
-38 -105 -63 -132 -8 -10 -22 -18 -30 -18 -21 0 -9 61 23 116 25 42 56 57 70
34z m696 -18 c-6 -11 -18 -22 -26 -26 -18 -6 -13 6 13 37 19 22 27 15 13 -11z
m-451 -47 c5 -13 6 -33 3 -45 -5 -19 -11 -21 -41 -17 -19 4 -36 8 -39 11 -7 7
51 84 60 79 5 -3 12 -15 17 -28z"/>
</g>
</svg>
